<?xml version="1.0" encoding="UTF-8" standalone="no"?>
<svg
   xmlns:dc="http://purl.org/dc/elements/1.1/"
   xmlns:cc="http://creativecommons.org/ns#"
   xmlns:rdf="http://www.w3.org/1999/02/22-rdf-syntax-ns#"
   xmlns:svg="http://www.w3.org/2000/svg"
   xmlns="http://www.w3.org/2000/svg"
   viewBox="0 0 1473.3333 530.66669"
   height="530.66669"
   width="1473.3333"
   xml:space="preserve"
   id="svg2"
   version="1.1"><metadata
     id="metadata8"><rdf:RDF><cc:Work
         rdf:about=""><dc:format>image/svg+xml</dc:format><dc:type
           rdf:resource="http://purl.org/dc/dcmitype/StillImage" /></cc:Work></rdf:RDF></metadata><defs
     id="defs6" /><g
     transform="matrix(1.3333333,0,0,-1.3333333,0,530.66667)"
     id="g10"><g
       transform="scale(0.1)"
       id="g12"><g
         transform="scale(10)"
         id="g14"><text
           id="text22"
           style="font-variant:normal;font-weight:normal;font-size:27px;font-family:FreeSerifBold;-inkscape-font-specification:FreeSerifBold;writing-mode:lr-tb;fill:#1a1a1a;fill-opacity:1;fill-rule:nonzero;stroke:none"
           transform="matrix(1,0,0,-1,125.845,99.5309)"><tspan
             id="tspan16"
             y="0"
             x="0 19.413 32.669918 47.897919 62.585918">Round</tspan><tspan
             id="tspan18"
             y="-0.23125"
             x="322.09 337.42599 344.95917 356.16422 371.14923 378.35834">Sickle</tspan><tspan
             id="tspan20"
             y="-0.44062501"
             x="711.19299 729.31 736.84296 750.07306 764.76093">Eight</tspan></text>
</g><path
         id="path24"
         style="fill:none;stroke:#000000;stroke-width:34.01580048;stroke-linecap:butt;stroke-linejoin:bevel;stroke-miterlimit:4;stroke-dasharray:136.063, 68.0315;stroke-dashoffset:0;stroke-opacity:1"
         d="m 1677.38,3399.26 c -136.79,-19.77 -229.02,-338.91 -39.45,-418.17 1343.4,-159.53 580.19,-1609.72 38.52,-1615.86 -1638.7195,146.68 -1193.989,2169.89 -33.83,2034.26 163.63,-19.14 229.72,-357.81 38.32,-418.83 -1385.159,-87.85 -547.5,-1609.1 -30.32,-1616.32 1692.15,142.18 1097.47,2189.64 26.76,2034.92 z" /><path
         id="path26"
         style="fill:#ffffff;fill-opacity:1;fill-rule:nonzero;stroke:none"
         d="M 1050.47,2824.41 C 890.699,2606.56 688.32,2483.01 598.398,2548.4 c -89.918,65.39 -33.277,294.96 126.481,512.81 159.73,217.85 362.151,341.41 452.071,276.02 89.89,-65.39 33.28,-295 -126.48,-512.82 z" /><path
         id="path28"
         style="fill:#ff7315;fill-opacity:1;fill-rule:nonzero;stroke:none"
         d="m 1857.81,2983.28 c 0,-107.73 -87.3,-195.08 -195.08,-195.08 -107.73,0 -195.03,87.35 -195.03,195.08 0,107.74 87.3,195.08 195.03,195.08 107.78,0 195.08,-87.34 195.08,-195.08 z" /><path
         id="path30"
         style="fill:#008000;fill-opacity:1;fill-rule:nonzero;stroke:none"
         d="m 1743.05,2980.12 c 0,-44.92 -36.41,-81.37 -81.33,-81.37 -44.92,0 -81.33,36.45 -81.33,81.37 0,44.88 36.41,81.33 81.33,81.33 44.92,0 81.33,-36.45 81.33,-81.33 z" /><path
         id="path32"
         style="fill:#808080;fill-opacity:1;fill-rule:nonzero;stroke:none"
         d="m 1167.03,2277.93 c -86.72,59.88 -166.64,131.33 -244.331,204.96 -12,11.49 -15.898,21.37 -27,-6.56 -15.269,-39.85 -35.347,-79.77 -71.25,-106.1 -12.219,-8.94 -13.629,-18.98 -7.89,-30.97 5.863,-12.97 10.121,-27.15 17.113,-39.03 6.406,-9.68 0.777,-15.19 -6.051,-20.27 -8.601,-5.78 -11.531,-2.97 -16.41,6.6 -30.859,64.92 -32.031,73.48 17.699,133.79 20.82,25.2 27.379,43.79 12.262,68.75 -3.902,6.21 -3.012,16.13 -6.211,22.81 -4.34,9.22 3.949,33.48 -13.481,25.71 -15.968,-7.39 -41.64,-5.28 -46.992,-36.02 -14.136,-75.31 -47.457,-105.62 -117.34,-102.89 -37.968,1.02 -42.308,-15.31 -40.308,-45.9 1.558,-26.17 8.711,-50.04 19.64,-72.26 4.34,-9.22 10.2,-20.35 -2.5,-27.62 -12.339,-7.93 -17.769,3.87 -22.531,12.42 -17,34.88 -25.937,71.8 -20.429,114.38 4.371,35.97 -46.411,67.34 -78.09,48.71 -36.328,-21.49 -73.36,-32.46 -112.192,-34.06 -10.578,-0.43 -25.117,-3.68 -23.789,14.17 1.449,15.04 14.031,14.15 24.141,14.38 30.469,1.56 60.629,9.3 90.238,24.18 16.832,8.67 22.813,14.8 11.524,34.06 -40.313,69.34 -29.571,108.95 40.347,166.06 19.813,16.32 9.223,36.05 9.422,52.81 0.078,17.77 -15.473,1.91 -23.91,2.38 -45.191,3.95 -69.063,-23.44 -89.961,-66.44 -24.41,-50.75 -57.34,-63.99 -105.738,-55.2 -8.282,1.33 -8.75,6.13 -7.742,11.92 0.98,5.78 3.949,11.56 8.32,15.15 2.699,2.35 8.601,0.27 12.699,-0.08 38.121,-4.37 61.09,9.42 74.262,55.2 10.738,35.94 34.449,69.8 69.918,90.04 2.582,1.56 4.57,3.9 5.82,5.78 -3.59,1.83 -6.68,4.41 -11.168,5.43 -101.211,30.98 -197.269,72.26 -291.492,118.79 -61.789,30.31 -115.7384,71.48 -157.6876,127.3 -60.9805,80.98 -39.92187,150.39 59.8789,197.15 71.6797,33.59 144.3397,45.51 215.4297,26.92 13.441,-3.76 22.461,-6.45 32.66,13.35 25.93,48.87 60.66,65.47 109.961,57.47 58.43,-9.85 100.039,-44.34 129.18,-95.4 3.898,-6.21 7.539,-17.73 12.539,-17.34 10.582,0.43 11.09,13.32 15.781,21.68 27.891,45.74 14.57,90.59 14.059,136.13 0.121,5 -7.27,10.24 0.699,15.12 11.019,6.52 21.762,7.7 33.051,4.88 6.64,-2.03 7.929,-6.17 6.64,-13 -8.09,-49.57 -6.761,-97.5 -7.582,-146.33 -0.187,-22.27 -5.66,-45.24 -8.078,-67.85 -0.82,-6.76 -1.762,-16.68 6.129,-16.8 7.07,0.39 3.789,9.41 5.512,15.12 25.66,91.09 62.34,175.89 129.609,248.47 21.399,23.05 28.238,63.36 36.051,96.64 6.25,26.06 19.809,51.06 19.18,79.34 -0.621,13.67 12.968,8.91 20.199,7.81 9.57,-1.21 16.051,-2.26 11.601,-19.45 -26.992,-118.13 -86.8,-226.17 -130.711,-339.14 -0.621,-1.06 -1.171,-2.46 -1.359,-3.24 -6.019,-20.79 -21.211,-48.32 -0.551,-58.17 14.059,-6.48 22.301,23.83 33.051,37.81 44.141,60.28 93.008,115.63 155.27,154.89 163.399,103.9 310.269,17.97 295.309,-173.83 -6.4,-81.72 -37.5,-157.38 -79.25,-231.09 -4.18,-7.78 -16.8,-17.82 -9.22,-25.08 8.86,-8.99 18.79,3.75 25.97,10.43 60.16,58.04 111.76,124.84 165.75,189.22 31.52,37.89 75.31,58.63 104.8,98.32 10.31,13.36 16.05,-4.11 20.94,-10.04 4.18,-4.53 10.94,-11.25 -1.88,-19.34 -46.76,-28.87 -81.52,-74.22 -124.33,-109.3 -4.57,-3.9 -8.68,-8.98 -10.47,-14.21 -29.42,-95 -94.96,-161.88 -164.57,-227 -3.83,-3.4 -13.17,-5.54 -9.69,-12.38 2.85,-5.98 9.88,-1.87 14.49,1.48 58.63,45.32 128.05,66.25 187.58,108.68 6.21,4.61 9.18,4.96 14.18,0.31 6.91,-7.7 10.74,-17.07 11.13,-27.38 0.78,-11.02 -7.58,-9.22 -13.59,-11.68 -43.79,-18.91 -90.27,-31.02 -121.25,-76.6 -12.7,-18.21 -12.19,-23.56 8.79,-23.13 54.41,-0.82 100.62,-19.61 136.76,-58.75 39.76,-43.36 42.5,-83.09 5.89,-139.14 -12.81,-19.06 -1.83,-25.31 6.06,-34.61 49.14,-59.49 70.98,-132.73 69.1,-216.05 -2.15,-97.82 -53.91,-143.52 -143.4,-129.34 -55.27,9.18 -106.13,31.91 -156.21,61.87 z m -213.749,759.02 c -32.851,19.18 -68.75,36.72 -106.402,50.35 -58.598,21.84 -67.039,16.84 -86.059,-50.7 -3.98,-15.23 -1.41,-21.01 12.461,-24.14 85.239,-20.08 154.77,-65.98 214.34,-127.77 21.909,-22.54 37.219,-22.89 57.539,5.82 4.53,5.7 10.19,10.7 15.07,15.74 18.91,17.38 17,30.94 0.75,45.66 -33.13,30.36 -68.359,59.34 -107.699,85.04 z m 73.199,161.45 c -23.55,12.69 -46.789,26.44 -70.968,38.2 -49.262,23.95 -64.813,17.23 -99.102,-35.31 -9.031,-13.75 -10.199,-19.84 6.051,-23.63 29.879,-6.68 58.238,-17.5 85.238,-31.02 58.751,-30.16 112.221,-68.32 159.641,-113.94 6.45,-6.06 11.96,-22 26.25,-9.85 20.43,17.27 24.81,64.22 7.93,81.64 -34.37,37.58 -73.04,67.39 -115,93.95 z M 269.059,2979.14 c 7.351,-3.4 21.839,-16.52 27.351,-12.38 12.969,8.86 5.309,25.78 4.961,39.26 -0.98,43.63 -9.101,85.46 -21.531,125.58 -27.418,87.85 -45.461,95.55 -135.5,66.17 -22.5,-7.65 -23.719,-15.54 -17.5,-34.72 28.75,-77.27 76.051,-136.53 142.219,-183.91 z m 923.171,-570.55 c 45.54,-24.72 98.36,-41.4 156.01,-43.9 29.65,-1.57 70.94,-12.11 86.99,11.25 17.07,24.92 -5.27,61.44 -15,91.6 -4.25,14.22 -9.76,26.52 -28.32,26.76 -74.14,0.47 -146.17,-17.82 -217.18,-50.94 -18.83,-8.67 -14.93,-14.92 -1.72,-22.15 5.58,-3.63 10.86,-7.15 19.22,-12.62 z m -697.582,851.37 c -30.898,14.26 -61.718,28.01 -98.359,8.52 -33.32,-17.54 -38.59,-48.79 -13.789,-70.51 25.82,-23.28 45.352,-52.5 60.27,-85.12 26.718,-57.23 53.011,-115.08 80.32,-172.69 2.5,-5.28 2.691,-14.11 12.18,-13.01 -1.321,5.9 -2.301,11.09 -4.059,16.37 -24.332,84.02 -37.109,170.5 -15.039,263.47 6.719,28.56 -1.793,42.35 -21.524,52.93 z m 847.232,-524.1 c -26.14,16.68 -30.47,18.59 -45.71,5.62 -74.45,-62.81 -158.28,-93.04 -245.94,-110.23 -5.66,-1.33 -16.21,1.45 -15.78,-7.11 0.28,-7.5 11.45,-3.83 17.5,-3.67 59.22,1.09 118.87,2.81 178.01,4.33 34.84,0.98 68.75,-3.82 100.98,-14.8 12.18,-3.87 22.38,-20.59 38.98,-3.12 17.03,18.16 26.84,38.67 20.98,62.61 -8.01,32.23 -29.69,51.45 -49.02,66.33 z m 3.43,-167.23 c -22.81,18.09 -47.42,20.04 -77.97,6.17 -47.42,-22.03 -96.6,-35.11 -145.82,-44.1 -22.34,-3.67 -44.29,-8.04 -65.78,-12.3 12.97,-20.35 34.26,-31.06 50.51,-47.66 16.6,-17.22 33.2,-16.21 56.13,-4.22 55.39,28.71 112.97,45 171.92,53.52 16.17,2.23 45.93,-2.15 46.87,7.77 2.23,20.51 -20.47,30.28 -35.86,40.82 z m -998.201,369.1 c 21.012,-8.71 36.481,-16.09 53.012,-21.87 7.457,-2.58 14.258,-14.77 22.609,-5.59 5.942,6.61 -2.031,14.57 -4.609,22.19 -21.133,57.23 -35.93,118.09 -36.711,182.15 -0.082,55.35 -31.058,75.59 -72.07,89.61 -6.61,2.03 -14.461,9.53 -21.61,2.23 -7.73,-8.21 0.821,-15.16 3.29,-21.8 26.871,-65.55 39.058,-135.24 37.96,-209.45 0.36,-20.82 3.641,-35.28 18.129,-37.47 z m -230.507,30.47 c 20.546,-12.46 49.058,10.43 76.019,7.89 5.469,-0.78 15.149,-3 17.539,5.47 2.5,7.5 -5.59,10.98 -10.281,15.39 -40.66,38.91 -70.469,85.35 -93.551,138.4 -5.277,12.58 -2.617,35.55 -18.9882,34.34 -17.5703,-1.25 -32.6914,-18.4 -44.6093,-34.81 -16.9492,-24.14 -14.9219,-47.85 -4.8789,-70.86 16.5586,-36.87 45.4297,-63.98 78.7504,-95.82 z m 842.347,-423.08 c -18.988,10.54 -37.738,21.48 -56.84,31.21 -4.379,2.42 -14.097,4.65 -15.16,3.05 -5,-7.7 2.031,-12.78 5.473,-17.31 28.949,-38.55 63.867,-71.02 99.457,-102.46 59.641,-53.16 119.571,-106.49 185.461,-151.88 5.59,-3.63 11.45,-12.96 19.54,-5.43 2.42,2.54 -0.75,12.82 -2.86,18.75 -12.07,32.15 -27.97,62.66 -53.59,82.58 -60.39,47.7 -115.43,102.42 -181.481,141.49 z m -470.238,290 c -57.262,36.09 -122.34,58.94 -182.66,89.68 -36.832,18.6 -75.621,23.83 -117.731,22.11 -7.808,-0.43 -20.781,-1.99 -21.84,-5.39 -4.332,-12.69 8.68,-12.97 15,-16.64 98.911,-52.77 202.469,-95.35 309.54,-130.11 18.902,-6.41 38.281,-14.54 60.742,-10 -8.442,22.42 -30.903,27.03 -46.922,40.27 -4.328,3.79 -10.352,6.76 -16.09,10.12 z M 1426.8,2279.53 c 7.89,10.82 10.9,25.78 13.24,41.6 2.03,12.85 -0.27,20.28 -14.73,18.28 -70.08,-10.39 -136.05,-2.89 -198.75,21.18 -4.33,1.87 -10.11,5.23 -13.94,-3.68 -1.96,-4.21 31.13,-85.23 36.21,-87.22 37.3,-14.77 74.96,-28.44 117.38,-26.88 22.66,1.14 44.69,8.71 60.59,36.72 z m -515.32,397.15 c -8.98,-13.75 -2.691,-26.09 15.282,-25.98 101.758,-0.23 202.458,16.21 298.278,73.32 16.37,9.85 46.41,20.39 42.62,36.57 -2.86,13.32 -33.95,3.47 -52.86,-1.06 -95.97,-25.04 -191.25,-56.91 -288.511,-74.22 -5.117,-1.68 -11.519,-1.17 -14.809,-8.55 z m -60,214.73 c -29.21,20.47 -61.832,34.49 -95.39,45.89 -7.461,2.62 -21.52,15.86 -25.66,-6.99 -3.282,-16.6 -24.258,-38.98 -1.481,-49.76 59.723,-28.05 114.961,-62.35 166.321,-103.71 21.718,-17.39 36.57,12.69 50.781,25.31 15.199,12.89 -4.25,19.69 -10.031,24.84 -26.02,24.77 -52.899,48.28 -84.54,64.42 z m -240.929,-58.68 c 5.039,-5.15 9.019,-4.49 13.121,-1.25 7.808,5.86 9.808,13.21 7.808,22.31 -6.441,27.97 -13.359,55.78 -19.25,83.87 -16.41,79.76 -26.531,161.79 -52.66,238.24 -2.769,9.14 -4.8,25.55 -13.949,23.75 -11.09,-2.35 -8.351,-18.28 -9.332,-27.7 -14.769,-123.83 18.16,-231.29 70.082,-331.01 1.598,-4.26 3.469,-6.84 4.18,-8.21 z m 45.23,-267.22 c 32.93,-17.89 70.239,-29.03 113.828,-4.96 4.493,2.5 11.911,5.47 9.692,12.42 -0.629,2.69 -6.41,4.22 -10.551,4.57 -65.199,12.93 -118.199,45.74 -158.32,98.94 -3.129,4.34 -7.539,6.76 -11.95,9.69 -1.761,-5.7 -4.07,-11.05 -4.531,-16.68 0.43,-48.75 23.512,-79.84 61.871,-103.98 z m 466.169,747.38 c -33.9,21.21 -71.83,22.27 -112.07,10.63 -6.52,-2.15 -16.868,-6.37 -17.028,-8.95 -0.821,-10.43 9.728,-9.53 15.668,-12.03 57.81,-19.96 109.6,-49.73 152.81,-93.95 3.28,-3.51 8.55,-5.15 13.16,-7.22 1.02,5.78 3.21,11.6 2.23,16.83 -6.76,39.61 -22.38,73.6 -54.73,94.73 z M 501.41,2862.46 c 5.578,-3.59 10.86,-7.11 16.602,-9.88 3.59,-1.84 7.609,-1.76 11.437,-1.99 -0.859,4.18 0,9.14 -2.027,12.73 -35,75 -69.961,149.49 -105.66,224.02 -2.032,3.64 -6.453,9.69 -8.133,8.95 -7.539,-3.79 -2.969,-9.45 -2.539,-14.3 6.14,-49.72 15.898,-98.16 35.281,-142.81 13.629,-30.39 24.84,-61.95 55.039,-76.68 z m 454.18,-273.08 c -4.301,-7.27 1.172,-8.56 4.058,-10.9 19.731,-12.46 38.872,-25.82 64.652,-27.19 61.01,-2.85 121.13,9.96 181.09,29.26 5.82,2.15 16.06,1.36 14.81,10.43 -0.98,8.36 -11.02,4.49 -17.04,3.82 -77.69,-1.32 -156.05,-3.08 -234.25,-4.57 -4.89,0.47 -9.34,-0.27 -13.32,-0.93 z" /><path
         id="path34"
         style="fill:none;stroke:#1a1a1a;stroke-width:8.50393963;stroke-linecap:butt;stroke-linejoin:miter;stroke-miterlimit:4;stroke-dasharray:none;stroke-opacity:1"
         d="m 1167.03,2277.93 c -86.72,59.88 -166.64,131.33 -244.331,204.96 -12,11.49 -15.898,21.37 -27,-6.56 -15.269,-39.85 -35.347,-79.77 -71.25,-106.1 -12.219,-8.94 -13.629,-18.98 -7.89,-30.97 5.863,-12.97 10.121,-27.15 17.113,-39.03 6.406,-9.68 0.777,-15.19 -6.051,-20.27 -8.601,-5.78 -11.531,-2.97 -16.41,6.6 -30.859,64.92 -32.031,73.48 17.699,133.79 20.82,25.2 27.379,43.79 12.262,68.75 -3.902,6.21 -3.012,16.13 -6.211,22.81 -4.34,9.22 3.949,33.48 -13.481,25.71 -15.968,-7.39 -41.64,-5.28 -46.992,-36.02 -14.136,-75.31 -47.457,-105.62 -117.34,-102.89 -37.968,1.02 -42.308,-15.31 -40.308,-45.9 1.558,-26.17 8.711,-50.04 19.64,-72.26 4.34,-9.22 10.2,-20.35 -2.5,-27.62 -12.339,-7.93 -17.769,3.87 -22.531,12.42 -17,34.88 -25.937,71.8 -20.429,114.38 4.371,35.97 -46.411,67.34 -78.09,48.71 -36.328,-21.49 -73.36,-32.46 -112.192,-34.06 -10.578,-0.43 -25.117,-3.68 -23.789,14.17 1.449,15.04 14.031,14.15 24.141,14.38 30.469,1.56 60.629,9.3 90.238,24.18 16.832,8.67 22.813,14.8 11.524,34.06 -40.313,69.34 -29.571,108.95 40.347,166.06 19.813,16.32 9.223,36.05 9.422,52.81 0.078,17.77 -15.473,1.91 -23.91,2.38 -45.191,3.95 -69.063,-23.44 -89.961,-66.44 -24.41,-50.75 -57.34,-63.99 -105.738,-55.2 -8.282,1.33 -8.75,6.13 -7.742,11.92 0.98,5.78 3.949,11.56 8.32,15.15 2.699,2.35 8.601,0.27 12.699,-0.08 38.121,-4.37 61.09,9.42 74.262,55.2 10.738,35.94 34.449,69.8 69.918,90.04 2.582,1.56 4.57,3.9 5.82,5.78 -3.59,1.83 -6.68,4.41 -11.168,5.43 -101.211,30.98 -197.269,72.26 -291.492,118.79 -61.789,30.31 -115.7384,71.48 -157.6876,127.3 -60.9805,80.98 -39.92187,150.39 59.8789,197.15 71.6797,33.59 144.3397,45.51 215.4297,26.92 13.441,-3.76 22.461,-6.45 32.66,13.35 25.93,48.87 60.66,65.47 109.961,57.47 58.43,-9.85 100.039,-44.34 129.18,-95.4 3.898,-6.21 7.539,-17.73 12.539,-17.34 10.582,0.43 11.09,13.32 15.781,21.68 27.891,45.74 14.57,90.59 14.059,136.13 0.121,5 -7.27,10.24 0.699,15.12 11.019,6.52 21.762,7.7 33.051,4.88 6.64,-2.03 7.929,-6.17 6.64,-13 -8.09,-49.57 -6.761,-97.5 -7.582,-146.33 -0.187,-22.27 -5.66,-45.24 -8.078,-67.85 -0.82,-6.76 -1.762,-16.68 6.129,-16.8 7.07,0.39 3.789,9.41 5.512,15.12 25.66,91.09 62.34,175.89 129.609,248.47 21.399,23.05 28.238,63.36 36.051,96.64 6.25,26.06 19.809,51.06 19.18,79.34 -0.621,13.67 12.968,8.91 20.199,7.81 9.57,-1.21 16.051,-2.26 11.601,-19.45 -26.992,-118.13 -86.8,-226.17 -130.711,-339.14 -0.621,-1.06 -1.171,-2.46 -1.359,-3.24 -6.019,-20.79 -21.211,-48.32 -0.551,-58.17 14.059,-6.48 22.301,23.83 33.051,37.81 44.141,60.28 93.008,115.63 155.27,154.89 163.399,103.9 310.269,17.97 295.309,-173.83 -6.4,-81.72 -37.5,-157.38 -79.25,-231.09 -4.18,-7.78 -16.8,-17.82 -9.22,-25.08 8.86,-8.99 18.79,3.75 25.97,10.43 60.16,58.04 111.76,124.84 165.75,189.22 31.52,37.89 75.31,58.63 104.8,98.32 10.31,13.36 16.05,-4.11 20.94,-10.04 4.18,-4.53 10.94,-11.25 -1.88,-19.34 -46.76,-28.87 -81.52,-74.22 -124.33,-109.3 -4.57,-3.9 -8.68,-8.98 -10.47,-14.21 -29.42,-95 -94.96,-161.88 -164.57,-227 -3.83,-3.4 -13.17,-5.54 -9.69,-12.38 2.85,-5.98 9.88,-1.87 14.49,1.48 58.63,45.32 128.05,66.25 187.58,108.68 6.21,4.61 9.18,4.96 14.18,0.31 6.91,-7.7 10.74,-17.07 11.13,-27.38 0.78,-11.02 -7.58,-9.22 -13.59,-11.68 -43.79,-18.91 -90.27,-31.02 -121.25,-76.6 -12.7,-18.21 -12.19,-23.56 8.79,-23.13 54.41,-0.82 100.62,-19.61 136.76,-58.75 39.76,-43.36 42.5,-83.09 5.89,-139.14 -12.81,-19.06 -1.83,-25.31 6.06,-34.61 49.14,-59.49 70.98,-132.73 69.1,-216.05 -2.15,-97.82 -53.91,-143.52 -143.4,-129.34 -55.27,9.18 -106.13,31.91 -156.21,61.87 z m -213.749,759.02 c -32.851,19.18 -68.75,36.72 -106.402,50.35 -58.598,21.84 -67.039,16.84 -86.059,-50.7 -3.98,-15.23 -1.41,-21.01 12.461,-24.14 85.239,-20.08 154.77,-65.98 214.34,-127.77 21.909,-22.54 37.219,-22.89 57.539,5.82 4.53,5.7 10.19,10.7 15.07,15.74 18.91,17.38 17,30.94 0.75,45.66 -33.13,30.36 -68.359,59.34 -107.699,85.04 z m 73.199,161.45 c -23.55,12.69 -46.789,26.44 -70.968,38.2 -49.262,23.95 -64.813,17.23 -99.102,-35.31 -9.031,-13.75 -10.199,-19.84 6.051,-23.63 29.879,-6.68 58.238,-17.5 85.238,-31.02 58.751,-30.16 112.221,-68.32 159.641,-113.94 6.45,-6.06 11.96,-22 26.25,-9.85 20.43,17.27 24.81,64.22 7.93,81.64 -34.37,37.58 -73.04,67.39 -115,93.95 z M 269.059,2979.14 c 7.351,-3.4 21.839,-16.52 27.351,-12.38 12.969,8.86 5.309,25.78 4.961,39.26 -0.98,43.63 -9.101,85.46 -21.531,125.58 -27.418,87.85 -45.461,95.55 -135.5,66.17 -22.5,-7.65 -23.719,-15.54 -17.5,-34.72 28.75,-77.27 76.051,-136.53 142.219,-183.91 z m 923.171,-570.55 c 45.54,-24.72 98.36,-41.4 156.01,-43.9 29.65,-1.57 70.94,-12.11 86.99,11.25 17.07,24.92 -5.27,61.44 -15,91.6 -4.25,14.22 -9.76,26.52 -28.32,26.76 -74.14,0.47 -146.17,-17.82 -217.18,-50.94 -18.83,-8.67 -14.93,-14.92 -1.72,-22.15 5.58,-3.63 10.86,-7.15 19.22,-12.62 z m -697.582,851.37 c -30.898,14.26 -61.718,28.01 -98.359,8.52 -33.32,-17.54 -38.59,-48.79 -13.789,-70.51 25.82,-23.28 45.352,-52.5 60.27,-85.12 26.718,-57.23 53.011,-115.08 80.32,-172.69 2.5,-5.28 2.691,-14.11 12.18,-13.01 -1.321,5.9 -2.301,11.09 -4.059,16.37 -24.332,84.02 -37.109,170.5 -15.039,263.47 6.719,28.56 -1.793,42.35 -21.524,52.93 z m 847.232,-524.1 c -26.14,16.68 -30.47,18.59 -45.71,5.62 -74.45,-62.81 -158.28,-93.04 -245.94,-110.23 -5.66,-1.33 -16.21,1.45 -15.78,-7.11 0.28,-7.5 11.45,-3.83 17.5,-3.67 59.22,1.09 118.87,2.81 178.01,4.33 34.84,0.98 68.75,-3.82 100.98,-14.8 12.18,-3.87 22.38,-20.59 38.98,-3.12 17.03,18.16 26.84,38.67 20.98,62.61 -8.01,32.23 -29.69,51.45 -49.02,66.33 z m 3.43,-167.23 c -22.81,18.09 -47.42,20.04 -77.97,6.17 -47.42,-22.03 -96.6,-35.11 -145.82,-44.1 -22.34,-3.67 -44.29,-8.04 -65.78,-12.3 12.97,-20.35 34.26,-31.06 50.51,-47.66 16.6,-17.22 33.2,-16.21 56.13,-4.22 55.39,28.71 112.97,45 171.92,53.52 16.17,2.23 45.93,-2.15 46.87,7.77 2.23,20.51 -20.47,30.28 -35.86,40.82 z m -998.201,369.1 c 21.012,-8.71 36.481,-16.09 53.012,-21.87 7.457,-2.58 14.258,-14.77 22.609,-5.59 5.942,6.61 -2.031,14.57 -4.609,22.19 -21.133,57.23 -35.93,118.09 -36.711,182.15 -0.082,55.35 -31.058,75.59 -72.07,89.61 -6.61,2.03 -14.461,9.53 -21.61,2.23 -7.73,-8.21 0.821,-15.16 3.29,-21.8 26.871,-65.55 39.058,-135.24 37.96,-209.45 0.36,-20.82 3.641,-35.28 18.129,-37.47 z m -230.507,30.47 c 20.546,-12.46 49.058,10.43 76.019,7.89 5.469,-0.78 15.149,-3 17.539,5.47 2.5,7.5 -5.59,10.98 -10.281,15.39 -40.66,38.91 -70.469,85.35 -93.551,138.4 -5.277,12.58 -2.617,35.55 -18.9882,34.34 -17.5703,-1.25 -32.6914,-18.4 -44.6093,-34.81 -16.9492,-24.14 -14.9219,-47.85 -4.8789,-70.86 16.5586,-36.87 45.4297,-63.98 78.7504,-95.82 z m 842.347,-423.08 c -18.988,10.54 -37.738,21.48 -56.84,31.21 -4.379,2.42 -14.097,4.65 -15.16,3.05 -5,-7.7 2.031,-12.78 5.473,-17.31 28.949,-38.55 63.867,-71.02 99.457,-102.46 59.641,-53.16 119.571,-106.49 185.461,-151.88 5.59,-3.63 11.45,-12.96 19.54,-5.43 2.42,2.54 -0.75,12.82 -2.86,18.75 -12.07,32.15 -27.97,62.66 -53.59,82.58 -60.39,47.7 -115.43,102.42 -181.481,141.49 z m -470.238,290 c -57.262,36.09 -122.34,58.94 -182.66,89.68 -36.832,18.6 -75.621,23.83 -117.731,22.11 -7.808,-0.43 -20.781,-1.99 -21.84,-5.39 -4.332,-12.69 8.68,-12.97 15,-16.64 98.911,-52.77 202.469,-95.35 309.54,-130.11 18.902,-6.41 38.281,-14.54 60.742,-10 -8.442,22.42 -30.903,27.03 -46.922,40.27 -4.328,3.79 -10.352,6.76 -16.09,10.12 z M 1426.8,2279.53 c 7.89,10.82 10.9,25.78 13.24,41.6 2.03,12.85 -0.27,20.28 -14.73,18.28 -70.08,-10.39 -136.05,-2.89 -198.75,21.18 -4.33,1.87 -10.11,5.23 -13.94,-3.68 -1.96,-4.21 31.13,-85.23 36.21,-87.22 37.3,-14.77 74.96,-28.44 117.38,-26.88 22.66,1.14 44.69,8.71 60.59,36.72 z m -515.32,397.15 c -8.98,-13.75 -2.691,-26.09 15.282,-25.98 101.758,-0.23 202.458,16.21 298.278,73.32 16.37,9.85 46.41,20.39 42.62,36.57 -2.86,13.32 -33.95,3.47 -52.86,-1.06 -95.97,-25.04 -191.25,-56.91 -288.511,-74.22 -5.117,-1.68 -11.519,-1.17 -14.809,-8.55 z m -60,214.73 c -29.21,20.47 -61.832,34.49 -95.39,45.89 -7.461,2.62 -21.52,15.86 -25.66,-6.99 -3.282,-16.6 -24.258,-38.98 -1.481,-49.76 59.723,-28.05 114.961,-62.35 166.321,-103.71 21.718,-17.39 36.57,12.69 50.781,25.31 15.199,12.89 -4.25,19.69 -10.031,24.84 -26.02,24.77 -52.899,48.28 -84.54,64.42 z m -240.929,-58.68 c 5.039,-5.15 9.019,-4.49 13.121,-1.25 7.808,5.86 9.808,13.21 7.808,22.31 -6.441,27.97 -13.359,55.78 -19.25,83.87 -16.41,79.76 -26.531,161.79 -52.66,238.24 -2.769,9.14 -4.8,25.55 -13.949,23.75 -11.09,-2.35 -8.351,-18.28 -9.332,-27.7 -14.769,-123.83 18.16,-231.29 70.082,-331.01 1.598,-4.26 3.469,-6.84 4.18,-8.21 z m 45.23,-267.22 c 32.93,-17.89 70.239,-29.03 113.828,-4.96 4.493,2.5 11.911,5.47 9.692,12.42 -0.629,2.69 -6.41,4.22 -10.551,4.57 -65.199,12.93 -118.199,45.74 -158.32,98.94 -3.129,4.34 -7.539,6.76 -11.95,9.69 -1.761,-5.7 -4.07,-11.05 -4.531,-16.68 0.43,-48.75 23.512,-79.84 61.871,-103.98 z m 466.169,747.38 c -33.9,21.21 -71.83,22.27 -112.07,10.63 -6.52,-2.15 -16.868,-6.37 -17.028,-8.95 -0.821,-10.43 9.728,-9.53 15.668,-12.03 57.81,-19.96 109.6,-49.73 152.81,-93.95 3.28,-3.51 8.55,-5.15 13.16,-7.22 1.02,5.78 3.21,11.6 2.23,16.83 -6.76,39.61 -22.38,73.6 -54.73,94.73 z M 501.41,2862.46 c 5.578,-3.59 10.86,-7.11 16.602,-9.88 3.59,-1.84 7.609,-1.76 11.437,-1.99 -0.859,4.18 0,9.14 -2.027,12.73 -35,75 -69.961,149.49 -105.66,224.02 -2.032,3.64 -6.453,9.69 -8.133,8.95 -7.539,-3.79 -2.969,-9.45 -2.539,-14.3 6.14,-49.72 15.898,-98.16 35.281,-142.81 13.629,-30.39 24.84,-61.95 55.039,-76.68 z m 454.18,-273.08 c -4.301,-7.27 1.172,-8.56 4.058,-10.9 19.731,-12.46 38.872,-25.82 64.652,-27.19 61.01,-2.85 121.13,9.96 181.09,29.26 5.82,2.15 16.06,1.36 14.81,10.43 -0.98,8.36 -11.02,4.49 -17.04,3.82 -77.69,-1.32 -156.05,-3.08 -234.25,-4.57 -4.89,0.47 -9.34,-0.27 -13.32,-0.93 z" /><path
         id="path36"
         style="fill:#000000;fill-opacity:1;fill-rule:nonzero;stroke:none"
         d="m 2289.06,2364.45 14.42,-65.62 78.28,120.58 121.25,-78.24 -14.18,66.8 -121.17,78.24 z" /><path
         id="path38"
         style="fill:#000000;fill-opacity:1;fill-rule:nonzero;stroke:none"
         d="m 2746.41,2744.57 -18.79,64.49 -70.04,-125.51 -126.21,69.93 18.63,-65.71 126.13,-69.92 z" /><path
         id="path40"
         style="fill:#000000;fill-opacity:1;fill-rule:nonzero;stroke:none"
         d="m 877.07,2056.13 16.719,-65.04 74.02,123.25 123.871,-73.95 -16.48,66.25 -123.829,73.95 z" /><path
         id="path42"
         style="fill:#000000;fill-opacity:1;fill-rule:nonzero;stroke:none"
         d="m 903.441,1954.61 16.719,-65.08 74.02,123.24 123.91,-73.94 -16.53,66.25 -123.83,73.94 z" /><path
         id="path44"
         style="fill:#000000;fill-opacity:1;fill-rule:nonzero;stroke:none"
         d="m 814.18,1952.19 -31.129,59.53 -43.949,-136.84 -137.5,43.75 31.168,-60.74 137.429,-43.79 z" /><path
         id="path46"
         style="fill:#000000;fill-opacity:1;fill-rule:nonzero;stroke:none"
         d="m 765.352,2045.08 -31.09,59.53 -43.992,-136.88 -137.5,43.79 31.179,-60.78 137.422,-43.79 z" /><path
         id="path48"
         style="fill:#ff7315;fill-opacity:1;fill-rule:nonzero;stroke:none"
         d="m 4807.27,2848.05 -384.89,357.93 c 249.89,297.65 506.84,292.57 770.47,0.31 z" /><path
         id="path50"
         style="fill:none;stroke:#1a1a1a;stroke-width:34.01580048;stroke-linecap:butt;stroke-linejoin:miter;stroke-miterlimit:4;stroke-dasharray:none;stroke-opacity:1"
         d="m 4419.92,3205.39 c 146.96,163.32 132.62,118.48 36.96,-30.43 -115.9,-176.52 -84.73,-162.81 38.63,-29.92 130.86,144.73 148.01,140.31 38.75,-30 -115.51,-178.52 -82.7,-162.31 38.59,-29.92 130.24,143.79 148.4,140.5 38.99,-30.2 -117.74,-178.12 -85.24,-163.01 38.86,-30.12 157.27,173.29 124.46,105.4 38.6,-29.92 -102.85,-154.96 -103.21,-181.64 38.9,-30.11 130.32,138.08 153.56,140.97 38.91,-30.16 -124.88,-188.13 -77.23,-152.97 38.63,-29.34" /><path
         id="path52"
         style="fill:none;stroke:#1a1a1a;stroke-width:34.01580048;stroke-linecap:butt;stroke-linejoin:miter;stroke-miterlimit:4;stroke-dasharray:136.063, 68.0315;stroke-dashoffset:0;stroke-opacity:1"
         d="M 4434.49,3196.68 C 3450.08,3923.67 2415.82,2502.62 3241.95,1658.75 3971.76,917.66 4805.9,1823.36 4805.9,2902.23" /><path
         id="path54"
         style="fill:#1a1a1a;fill-opacity:1;fill-rule:evenodd;stroke:none"
         d="m 3265.78,1634.49 -144.33,1.29 -47.66,48.56 144.33,-1.33 1.29,144.33 47.7,-48.55 z" /><path
         id="path56"
         style="fill:none;stroke:#1a1a1a;stroke-width:34.01580048;stroke-linecap:butt;stroke-linejoin:miter;stroke-miterlimit:4;stroke-dasharray:none;stroke-opacity:1"
         d="m 4806.45,2905.74 c 146.91,-163.32 132.61,-118.44 36.95,30.43 -115.94,176.53 -84.77,162.85 38.63,29.92 130.82,-144.72 148.01,-140.27 38.71,30 -115.51,178.52 -82.65,162.31 38.6,29.93 130.27,-143.79 148.43,-140.51 38.98,30.19 -117.73,178.13 -85.23,163.05 38.87,30.12 157.26,-173.28 124.49,-105.35 38.59,29.92 -102.85,154.96 -103.16,181.64 38.91,30.16 130.31,-138.13 153.55,-141.02 38.9,30.11 -124.88,188.13 -77.22,153.01 38.68,29.38" /><path
         id="path58"
         style="fill:none;stroke:#1a1a1a;stroke-width:34.01580048;stroke-linecap:butt;stroke-linejoin:miter;stroke-miterlimit:4;stroke-dasharray:136.063, 68.0315;stroke-dashoffset:0;stroke-opacity:1"
         d="M 5179.38,3195.2 C 6163.79,3922.19 7182.7,2493.83 6356.6,1649.96 5626.8,908.871 4805.08,1825.43 4805.08,2904.3" /><path
         id="path60"
         style="fill:#1a1a1a;fill-opacity:1;fill-rule:evenodd;stroke:none"
         d="m 6332.77,1625.66 -1.32,144.34 47.65,48.52 1.33,-144.3 144.3,1.33 -47.66,-48.56 z" /><path
         id="path62"
         style="fill:#008000;fill-opacity:1;fill-rule:nonzero;stroke:none"
         d="m 4882.73,2872.15 c 0,-44.92 -36.4,-81.33 -81.32,-81.33 -44.93,0 -81.33,36.41 -81.33,81.33 0,44.92 36.4,81.33 81.33,81.33 44.92,0 81.32,-36.41 81.32,-81.33 z" /><path
         id="path64"
         style="fill:#ffffff;fill-opacity:1;fill-rule:nonzero;stroke:none"
         d="m 5347.73,2024.45 c -159.76,217.85 -362.14,341.41 -452.07,276.02 -89.92,-65.39 -33.32,-295 126.45,-512.81 159.77,-217.86 362.15,-341.45 452.07,-276.02 89.92,65.39 33.32,294.96 -126.45,512.81 z" /><path
         id="path66"
         style="fill:#808080;fill-opacity:1;fill-rule:nonzero;stroke:none"
         d="m 5464.26,2570.94 c -86.68,-59.89 -166.6,-131.33 -244.34,-204.96 -11.99,-11.49 -15.9,-21.37 -26.99,6.56 -15.23,39.84 -35.31,79.76 -71.25,106.09 -12.19,8.95 -13.59,18.99 -7.89,30.94 5.86,13.01 10.16,27.19 17.11,39.06 6.44,9.69 0.82,15.2 -6.06,20.28 -8.59,5.78 -11.48,2.97 -16.4,-6.61 -30.82,-64.96 -31.99,-73.47 17.69,-133.78 20.86,-25.2 27.42,-43.79 12.27,-68.75 -3.91,-6.22 -2.97,-16.14 -6.21,-22.82 -4.3,-9.22 3.98,-33.51 -13.44,-25.7 -15.98,7.38 -41.64,5.27 -46.99,36.02 -14.18,75.31 -47.5,105.62 -117.38,102.89 -37.93,-1.02 -42.27,15.31 -40.32,45.89 1.6,26.18 8.75,50 19.69,72.27 4.34,9.22 10.2,20.35 -2.5,27.62 -12.34,7.93 -17.77,-3.87 -22.54,-12.42 -17.03,-34.89 -25.98,-71.8 -20.47,-114.38 4.38,-35.98 -46.36,-67.34 -78.04,-48.71 -36.37,21.48 -73.36,32.46 -112.23,34.06 -10.59,0.39 -25.08,3.67 -23.75,-14.18 1.44,-15.04 13.98,-14.14 24.14,-14.37 30.47,-1.56 60.59,-9.3 90.23,-24.18 16.8,-8.67 22.82,-14.81 11.49,-34.1 -40.31,-69.3 -29.57,-108.91 40.39,-166.02 19.76,-16.33 9.18,-36.05 9.37,-52.81 0.08,-17.78 -15.46,-1.92 -23.9,-2.38 -45.2,-3.95 -69.03,23.43 -89.96,66.4 -24.42,50.78 -57.31,64.03 -105.71,55.24 -8.32,-1.33 -8.75,-6.14 -7.77,-11.92 0.98,-5.78 3.98,-11.6 8.32,-15.15 2.73,-2.35 8.59,-0.28 12.7,0.07 38.16,4.38 61.09,-9.45 74.25,-55.19 10.75,-35.98 34.46,-69.85 69.96,-90.04 2.54,-1.6 4.54,-3.91 5.79,-5.82 -3.56,-1.84 -6.64,-4.42 -11.18,-5.43 -101.21,-30.94 -197.22,-72.27 -291.44,-118.75 -61.8,-30.35 -115.74,-71.48 -157.74,-127.31 -60.93,-80.97 -39.88,-150.43 59.89,-197.14 71.72,-33.6 144.37,-45.51 215.43,-26.92 13.47,3.75 22.46,6.45 32.65,-13.4 25.94,-48.82 60.67,-65.47 110,-57.46 58.44,9.89 100,44.38 129.18,95.43 3.91,6.17 7.5,17.7 12.54,17.35 10.59,-0.43 11.1,-13.32 15.74,-21.68 27.89,-45.78 14.57,-90.59 14.11,-136.18 0.07,-4.96 -7.27,-10.23 0.7,-15.07 10.98,-6.53 21.76,-7.7 33.05,-4.89 6.6,2.03 7.89,6.18 6.64,13.01 -8.09,49.57 -6.76,97.5 -7.58,146.33 -0.24,22.27 -5.67,45.19 -8.09,67.85 -0.86,6.76 -1.76,16.68 6.13,16.8 7.04,-0.39 3.75,-9.42 5.51,-15.16 25.63,-91.09 62.31,-175.9 129.61,-248.44 21.41,-23.04 28.24,-63.36 36.06,-96.64 6.25,-26.09 19.76,-51.05 19.14,-79.37 -0.59,-13.63 12.97,-8.87 20.23,-7.77 9.57,1.21 16.06,2.26 11.6,19.45 -26.99,118.08 -86.79,226.17 -130.74,339.14 -0.62,1.05 -1.17,2.42 -1.37,3.24 -5.97,20.74 -21.17,48.32 -0.54,58.13 14.1,6.48 22.34,-23.79 33.04,-37.78 44.18,-60.27 93.05,-115.62 155.32,-154.92 163.39,-103.91 310.27,-17.93 295.31,173.83 -6.41,81.76 -37.5,157.42 -79.26,231.13 -4.22,7.78 -16.84,17.81 -9.22,25.04 8.87,8.99 18.75,-3.71 25.98,-10.43 60.16,-58.01 111.76,-124.84 165.74,-189.18 31.52,-37.89 75.31,-58.63 104.81,-98.32 10.31,-13.36 16.05,4.1 20.89,10.04 4.22,4.53 10.98,11.25 -1.87,19.34 -46.72,28.86 -81.52,74.21 -124.34,109.29 -4.53,3.91 -8.63,8.99 -10.47,14.18 -29.41,95.04 -94.96,161.88 -164.53,227 -3.86,3.43 -13.2,5.58 -9.72,12.42 2.85,5.97 9.92,1.87 14.53,-1.53 58.63,-45.27 128.01,-66.21 187.58,-108.63 6.21,-4.61 9.18,-5 14.14,-0.35 6.91,7.73 10.78,17.07 11.17,27.42 0.78,11.02 -7.58,9.18 -13.6,11.68 -43.78,18.91 -90.31,31.02 -121.25,76.6 -12.69,18.21 -12.22,23.56 8.79,23.09 54.38,0.82 100.63,19.65 136.76,58.79 39.77,43.36 42.5,83.08 5.9,139.14 -12.85,19.02 -1.84,25.31 6.05,34.57 49.11,59.53 70.94,132.77 69.07,216.09 -2.15,97.78 -53.87,143.48 -143.36,129.34 -55.31,-9.18 -106.13,-31.92 -156.21,-61.92 z m -213.71,-759.03 c -32.85,-19.18 -68.79,-36.71 -106.45,-50.35 -58.59,-21.83 -67.03,-16.83 -86.05,50.71 -3.95,15.23 -1.37,21.01 12.5,24.14 85.23,20.07 154.76,65.97 214.33,127.77 21.92,22.54 37.19,22.89 57.54,-5.82 4.53,-5.7 10.2,-10.7 15.04,-15.74 18.91,-17.39 17.03,-30.94 0.78,-45.67 -33.12,-30.35 -68.36,-59.33 -107.69,-85.04 z m 73.2,-161.44 c -23.55,-12.7 -46.84,-26.45 -70.98,-38.2 -49.25,-23.99 -64.8,-17.23 -99.1,35.31 -9.02,13.75 -10.19,19.84 6.06,23.63 29.84,6.68 58.24,17.5 85.23,31.02 58.71,30.15 112.23,68.32 159.65,113.94 6.41,6.06 11.91,21.99 26.21,9.85 20.43,-17.27 24.84,-64.22 7.97,-81.64 -34.41,-37.58 -73.05,-67.39 -115.04,-93.95 z m -757.42,219.26 c 7.3,3.39 21.83,16.52 27.34,12.38 12.97,-8.87 5.28,-25.78 4.92,-39.26 -0.97,-43.63 -9.06,-85.47 -21.48,-125.58 -27.42,-87.86 -45.51,-95.55 -135.51,-66.18 -22.54,7.66 -23.71,15.55 -17.5,34.69 28.75,77.31 76.02,136.56 142.23,183.95 z m 923.16,570.5 c 45.55,24.77 98.36,41.45 156.02,43.95 29.65,1.56 70.94,12.11 86.95,-11.25 17.11,-24.96 -5.27,-61.48 -15,-91.64 -4.26,-14.18 -9.76,-26.49 -28.32,-26.72 -74.14,-0.47 -146.17,17.81 -217.15,50.94 -18.87,8.67 -14.92,14.92 -1.76,22.15 5.59,3.63 10.9,7.14 19.26,12.61 z m -697.61,-851.32 c -30.86,-14.26 -61.72,-28.01 -98.33,-8.52 -33.32,17.54 -38.63,48.79 -13.78,70.51 25.78,23.28 45.31,52.5 60.27,85.12 26.72,57.22 53.01,115.07 80.27,172.69 2.54,5.27 2.74,14.1 12.23,13.01 -1.37,-5.9 -2.31,-11.1 -4.06,-16.37 -24.38,-84.02 -37.15,-170.51 -15.04,-263.47 6.68,-28.56 -1.84,-42.35 -21.56,-52.97 z m 847.22,524.1 c -26.09,-16.68 -30.47,-18.6 -45.66,-5.67 -74.49,62.86 -158.32,93.09 -245.98,110.28 -5.66,1.33 -16.17,-1.45 -15.74,7.07 0.27,7.54 11.44,3.83 17.5,3.71 59.22,-1.1 118.83,-2.81 177.97,-4.34 34.88,-0.97 68.79,3.79 101.01,14.81 12.19,3.86 22.39,20.58 38.99,3.08 16.99,-18.12 26.83,-38.63 20.97,-62.57 -8.04,-32.23 -29.72,-51.45 -49.02,-66.37 z m 3.48,167.22 c -22.85,-18.08 -47.46,-20.03 -78.01,-6.17 -47.42,22.03 -96.56,35.12 -145.82,44.1 -22.3,3.68 -44.26,8.05 -65.74,12.31 12.97,20.35 34.22,31.05 50.51,47.62 16.56,17.26 33.16,16.21 56.13,4.25 55.35,-28.71 112.97,-45 171.91,-53.55 16.17,-2.19 45.94,2.19 46.84,-7.74 2.22,-20.5 -20.43,-30.27 -35.86,-40.82 z m -998.2,-369.1 c 20.97,8.71 36.48,16.1 53,21.84 7.46,2.62 14.22,14.8 22.58,5.62 5.94,-6.6 -2.03,-14.57 -4.61,-22.18 -21.13,-57.23 -35.94,-118.09 -36.72,-182.15 -0.08,-55.35 -31.01,-75.59 -72.03,-89.61 -6.64,-2.03 -14.49,-9.53 -21.64,-2.23 -7.73,8.2 0.82,15.16 3.32,21.8 26.84,65.55 39.06,135.23 37.97,209.45 0.35,20.78 3.59,35.28 18.13,37.46 z m -230.51,-30.47 c 20.51,12.46 49.02,-10.43 76.01,-7.89 5.43,0.78 15.12,3.01 17.5,-5.47 2.5,-7.5 -5.58,-10.97 -10.27,-15.39 -40.66,-38.9 -70.43,-85.35 -93.52,-138.39 -5.31,-12.62 -2.61,-35.55 -18.98,-34.34 -17.58,1.25 -32.7,18.4 -44.65,34.8 -16.95,24.14 -14.88,47.86 -4.84,70.86 16.52,36.88 45.39,63.99 78.75,95.82 z m 842.34,423.09 c -18.98,-10.55 -37.73,-21.48 -56.87,-31.21 -4.38,-2.42 -14.07,-4.65 -15.12,-3.05 -5,7.7 2.03,12.78 5.43,17.31 28.94,38.55 63.9,70.97 99.49,102.46 59.61,53.16 119.53,106.48 185.47,151.87 5.59,3.64 11.41,12.93 19.53,5.43 2.42,-2.54 -0.74,-12.85 -2.89,-18.79 -12.07,-32.11 -27.97,-62.61 -53.55,-82.54 -60.4,-47.69 -115.43,-102.42 -181.49,-141.48 z m -470.27,-290 c -57.23,-36.09 -122.31,-58.95 -182.66,-89.69 -36.83,-18.59 -75.58,-23.83 -117.73,-22.11 -7.78,0.43 -20.78,2 -21.8,5.39 -4.34,12.7 8.63,12.97 15,16.64 98.87,52.78 202.46,95.36 309.53,130.12 18.87,6.41 38.28,14.53 60.74,10 -8.43,-22.42 -30.9,-27.03 -46.95,-40.27 -4.3,-3.79 -10.31,-6.76 -16.09,-10.12 z m 938.12,555.59 c 7.89,-10.82 10.86,-25.79 13.24,-41.61 2.04,-12.85 -0.27,-20.27 -14.72,-18.28 -70.08,10.39 -136.06,2.89 -198.75,-21.17 -4.34,-1.87 -10.12,-5.23 -13.95,3.67 -1.95,4.22 31.1,85.24 36.21,87.23 37.31,14.77 74.96,28.44 117.35,26.87 22.69,-1.13 44.72,-8.71 60.62,-36.71 z m -515.31,-397.15 c -9.02,13.75 -2.73,26.09 15.27,25.97 101.76,0.28 202.46,-16.21 298.28,-73.32 16.37,-9.84 46.37,-20.39 42.62,-36.6 -2.89,-13.28 -33.98,-3.44 -52.89,1.1 -95.94,25.04 -191.21,56.91 -288.51,74.21 -5.08,1.68 -11.49,1.18 -14.81,8.56 z m -60,-214.73 c -29.22,-20.47 -61.87,-34.49 -95.43,-45.9 -7.46,-2.61 -21.48,-15.86 -25.66,6.99 -3.28,16.61 -24.26,38.99 -1.45,49.77 59.69,28.05 114.92,62.34 166.33,103.71 21.68,17.38 36.52,-12.69 50.78,-25.31 15.2,-12.89 -4.26,-19.69 -10.04,-24.84 -26.01,-24.77 -52.89,-48.29 -84.53,-64.42 z m -240.98,58.67 c 5.04,5.16 9.03,4.49 13.13,1.25 7.81,-5.86 9.84,-13.2 7.81,-22.3 -6.41,-27.97 -13.32,-55.78 -19.26,-83.91 -16.4,-79.72 -26.52,-161.76 -52.61,-238.2 -2.78,-9.14 -4.81,-25.55 -13.95,-23.75 -11.09,2.34 -8.36,18.28 -9.34,27.69 -14.76,123.83 18.17,231.29 70.08,331.02 1.6,4.22 3.48,6.84 4.18,8.2 z m 45.24,267.23 c 32.93,17.89 70.23,29.02 113.83,4.96 4.49,-2.54 11.91,-5.47 9.72,-12.42 -0.66,-2.7 -6.4,-4.22 -10.54,-4.57 -65.2,-12.93 -118.21,-45.74 -158.32,-98.95 -3.17,-4.33 -7.54,-6.76 -12,-9.68 -1.75,5.7 -4.02,11.05 -4.53,16.68 0.43,48.74 23.52,79.84 61.88,103.98 z m 466.21,-747.38 c -33.91,-21.21 -71.84,-22.27 -112.07,-10.67 -6.53,2.19 -16.88,6.41 -17.03,8.99 -0.86,10.43 9.68,9.53 15.62,12.03 57.81,19.96 109.65,49.72 152.81,93.94 3.33,3.52 8.6,5.16 13.21,7.23 0.97,-5.78 3.2,-11.6 2.22,-16.84 -6.75,-39.61 -22.38,-73.59 -54.76,-94.72 z m -620.59,450.43 c 5.59,3.59 10.86,7.11 16.64,9.88 3.56,1.83 7.62,1.76 11.45,1.99 -0.86,-4.18 -0.04,-9.14 -2.03,-12.73 -35.04,-75 -69.96,-149.5 -105.71,-224.03 -2.03,-3.63 -6.4,-9.68 -8.08,-8.94 -7.58,3.79 -3.01,9.45 -2.58,14.3 6.13,49.72 15.94,98.16 35.31,142.81 13.6,30.39 24.85,61.95 55.04,76.68 z m 454.22,273.08 c -4.3,7.27 1.13,8.56 4.03,10.9 19.72,12.46 38.86,25.82 64.64,27.19 61.06,2.85 121.18,-9.96 181.14,-29.26 5.78,-2.15 16.05,-1.37 14.8,-10.43 -0.98,-8.36 -11.01,-4.49 -17.03,-3.83 -77.7,1.33 -156.09,3.09 -234.26,4.57 -4.88,-0.47 -9.37,0.28 -13.32,0.94 z" /><path
         id="path68"
         style="fill:none;stroke:#1a1a1a;stroke-width:8.50393963;stroke-linecap:butt;stroke-linejoin:miter;stroke-miterlimit:4;stroke-dasharray:none;stroke-opacity:1"
         d="m 5464.26,2570.94 c -86.68,-59.89 -166.6,-131.33 -244.34,-204.96 -11.99,-11.49 -15.9,-21.37 -26.99,6.56 -15.23,39.84 -35.31,79.76 -71.25,106.09 -12.19,8.95 -13.59,18.99 -7.89,30.94 5.86,13.01 10.16,27.19 17.11,39.06 6.44,9.69 0.82,15.2 -6.06,20.28 -8.59,5.78 -11.48,2.97 -16.4,-6.61 -30.82,-64.96 -31.99,-73.47 17.69,-133.78 20.86,-25.2 27.42,-43.79 12.27,-68.75 -3.91,-6.22 -2.97,-16.14 -6.21,-22.82 -4.3,-9.22 3.98,-33.51 -13.44,-25.7 -15.98,7.38 -41.64,5.27 -46.99,36.02 -14.18,75.31 -47.5,105.62 -117.38,102.89 -37.93,-1.02 -42.27,15.31 -40.32,45.89 1.6,26.18 8.75,50 19.69,72.27 4.34,9.22 10.2,20.35 -2.5,27.62 -12.34,7.93 -17.77,-3.87 -22.54,-12.42 -17.03,-34.89 -25.98,-71.8 -20.47,-114.38 4.38,-35.98 -46.36,-67.34 -78.04,-48.71 -36.37,21.48 -73.36,32.46 -112.23,34.06 -10.59,0.39 -25.08,3.67 -23.75,-14.18 1.44,-15.04 13.98,-14.14 24.14,-14.37 30.47,-1.56 60.59,-9.3 90.23,-24.18 16.8,-8.67 22.82,-14.81 11.49,-34.1 -40.31,-69.3 -29.57,-108.91 40.39,-166.02 19.76,-16.33 9.18,-36.05 9.37,-52.81 0.08,-17.78 -15.46,-1.92 -23.9,-2.38 -45.2,-3.95 -69.03,23.43 -89.96,66.4 -24.42,50.78 -57.31,64.03 -105.71,55.24 -8.32,-1.33 -8.75,-6.14 -7.77,-11.92 0.98,-5.78 3.98,-11.6 8.32,-15.15 2.73,-2.35 8.59,-0.28 12.7,0.07 38.16,4.38 61.09,-9.45 74.25,-55.19 10.75,-35.98 34.46,-69.85 69.96,-90.04 2.54,-1.6 4.54,-3.91 5.79,-5.82 -3.56,-1.84 -6.64,-4.42 -11.18,-5.43 -101.21,-30.94 -197.22,-72.27 -291.44,-118.75 -61.8,-30.35 -115.74,-71.48 -157.74,-127.31 -60.93,-80.97 -39.88,-150.43 59.89,-197.14 71.72,-33.6 144.37,-45.51 215.43,-26.92 13.47,3.75 22.46,6.45 32.65,-13.4 25.94,-48.82 60.67,-65.47 110,-57.46 58.44,9.89 100,44.38 129.18,95.43 3.91,6.17 7.5,17.7 12.54,17.35 10.59,-0.43 11.1,-13.32 15.74,-21.68 27.89,-45.78 14.57,-90.59 14.11,-136.18 0.07,-4.96 -7.27,-10.23 0.7,-15.07 10.98,-6.53 21.76,-7.7 33.05,-4.89 6.6,2.03 7.89,6.18 6.64,13.01 -8.09,49.57 -6.76,97.5 -7.58,146.33 -0.24,22.27 -5.67,45.19 -8.09,67.85 -0.86,6.76 -1.76,16.68 6.13,16.8 7.04,-0.39 3.75,-9.42 5.51,-15.16 25.63,-91.09 62.31,-175.9 129.61,-248.44 21.41,-23.04 28.24,-63.36 36.06,-96.64 6.25,-26.09 19.76,-51.05 19.14,-79.37 -0.59,-13.63 12.97,-8.87 20.23,-7.77 9.57,1.21 16.06,2.26 11.6,19.45 -26.99,118.08 -86.79,226.17 -130.74,339.14 -0.62,1.05 -1.17,2.42 -1.37,3.24 -5.97,20.74 -21.17,48.32 -0.54,58.13 14.1,6.48 22.34,-23.79 33.04,-37.78 44.18,-60.27 93.05,-115.62 155.32,-154.92 163.39,-103.91 310.27,-17.93 295.31,173.83 -6.41,81.76 -37.5,157.42 -79.26,231.13 -4.22,7.78 -16.84,17.81 -9.22,25.04 8.87,8.99 18.75,-3.71 25.98,-10.43 60.16,-58.01 111.76,-124.84 165.74,-189.18 31.52,-37.89 75.31,-58.63 104.81,-98.32 10.31,-13.36 16.05,4.1 20.89,10.04 4.22,4.53 10.98,11.25 -1.87,19.34 -46.72,28.86 -81.52,74.21 -124.34,109.29 -4.53,3.91 -8.63,8.99 -10.47,14.18 -29.41,95.04 -94.96,161.88 -164.53,227 -3.86,3.43 -13.2,5.58 -9.72,12.42 2.85,5.97 9.92,1.87 14.53,-1.53 58.63,-45.27 128.01,-66.21 187.58,-108.63 6.21,-4.61 9.18,-5 14.14,-0.35 6.91,7.73 10.78,17.07 11.17,27.42 0.78,11.02 -7.58,9.18 -13.6,11.68 -43.78,18.91 -90.31,31.02 -121.25,76.6 -12.69,18.21 -12.22,23.56 8.79,23.09 54.38,0.82 100.63,19.65 136.76,58.79 39.77,43.36 42.5,83.08 5.9,139.14 -12.85,19.02 -1.84,25.31 6.05,34.57 49.11,59.53 70.94,132.77 69.07,216.09 -2.15,97.78 -53.87,143.48 -143.36,129.34 -55.31,-9.18 -106.13,-31.92 -156.21,-61.92 z m -213.71,-759.03 c -32.85,-19.18 -68.79,-36.71 -106.45,-50.35 -58.59,-21.83 -67.03,-16.83 -86.05,50.71 -3.95,15.23 -1.37,21.01 12.5,24.14 85.23,20.07 154.76,65.97 214.33,127.77 21.92,22.54 37.19,22.89 57.54,-5.82 4.53,-5.7 10.2,-10.7 15.04,-15.74 18.91,-17.39 17.03,-30.94 0.78,-45.67 -33.12,-30.35 -68.36,-59.33 -107.69,-85.04 z m 73.2,-161.44 c -23.55,-12.7 -46.84,-26.45 -70.98,-38.2 -49.25,-23.99 -64.8,-17.23 -99.1,35.31 -9.02,13.75 -10.19,19.84 6.06,23.63 29.84,6.68 58.24,17.5 85.23,31.02 58.71,30.15 112.23,68.32 159.65,113.94 6.41,6.06 11.91,21.99 26.21,9.85 20.43,-17.27 24.84,-64.22 7.97,-81.64 -34.41,-37.58 -73.05,-67.39 -115.04,-93.95 z m -757.42,219.26 c 7.3,3.39 21.83,16.52 27.34,12.38 12.97,-8.87 5.28,-25.78 4.92,-39.26 -0.97,-43.63 -9.06,-85.47 -21.48,-125.58 -27.42,-87.86 -45.51,-95.55 -135.51,-66.18 -22.54,7.66 -23.71,15.55 -17.5,34.69 28.75,77.31 76.02,136.56 142.23,183.95 z m 923.16,570.5 c 45.55,24.77 98.36,41.45 156.02,43.95 29.65,1.56 70.94,12.11 86.95,-11.25 17.11,-24.96 -5.27,-61.48 -15,-91.64 -4.26,-14.18 -9.76,-26.49 -28.32,-26.72 -74.14,-0.47 -146.17,17.81 -217.15,50.94 -18.87,8.67 -14.92,14.92 -1.76,22.15 5.59,3.63 10.9,7.14 19.26,12.61 z m -697.61,-851.32 c -30.86,-14.26 -61.72,-28.01 -98.33,-8.52 -33.32,17.54 -38.63,48.79 -13.78,70.51 25.78,23.28 45.31,52.5 60.27,85.12 26.72,57.22 53.01,115.07 80.27,172.69 2.54,5.27 2.74,14.1 12.23,13.01 -1.37,-5.9 -2.31,-11.1 -4.06,-16.37 -24.38,-84.02 -37.15,-170.51 -15.04,-263.47 6.68,-28.56 -1.84,-42.35 -21.56,-52.97 z m 847.22,524.1 c -26.09,-16.68 -30.47,-18.6 -45.66,-5.67 -74.49,62.86 -158.32,93.09 -245.98,110.28 -5.66,1.33 -16.17,-1.45 -15.74,7.07 0.27,7.54 11.44,3.83 17.5,3.71 59.22,-1.1 118.83,-2.81 177.97,-4.34 34.88,-0.97 68.79,3.79 101.01,14.81 12.19,3.86 22.39,20.58 38.99,3.08 16.99,-18.12 26.83,-38.63 20.97,-62.57 -8.04,-32.23 -29.72,-51.45 -49.02,-66.37 z m 3.48,167.22 c -22.85,-18.08 -47.46,-20.03 -78.01,-6.17 -47.42,22.03 -96.56,35.12 -145.82,44.1 -22.3,3.68 -44.26,8.05 -65.74,12.31 12.97,20.35 34.22,31.05 50.51,47.62 16.56,17.26 33.16,16.21 56.13,4.25 55.35,-28.71 112.97,-45 171.91,-53.55 16.17,-2.19 45.94,2.19 46.84,-7.74 2.22,-20.5 -20.43,-30.27 -35.86,-40.82 z m -998.2,-369.1 c 20.97,8.71 36.48,16.1 53,21.84 7.46,2.62 14.22,14.8 22.58,5.62 5.94,-6.6 -2.03,-14.57 -4.61,-22.18 -21.13,-57.23 -35.94,-118.09 -36.72,-182.15 -0.08,-55.35 -31.01,-75.59 -72.03,-89.61 -6.64,-2.03 -14.49,-9.53 -21.64,-2.23 -7.73,8.2 0.82,15.16 3.32,21.8 26.84,65.55 39.06,135.23 37.97,209.45 0.35,20.78 3.59,35.28 18.13,37.46 z m -230.51,-30.47 c 20.51,12.46 49.02,-10.43 76.01,-7.89 5.43,0.78 15.12,3.01 17.5,-5.47 2.5,-7.5 -5.58,-10.97 -10.27,-15.39 -40.66,-38.9 -70.43,-85.35 -93.52,-138.39 -5.31,-12.62 -2.61,-35.55 -18.98,-34.34 -17.58,1.25 -32.7,18.4 -44.65,34.8 -16.95,24.14 -14.88,47.86 -4.84,70.86 16.52,36.88 45.39,63.99 78.75,95.82 z m 842.34,423.09 c -18.98,-10.55 -37.73,-21.48 -56.87,-31.21 -4.38,-2.42 -14.07,-4.65 -15.12,-3.05 -5,7.7 2.03,12.78 5.43,17.31 28.94,38.55 63.9,70.97 99.49,102.46 59.61,53.16 119.53,106.48 185.47,151.87 5.59,3.64 11.41,12.93 19.53,5.43 2.42,-2.54 -0.74,-12.85 -2.89,-18.79 -12.07,-32.11 -27.97,-62.61 -53.55,-82.54 -60.4,-47.69 -115.43,-102.42 -181.49,-141.48 z m -470.27,-290 c -57.23,-36.09 -122.31,-58.95 -182.66,-89.69 -36.83,-18.59 -75.58,-23.83 -117.73,-22.11 -7.78,0.43 -20.78,2 -21.8,5.39 -4.34,12.7 8.63,12.97 15,16.64 98.87,52.78 202.46,95.36 309.53,130.12 18.87,6.41 38.28,14.53 60.74,10 -8.43,-22.42 -30.9,-27.03 -46.95,-40.27 -4.3,-3.79 -10.31,-6.76 -16.09,-10.12 z m 938.12,555.59 c 7.89,-10.82 10.86,-25.79 13.24,-41.61 2.04,-12.85 -0.27,-20.27 -14.72,-18.28 -70.08,10.39 -136.06,2.89 -198.75,-21.17 -4.34,-1.87 -10.12,-5.23 -13.95,3.67 -1.95,4.22 31.1,85.24 36.21,87.23 37.31,14.77 74.96,28.44 117.35,26.87 22.69,-1.13 44.72,-8.71 60.62,-36.71 z m -515.31,-397.15 c -9.02,13.75 -2.73,26.09 15.27,25.97 101.76,0.28 202.46,-16.21 298.28,-73.32 16.37,-9.84 46.37,-20.39 42.62,-36.6 -2.89,-13.28 -33.98,-3.44 -52.89,1.1 -95.94,25.04 -191.21,56.91 -288.51,74.21 -5.08,1.68 -11.49,1.18 -14.81,8.56 z m -60,-214.73 c -29.22,-20.47 -61.87,-34.49 -95.43,-45.9 -7.46,-2.61 -21.48,-15.86 -25.66,6.99 -3.28,16.61 -24.26,38.99 -1.45,49.77 59.69,28.05 114.92,62.34 166.33,103.71 21.68,17.38 36.52,-12.69 50.78,-25.31 15.2,-12.89 -4.26,-19.69 -10.04,-24.84 -26.01,-24.77 -52.89,-48.29 -84.53,-64.42 z m -240.98,58.67 c 5.04,5.16 9.03,4.49 13.13,1.25 7.81,-5.86 9.84,-13.2 7.81,-22.3 -6.41,-27.97 -13.32,-55.78 -19.26,-83.91 -16.4,-79.72 -26.52,-161.76 -52.61,-238.2 -2.78,-9.14 -4.81,-25.55 -13.95,-23.75 -11.09,2.34 -8.36,18.28 -9.34,27.69 -14.76,123.83 18.17,231.29 70.08,331.02 1.6,4.22 3.48,6.84 4.18,8.2 z m 45.24,267.23 c 32.93,17.89 70.23,29.02 113.83,4.96 4.49,-2.54 11.91,-5.47 9.72,-12.42 -0.66,-2.7 -6.4,-4.22 -10.54,-4.57 -65.2,-12.93 -118.21,-45.74 -158.32,-98.95 -3.17,-4.33 -7.54,-6.76 -12,-9.68 -1.75,5.7 -4.02,11.05 -4.53,16.68 0.43,48.74 23.52,79.84 61.88,103.98 z m 466.21,-747.38 c -33.91,-21.21 -71.84,-22.27 -112.07,-10.67 -6.53,2.19 -16.88,6.41 -17.03,8.99 -0.86,10.43 9.68,9.53 15.62,12.03 57.81,19.96 109.65,49.72 152.81,93.94 3.33,3.52 8.6,5.16 13.21,7.23 0.97,-5.78 3.2,-11.6 2.22,-16.84 -6.75,-39.61 -22.38,-73.59 -54.76,-94.72 z m -620.59,450.43 c 5.59,3.59 10.86,7.11 16.64,9.88 3.56,1.83 7.62,1.76 11.45,1.99 -0.86,-4.18 -0.04,-9.14 -2.03,-12.73 -35.04,-75 -69.96,-149.5 -105.71,-224.03 -2.03,-3.63 -6.4,-9.68 -8.08,-8.94 -7.58,3.79 -3.01,9.45 -2.58,14.3 6.13,49.72 15.94,98.16 35.31,142.81 13.6,30.39 24.85,61.95 55.04,76.68 z m 454.22,273.08 c -4.3,7.27 1.13,8.56 4.03,10.9 19.72,12.46 38.86,25.82 64.64,27.19 61.06,2.85 121.18,-9.96 181.14,-29.26 5.78,-2.15 16.05,-1.37 14.8,-10.43 -0.98,-8.36 -11.01,-4.49 -17.03,-3.83 -77.7,1.33 -156.09,3.09 -234.26,4.57 -4.88,-0.47 -9.37,0.28 -13.32,0.94 z" /><path
         id="path70"
         style="fill:#000000;fill-opacity:1;fill-rule:nonzero;stroke:none"
         d="m 3193.55,1853.48 -47.26,47.73 -1.72,-143.75 -144.3,1.33 47.7,-48.87 144.22,-1.37 z" /><g
         transform="scale(10)"
         id="g72"><text
           id="text76"
           style="font-variant:normal;font-weight:normal;font-size:27px;font-family:FreeSerifBold;-inkscape-font-specification:FreeSerifBold;writing-mode:lr-tb;fill:#1a1a1a;fill-opacity:1;fill-rule:nonzero;stroke:none"
           transform="matrix(1,0,0,-1,276.979,379.343)"><tspan
             id="tspan74"
             y="0"
             x="0 18.117001 30.591 43.84803 51.05703 66.285027 75.330032 82.862892 96.119919 111.07792 117.82792 131.08476 141.69576 148.44576 157.49075 172.17888 184.16689 190.91689 201.33904 216.16208 229.39215 244.10716 256.09515 262.84515 276.10233 286.71332 293.46332 302.50833 317.19647 329.18445 335.93445 350.64944 362.63745 374.35547 385.31747 392.82346 399.57346 417.98746 431.21753 444.71753 457.9476 465.15662 477.14462 483.89462 498.79861 512.29865 526.98669 538.46167 550.44971">Evolution of the shape of the bees' waggle dance </tspan></text>
</g><path
         id="path78"
         style="fill:none;stroke:#ff7315;stroke-width:34.01580048;stroke-linecap:butt;stroke-linejoin:miter;stroke-miterlimit:4;stroke-dasharray:none;stroke-opacity:1"
         d="m 8679.88,1870.78 -23.04,1454.3" /><path
         id="path80"
         style="fill:#ff7315;fill-opacity:1;fill-rule:evenodd;stroke:none"
         d="m 8562.38,3275.94 91.1,263.4 99.37,-260.39 c -56.25,46.75 -135.51,45.5 -190.47,-3.01 z" /><path
         id="path82"
         style="fill:none;stroke:#1a1a1a;stroke-width:34.01580048;stroke-linecap:butt;stroke-linejoin:miter;stroke-miterlimit:4;stroke-dasharray:none;stroke-opacity:1"
         d="m 8674.22,1874.57 c 219.1,16.17 174.88,32.34 -1.41,47.85 -210.54,16.45 -180.62,32.7 -0.04,48.87 194.57,14.84 201.57,31.13 0,48.98 -211.83,18.01 -178.94,34.03 0,48.87 193.4,14.92 201.96,31.29 0,49.3 -212.93,15.97 -181.09,32.42 -0.04,49.18 233.32,18.24 159.54,33.86 0,48.83 -185.5,13.55 -206.79,29.64 0,49.21 188.95,18.48 205.47,35.04 -0.03,49.22 -225.2,16.45 -168.25,32.58 0.07,48.44 218.68,16.09 174.42,32.23 -1.83,47.73 -210.55,16.45 -180.67,32.74 -0.04,48.91 194.57,14.81 201.56,31.09 0,48.99 -211.84,17.96 -178.95,33.98 0,48.82 193.4,14.93 201.95,31.33 -0.04,49.34 -212.89,15.94 -181.06,32.42 0,49.14 233.32,18.24 159.53,33.91 0,48.83 -185.51,13.55 -206.8,29.65 -0.04,49.22 188.98,18.47 205.51,35.08 0,49.22 -225.2,16.44 -168.24,32.61 0.47,48.51" /><path
         id="path84"
         style="fill:none;stroke:#1a1a1a;stroke-width:34.01580048;stroke-linecap:butt;stroke-linejoin:miter;stroke-miterlimit:4;stroke-dasharray:136.063, 68.0315;stroke-dashoffset:0;stroke-opacity:1"
         d="m 6896.99,2362.46 c -0.15,1420.55 1770.94,1229.92 1772.54,472.62 1.6,753.12 1774.87,943.75 1774.77,-476.8 -0.2,-1235.08 -1770,-1271.68 -1769.07,-466.72 0.94,-800.74 -1778.08,-764.14 -1778.24,470.9 z" /><path
         id="path86"
         style="fill:#008000;fill-opacity:1;fill-rule:nonzero;stroke:none"
         d="m 8760.43,1874.88 c 0,-44.92 -36.41,-81.33 -81.33,-81.33 -44.92,0 -81.33,36.41 -81.33,81.33 0,44.92 36.41,81.37 81.33,81.37 44.92,0 81.33,-36.45 81.33,-81.37 z" /><path
         id="path88"
         style="fill:#ffffff;fill-opacity:1;fill-rule:nonzero;stroke:none"
         d="m 9998.95,2887.89 c 159.75,-217.85 362.15,-341.44 452.05,-276.05 89.9,65.39 33.3,295 -126.5,512.85 -159.7,217.81 -362.12,341.4 -452.04,276.01 -89.88,-65.39 -33.28,-295 126.49,-512.81 z" /><path
         id="path90"
         style="fill:#808080;fill-opacity:1;fill-rule:nonzero;stroke:none"
         d="m 9882.42,2341.41 c 86.68,59.84 166.68,131.29 244.38,204.96 12,11.48 15.9,21.33 27,-6.6 15.2,-39.85 35.3,-79.73 71.2,-106.06 12.2,-8.94 13.6,-19.02 7.9,-30.98 -5.9,-12.96 -10.1,-27.18 -17.1,-39.06 -6.4,-9.65 -0.8,-15.15 6,-20.23 8.6,-5.82 11.6,-3.01 16.4,6.56 30.9,64.96 32,73.52 -17.6,133.79 -20.9,25.23 -27.5,43.79 -12.3,68.79 3.9,6.17 3,16.09 6.2,22.77 4.3,9.22 -4,33.52 13.4,25.7 16,-7.38 41.7,-5.23 47.1,-35.97 14.1,-75.31 47.4,-105.63 117.3,-102.93 37.9,1.05 42.3,-15.31 40.3,-45.86 -1.6,-26.21 -8.7,-50.04 -19.7,-72.27 -4.3,-9.25 -10.2,-20.39 2.5,-27.61 12.4,-7.93 17.8,3.82 22.6,12.42 17,34.88 25.9,71.79 20.4,114.37 -4.3,35.98 46.4,67.35 78.1,48.71 36.4,-21.48 73.3,-32.5 112.2,-34.06 10.6,-0.43 25.1,-3.71 23.8,14.18 -1.5,15.04 -14,14.14 -24.1,14.38 -30.5,1.52 -60.7,9.25 -90.3,24.18 -16.8,8.63 -22.8,14.8 -11.5,34.06 40.3,69.33 29.6,108.9 -40.3,166.05 -19.9,16.29 -9.3,36.02 -9.5,52.82 0,17.77 15.5,1.87 23.9,2.38 45.2,3.94 69.1,-23.44 90,-66.45 24.4,-50.78 57.3,-63.98 105.7,-55.19 8.3,1.29 8.8,6.13 7.8,11.91 -1,5.74 -4,11.56 -8.3,15.12 -2.8,2.38 -8.6,0.31 -12.7,-0.04 -38.2,-4.37 -61.1,9.41 -74.3,55.2 -10.7,35.93 -34.5,69.8 -70,90.03 -2.5,1.57 -4.5,3.87 -5.7,5.79 3.5,1.83 6.6,4.41 11.1,5.43 101.3,30.97 197.3,72.26 291.5,118.78 61.8,30.32 115.7,71.49 157.7,127.31 60.9,80.98 39.9,150.39 -59.9,197.15 -71.7,33.55 -144.3,45.51 -215.4,26.91 -13.5,-3.79 -22.5,-6.48 -32.6,13.36 -26,48.87 -60.7,65.47 -110,57.46 -58.5,-9.88 -100,-44.33 -129.2,-95.39 -3.9,-6.21 -7.5,-17.73 -12.6,-17.34 -10.6,0.43 -11.1,13.32 -15.7,21.68 -27.9,45.74 -14.6,90.58 -14.1,136.13 -0.1,5 7.3,10.23 -0.7,15.08 -11,6.56 -21.8,7.69 -33.1,4.92 -6.6,-2.07 -7.9,-6.21 -6.6,-13.01 8.1,-49.57 6.8,-97.5 7.6,-146.33 0.2,-22.26 5.6,-45.23 8.1,-67.85 0.8,-6.76 1.7,-16.68 -6.2,-16.79 -7,0.39 -3.7,9.37 -5.5,15.11 -25.6,91.1 -62.3,175.9 -129.6,248.48 -21.4,23.01 -28.2,63.36 -36,96.64 -6.3,26.05 -19.8,51.05 -19.2,79.34 0.6,13.67 -13,8.86 -20.2,7.81 -9.6,-1.25 -16.1,-2.27 -11.6,-19.45 27,-118.13 86.8,-226.18 130.7,-339.18 0.6,-1.06 1.2,-2.43 1.4,-3.21 6,-20.78 21.2,-48.32 0.5,-58.16 -14.1,-6.49 -22.3,23.79 -33,37.81 -44.2,60.27 -93.1,115.63 -155.3,154.88 -163.42,103.91 -310.3,17.97 -295.34,-173.82 6.41,-81.72 37.5,-157.39 79.26,-231.1 4.22,-7.77 16.83,-17.81 9.22,-25.08 -8.87,-8.98 -18.75,3.75 -25.94,10.43 -60.2,58.01 -111.8,124.85 -165.78,189.22 -31.49,37.89 -75.31,58.63 -104.81,98.28 -10.31,13.4 -16.01,-4.06 -20.89,-10 -4.18,-4.57 -10.98,-11.25 1.87,-19.33 46.72,-28.87 81.52,-74.22 124.34,-109.34 4.53,-3.87 8.63,-8.94 10.47,-14.18 29.41,-95.04 94.96,-161.87 164.57,-226.99 3.82,-3.4 13.16,-5.59 9.68,-12.38 -2.85,-5.98 -9.92,-1.88 -14.49,1.48 -58.67,45.31 -128.05,66.21 -187.62,108.63 -6.21,4.65 -9.18,5 -14.14,0.36 -6.91,-7.7 -10.74,-17.07 -11.17,-27.39 -0.78,-11.01 7.62,-9.22 13.59,-11.72 43.79,-18.86 90.32,-30.97 121.29,-76.56 12.66,-18.2 12.19,-23.55 -8.82,-23.12 -54.38,-0.82 -100.63,-19.61 -136.76,-58.79 -39.77,-43.32 -42.46,-83.05 -5.86,-139.1 12.81,-19.07 1.8,-25.36 -6.09,-34.61 -49.11,-59.53 -70.94,-132.74 -69.07,-216.1 2.15,-97.77 53.87,-143.47 143.36,-129.29 55.31,9.18 106.17,31.91 156.25,61.87 z m 213.68,758.98 c 32.9,19.18 68.8,36.72 106.5,50.39 58.6,21.84 67,16.84 86,-50.7 4,-15.24 1.4,-21.06 -12.5,-24.18 -85.2,-20.04 -154.7,-65.98 -214.3,-127.74 -21.9,-22.54 -37.2,-22.89 -57.5,5.82 -4.57,5.71 -10.2,10.71 -15.08,15.75 -18.91,17.34 -17.03,30.93 -0.78,45.66 33.16,30.31 68.36,59.3 107.66,85 z m -73.2,161.49 c 23.6,12.69 46.9,26.44 71,38.2 49.3,23.94 64.8,17.19 99.2,-35.31 9,-13.79 10.1,-19.89 -6.2,-23.64 -29.8,-6.72 -58.2,-17.5 -85.2,-31.05 -58.7,-30.16 -112.21,-68.32 -159.63,-113.95 -6.41,-6.01 -11.91,-21.95 -26.21,-9.8 -20.43,17.26 -24.84,64.18 -7.93,81.64 34.37,37.54 73.01,67.38 114.97,93.91 z m 757.5,-219.26 c -7.3,-3.44 -21.9,-16.57 -27.3,-12.39 -13.1,8.87 -5.4,25.79 -5,39.26 1,43.6 9,85.47 21.5,125.59 27.4,87.85 45.5,95.54 135.5,66.17 22.5,-7.7 23.7,-15.59 17.5,-34.73 -28.7,-77.3 -76,-136.52 -142.2,-183.9 z m -923.21,-570.55 c -45.55,-24.73 -98.32,-41.45 -156.02,-43.95 -29.65,-1.56 -70.94,-12.07 -86.95,11.26 -17.07,24.96 5.27,61.48 15,91.64 4.26,14.21 9.76,26.48 28.32,26.71 74.14,0.47 146.17,-17.77 217.15,-50.89 18.86,-8.72 14.92,-14.93 1.76,-22.19 -5.59,-3.63 -10.86,-7.11 -19.26,-12.58 z m 697.61,851.33 c 30.9,14.26 61.7,28.01 98.3,8.51 33.4,-17.5 38.7,-48.79 13.8,-70.5 -25.8,-23.25 -45.3,-52.46 -60.2,-85.08 -26.7,-57.23 -53.1,-115.12 -80.3,-172.7 -2.5,-5.31 -2.8,-14.14 -12.2,-13.01 1.3,5.9 2.2,11.1 4,16.33 24.4,84.03 37.2,170.55 15,263.52 -6.6,28.51 1.9,42.3 21.6,52.93 z m -847.22,-524.06 c 26.13,16.68 30.47,18.55 45.66,5.62 74.49,-62.85 158.32,-93.05 245.98,-110.23 5.68,-1.33 16.18,1.4 15.78,-7.11 -0.3,-7.5 -11.5,-3.83 -17.54,-3.67 -59.22,1.09 -118.83,2.81 -177.97,4.33 -34.88,0.94 -68.79,-3.83 -101.01,-14.84 -12.19,-3.87 -22.39,-20.55 -38.99,-3.09 -16.99,18.13 -26.83,38.67 -20.97,62.62 8.04,32.23 29.72,51.41 49.06,66.33 z m -3.44,-167.27 c 22.81,18.13 47.42,20.04 77.97,6.17 47.42,-21.99 96.6,-35.12 145.82,-44.06 22.3,-3.71 44.26,-8.09 65.74,-12.3 -12.97,-20.4 -34.22,-31.1 -50.47,-47.66 -16.6,-17.27 -33.2,-16.21 -56.17,-4.26 -55.35,28.71 -112.97,45 -171.87,53.56 -16.21,2.22 -45.98,-2.15 -46.88,7.77 -2.23,20.47 20.43,30.27 35.86,40.78 z m 998.16,369.1 c -21,-8.67 -36.4,-16.05 -53,-21.83 -7.4,-2.58 -14.2,-14.81 -22.6,-5.63 -5.9,6.64 2.1,14.57 4.6,22.23 21.2,57.22 36,118.08 36.8,182.11 0,55.35 31,75.62 72,89.61 6.6,2.07 14.5,9.53 21.6,2.26 7.7,-8.2 -0.8,-15.19 -3.3,-21.8 -26.8,-65.54 -39.1,-135.23 -37.9,-209.49 -0.4,-20.78 -3.7,-35.27 -18.2,-37.42 z m 230.5,30.47 c -20.5,-12.46 -49,10.47 -76,7.93 -5.4,-0.82 -15.1,-3.05 -17.5,5.47 -2.5,7.5 5.6,10.94 10.3,15.39 40.6,38.91 70.4,85.35 93.5,138.36 5.3,12.62 2.6,35.59 19,34.33 17.5,-1.24 32.7,-18.35 44.6,-34.8 17,-24.1 14.9,-47.81 4.9,-70.86 -16.6,-36.84 -45.4,-63.94 -78.8,-95.82 z m -842.3,-423.05 c 18.9,10.55 37.7,21.45 56.8,31.21 4.4,2.43 14.1,4.61 15.2,3.01 5,-7.69 -2.1,-12.73 -5.5,-17.26 -28.9,-38.6 -63.9,-71.02 -99.4,-102.5 -59.67,-53.13 -119.59,-106.49 -185.49,-151.84 -5.59,-3.63 -11.45,-12.97 -19.53,-5.47 -2.46,2.54 0.7,12.85 2.85,18.79 12.07,32.11 27.97,62.62 53.55,82.54 60.43,47.73 115.42,102.42 181.52,141.48 z m 470.2,290 c 57.3,36.06 122.4,58.91 182.7,89.69 36.8,18.6 75.6,23.83 117.7,22.11 7.8,-0.43 20.8,-1.99 21.8,-5.39 4.4,-12.73 -8.6,-13.01 -14.9,-16.68 -98.9,-52.77 -202.5,-95.31 -309.6,-130.12 -18.9,-6.4 -38.3,-14.49 -60.7,-10 8.4,22.46 30.9,27.07 46.9,40.32 4.3,3.78 10.4,6.71 16.1,10.07 z m -938.08,-555.62 c -7.89,10.86 -10.86,25.82 -13.24,41.6 -2.04,12.85 0.27,20.31 14.72,18.32 70.08,-10.39 136.06,-2.93 198.75,21.13 4.38,1.92 10.16,5.24 13.99,-3.67 1.91,-4.18 -31.14,-85.23 -36.22,-87.19 -37.34,-14.8 -75,-28.43 -117.38,-26.91 -22.69,1.13 -44.72,8.71 -60.62,36.72 z m 515.28,397.15 c 9,-13.75 2.8,-26.1 -15.2,-25.98 -101.8,-0.23 -202.5,16.21 -298.32,73.32 -16.37,9.88 -46.37,20.39 -42.58,36.6 2.85,13.28 33.94,3.48 52.85,-1.05 95.97,-25.04 191.25,-56.92 288.55,-74.22 5,-1.68 11.5,-1.17 14.8,-8.59 z m 60,214.76 c 29.3,20.47 61.9,34.5 95.5,45.9 7.4,2.58 21.4,15.86 25.6,-6.99 3.3,-16.6 24.3,-38.99 1.5,-49.77 -59.7,-28.08 -114.9,-62.34 -166.4,-103.75 -21.6,-17.38 -36.5,12.7 -50.7,25.32 -15.2,12.93 4.2,19.72 10,24.88 26,24.76 52.9,48.24 84.6,64.37 z m 241,-58.71 c -5,-5.12 -9,-4.49 -13.1,-1.25 -7.8,5.86 -9.9,13.24 -7.8,22.35 6.4,27.93 13.3,55.78 19.2,83.86 16.4,79.73 26.6,161.76 52.6,238.25 2.9,9.14 4.8,25.54 14,23.74 11.1,-2.38 8.3,-18.32 9.3,-27.73 14.8,-123.79 -18.1,-231.25 -70,-330.98 -1.7,-4.25 -3.5,-6.87 -4.2,-8.24 z m -45.2,-267.22 c -33,-17.86 -70.3,-28.99 -113.9,-4.93 -4.4,2.5 -11.9,5.47 -9.6,12.39 0.6,2.69 6.4,4.21 10.5,4.61 65.2,12.93 118.2,45.74 158.3,98.9 3.1,4.34 7.5,6.76 12,9.73 1.7,-5.74 4,-11.1 4.5,-16.72 -0.4,-48.71 -23.5,-79.81 -61.9,-103.98 z m -466.24,747.42 c 33.95,21.21 71.84,22.26 112.04,10.62 6.6,-2.19 16.9,-6.37 17.1,-8.98 0.8,-10.43 -9.7,-9.53 -15.7,-12.03 -57.78,-19.96 -109.61,-49.73 -152.78,-93.95 -3.28,-3.51 -8.59,-5.12 -13.2,-7.19 -0.97,5.75 -3.2,11.61 -2.22,16.8 6.75,39.61 22.42,73.59 54.76,94.77 z m 620.64,-450.43 c -5.6,-3.64 -10.9,-7.15 -16.7,-9.89 -3.5,-1.83 -7.6,-1.75 -11.4,-1.99 0.8,4.18 0,9.14 2,12.74 35,75 70,149.49 105.7,224.02 2,3.59 6.4,9.69 8.1,8.95 7.6,-3.83 3,-9.46 2.6,-14.34 -6.2,-49.69 -15.9,-98.13 -35.3,-142.81 -13.7,-30.39 -24.9,-61.96 -55.1,-76.64 z m -454.2,-273.13 c 4.3,-7.22 -1.2,-8.55 -4.1,-10.86 -19.7,-12.5 -38.9,-25.82 -64.6,-27.18 -61.1,-2.86 -121.22,9.92 -181.18,29.25 -5.78,2.15 -16.05,1.37 -14.76,10.43 0.94,8.36 11.01,4.46 16.99,3.79 77.7,-1.29 156.05,-3.08 234.25,-4.53 4.9,0.47 9.4,-0.27 13.3,-0.94 z" /><path
         id="path92"
         style="fill:none;stroke:#1a1a1a;stroke-width:8.50393963;stroke-linecap:butt;stroke-linejoin:miter;stroke-miterlimit:4;stroke-dasharray:none;stroke-opacity:1"
         d="m 9882.42,2341.41 c 86.68,59.84 166.68,131.29 244.38,204.96 12,11.48 15.9,21.33 27,-6.6 15.2,-39.85 35.3,-79.73 71.2,-106.06 12.2,-8.94 13.6,-19.02 7.9,-30.98 -5.9,-12.96 -10.1,-27.18 -17.1,-39.06 -6.4,-9.65 -0.8,-15.15 6,-20.23 8.6,-5.82 11.6,-3.01 16.4,6.56 30.9,64.96 32,73.52 -17.6,133.79 -20.9,25.23 -27.5,43.79 -12.3,68.79 3.9,6.17 3,16.09 6.2,22.77 4.3,9.22 -4,33.52 13.4,25.7 16,-7.38 41.7,-5.23 47.1,-35.97 14.1,-75.31 47.4,-105.63 117.3,-102.93 37.9,1.05 42.3,-15.31 40.3,-45.86 -1.6,-26.21 -8.7,-50.04 -19.7,-72.27 -4.3,-9.25 -10.2,-20.39 2.5,-27.61 12.4,-7.93 17.8,3.82 22.6,12.42 17,34.88 25.9,71.79 20.4,114.37 -4.3,35.98 46.4,67.35 78.1,48.71 36.4,-21.48 73.3,-32.5 112.2,-34.06 10.6,-0.43 25.1,-3.71 23.8,14.18 -1.5,15.04 -14,14.14 -24.1,14.38 -30.5,1.52 -60.7,9.25 -90.3,24.18 -16.8,8.63 -22.8,14.8 -11.5,34.06 40.3,69.33 29.6,108.9 -40.3,166.05 -19.9,16.29 -9.3,36.02 -9.5,52.82 0,17.77 15.5,1.87 23.9,2.38 45.2,3.94 69.1,-23.44 90,-66.45 24.4,-50.78 57.3,-63.98 105.7,-55.19 8.3,1.29 8.8,6.13 7.8,11.91 -1,5.74 -4,11.56 -8.3,15.12 -2.8,2.38 -8.6,0.31 -12.7,-0.04 -38.2,-4.37 -61.1,9.41 -74.3,55.2 -10.7,35.93 -34.5,69.8 -70,90.03 -2.5,1.57 -4.5,3.87 -5.7,5.79 3.5,1.83 6.6,4.41 11.1,5.43 101.3,30.97 197.3,72.26 291.5,118.78 61.8,30.32 115.7,71.49 157.7,127.31 60.9,80.98 39.9,150.39 -59.9,197.15 -71.7,33.55 -144.3,45.51 -215.4,26.91 -13.5,-3.79 -22.5,-6.48 -32.6,13.36 -26,48.87 -60.7,65.47 -110,57.46 -58.5,-9.88 -100,-44.33 -129.2,-95.39 -3.9,-6.21 -7.5,-17.73 -12.6,-17.34 -10.6,0.43 -11.1,13.32 -15.7,21.68 -27.9,45.74 -14.6,90.58 -14.1,136.13 -0.1,5 7.3,10.23 -0.7,15.08 -11,6.56 -21.8,7.69 -33.1,4.92 -6.6,-2.07 -7.9,-6.21 -6.6,-13.01 8.1,-49.57 6.8,-97.5 7.6,-146.33 0.2,-22.26 5.6,-45.23 8.1,-67.85 0.8,-6.76 1.7,-16.68 -6.2,-16.79 -7,0.39 -3.7,9.37 -5.5,15.11 -25.6,91.1 -62.3,175.9 -129.6,248.48 -21.4,23.01 -28.2,63.36 -36,96.64 -6.3,26.05 -19.8,51.05 -19.2,79.34 0.6,13.67 -13,8.86 -20.2,7.81 -9.6,-1.25 -16.1,-2.27 -11.6,-19.45 27,-118.13 86.8,-226.18 130.7,-339.18 0.6,-1.06 1.2,-2.43 1.4,-3.21 6,-20.78 21.2,-48.32 0.5,-58.16 -14.1,-6.49 -22.3,23.79 -33,37.81 -44.2,60.27 -93.1,115.63 -155.3,154.88 -163.42,103.91 -310.3,17.97 -295.34,-173.82 6.41,-81.72 37.5,-157.39 79.26,-231.1 4.22,-7.77 16.83,-17.81 9.22,-25.08 -8.87,-8.98 -18.75,3.75 -25.94,10.43 -60.2,58.01 -111.8,124.85 -165.78,189.22 -31.49,37.89 -75.31,58.63 -104.81,98.28 -10.31,13.4 -16.01,-4.06 -20.89,-10 -4.18,-4.57 -10.98,-11.25 1.87,-19.33 46.72,-28.87 81.52,-74.22 124.34,-109.34 4.53,-3.87 8.63,-8.94 10.47,-14.18 29.41,-95.04 94.96,-161.87 164.57,-226.99 3.82,-3.4 13.16,-5.59 9.68,-12.38 -2.85,-5.98 -9.92,-1.88 -14.49,1.48 -58.67,45.31 -128.05,66.21 -187.62,108.63 -6.21,4.65 -9.18,5 -14.14,0.36 -6.91,-7.7 -10.74,-17.07 -11.17,-27.39 -0.78,-11.01 7.62,-9.22 13.59,-11.72 43.79,-18.86 90.32,-30.97 121.29,-76.56 12.66,-18.2 12.19,-23.55 -8.82,-23.12 -54.38,-0.82 -100.63,-19.61 -136.76,-58.79 -39.77,-43.32 -42.46,-83.05 -5.86,-139.1 12.81,-19.07 1.8,-25.36 -6.09,-34.61 -49.11,-59.53 -70.94,-132.74 -69.07,-216.1 2.15,-97.77 53.87,-143.47 143.36,-129.29 55.31,9.18 106.17,31.91 156.25,61.87 z m 213.68,758.98 c 32.9,19.18 68.8,36.72 106.5,50.39 58.6,21.84 67,16.84 86,-50.7 4,-15.24 1.4,-21.06 -12.5,-24.18 -85.2,-20.04 -154.7,-65.98 -214.3,-127.74 -21.9,-22.54 -37.2,-22.89 -57.5,5.82 -4.57,5.71 -10.2,10.71 -15.08,15.75 -18.91,17.34 -17.03,30.93 -0.78,45.66 33.16,30.31 68.36,59.3 107.66,85 z m -73.2,161.49 c 23.6,12.69 46.9,26.44 71,38.2 49.3,23.94 64.8,17.19 99.2,-35.31 9,-13.79 10.1,-19.89 -6.2,-23.64 -29.8,-6.72 -58.2,-17.5 -85.2,-31.05 -58.7,-30.16 -112.21,-68.32 -159.63,-113.95 -6.41,-6.01 -11.91,-21.95 -26.21,-9.8 -20.43,17.26 -24.84,64.18 -7.93,81.64 34.37,37.54 73.01,67.38 114.97,93.91 z m 757.5,-219.26 c -7.3,-3.44 -21.9,-16.57 -27.3,-12.39 -13.1,8.87 -5.4,25.79 -5,39.26 1,43.6 9,85.47 21.5,125.59 27.4,87.85 45.5,95.54 135.5,66.17 22.5,-7.7 23.7,-15.59 17.5,-34.73 -28.7,-77.3 -76,-136.52 -142.2,-183.9 z m -923.21,-570.55 c -45.55,-24.73 -98.32,-41.45 -156.02,-43.95 -29.65,-1.56 -70.94,-12.07 -86.95,11.26 -17.07,24.96 5.27,61.48 15,91.64 4.26,14.21 9.76,26.48 28.32,26.71 74.14,0.47 146.17,-17.77 217.15,-50.89 18.86,-8.72 14.92,-14.93 1.76,-22.19 -5.59,-3.63 -10.86,-7.11 -19.26,-12.58 z m 697.61,851.33 c 30.9,14.26 61.7,28.01 98.3,8.51 33.4,-17.5 38.7,-48.79 13.8,-70.5 -25.8,-23.25 -45.3,-52.46 -60.2,-85.08 -26.7,-57.23 -53.1,-115.12 -80.3,-172.7 -2.5,-5.31 -2.8,-14.14 -12.2,-13.01 1.3,5.9 2.2,11.1 4,16.33 24.4,84.03 37.2,170.55 15,263.52 -6.6,28.51 1.9,42.3 21.6,52.93 z m -847.22,-524.06 c 26.13,16.68 30.47,18.55 45.66,5.62 74.49,-62.85 158.32,-93.05 245.98,-110.23 5.68,-1.33 16.18,1.4 15.78,-7.11 -0.3,-7.5 -11.5,-3.83 -17.54,-3.67 -59.22,1.09 -118.83,2.81 -177.97,4.33 -34.88,0.94 -68.79,-3.83 -101.01,-14.84 -12.19,-3.87 -22.39,-20.55 -38.99,-3.09 -16.99,18.13 -26.83,38.67 -20.97,62.62 8.04,32.23 29.72,51.41 49.06,66.33 z m -3.44,-167.27 c 22.81,18.13 47.42,20.04 77.97,6.17 47.42,-21.99 96.6,-35.12 145.82,-44.06 22.3,-3.71 44.26,-8.09 65.74,-12.3 -12.97,-20.4 -34.22,-31.1 -50.47,-47.66 -16.6,-17.27 -33.2,-16.21 -56.17,-4.26 -55.35,28.71 -112.97,45 -171.87,53.56 -16.21,2.22 -45.98,-2.15 -46.88,7.77 -2.23,20.47 20.43,30.27 35.86,40.78 z m 998.16,369.1 c -21,-8.67 -36.4,-16.05 -53,-21.83 -7.4,-2.58 -14.2,-14.81 -22.6,-5.63 -5.9,6.64 2.1,14.57 4.6,22.23 21.2,57.22 36,118.08 36.8,182.11 0,55.35 31,75.62 72,89.61 6.6,2.07 14.5,9.53 21.6,2.26 7.7,-8.2 -0.8,-15.19 -3.3,-21.8 -26.8,-65.54 -39.1,-135.23 -37.9,-209.49 -0.4,-20.78 -3.7,-35.27 -18.2,-37.42 z m 230.5,30.47 c -20.5,-12.46 -49,10.47 -76,7.93 -5.4,-0.82 -15.1,-3.05 -17.5,5.47 -2.5,7.5 5.6,10.94 10.3,15.39 40.6,38.91 70.4,85.35 93.5,138.36 5.3,12.62 2.6,35.59 19,34.33 17.5,-1.24 32.7,-18.35 44.6,-34.8 17,-24.1 14.9,-47.81 4.9,-70.86 -16.6,-36.84 -45.4,-63.94 -78.8,-95.82 z m -842.3,-423.05 c 18.9,10.55 37.7,21.45 56.8,31.21 4.4,2.43 14.1,4.61 15.2,3.01 5,-7.69 -2.1,-12.73 -5.5,-17.26 -28.9,-38.6 -63.9,-71.02 -99.4,-102.5 -59.67,-53.13 -119.59,-106.49 -185.49,-151.84 -5.59,-3.63 -11.45,-12.97 -19.53,-5.47 -2.46,2.54 0.7,12.85 2.85,18.79 12.07,32.11 27.97,62.62 53.55,82.54 60.43,47.73 115.42,102.42 181.52,141.48 z m 470.2,290 c 57.3,36.06 122.4,58.91 182.7,89.69 36.8,18.6 75.6,23.83 117.7,22.11 7.8,-0.43 20.8,-1.99 21.8,-5.39 4.4,-12.73 -8.6,-13.01 -14.9,-16.68 -98.9,-52.77 -202.5,-95.31 -309.6,-130.12 -18.9,-6.4 -38.3,-14.49 -60.7,-10 8.4,22.46 30.9,27.07 46.9,40.32 4.3,3.78 10.4,6.71 16.1,10.07 z m -938.08,-555.62 c -7.89,10.86 -10.86,25.82 -13.24,41.6 -2.04,12.85 0.27,20.31 14.72,18.32 70.08,-10.39 136.06,-2.93 198.75,21.13 4.38,1.92 10.16,5.24 13.99,-3.67 1.91,-4.18 -31.14,-85.23 -36.22,-87.19 -37.34,-14.8 -75,-28.43 -117.38,-26.91 -22.69,1.13 -44.72,8.71 -60.62,36.72 z m 515.28,397.15 c 9,-13.75 2.8,-26.1 -15.2,-25.98 -101.8,-0.23 -202.5,16.21 -298.32,73.32 -16.37,9.88 -46.37,20.39 -42.58,36.6 2.85,13.28 33.94,3.48 52.85,-1.05 95.97,-25.04 191.25,-56.92 288.55,-74.22 5,-1.68 11.5,-1.17 14.8,-8.59 z m 60,214.76 c 29.3,20.47 61.9,34.5 95.5,45.9 7.4,2.58 21.4,15.86 25.6,-6.99 3.3,-16.6 24.3,-38.99 1.5,-49.77 -59.7,-28.08 -114.9,-62.34 -166.4,-103.75 -21.6,-17.38 -36.5,12.7 -50.7,25.32 -15.2,12.93 4.2,19.72 10,24.88 26,24.76 52.9,48.24 84.6,64.37 z m 241,-58.71 c -5,-5.12 -9,-4.49 -13.1,-1.25 -7.8,5.86 -9.9,13.24 -7.8,22.35 6.4,27.93 13.3,55.78 19.2,83.86 16.4,79.73 26.6,161.76 52.6,238.25 2.9,9.14 4.8,25.54 14,23.74 11.1,-2.38 8.3,-18.32 9.3,-27.73 14.8,-123.79 -18.1,-231.25 -70,-330.98 -1.7,-4.25 -3.5,-6.87 -4.2,-8.24 z m -45.2,-267.22 c -33,-17.86 -70.3,-28.99 -113.9,-4.93 -4.4,2.5 -11.9,5.47 -9.6,12.39 0.6,2.69 6.4,4.21 10.5,4.61 65.2,12.93 118.2,45.74 158.3,98.9 3.1,4.34 7.5,6.76 12,9.73 1.7,-5.74 4,-11.1 4.5,-16.72 -0.4,-48.71 -23.5,-79.81 -61.9,-103.98 z m -466.24,747.42 c 33.95,21.21 71.84,22.26 112.04,10.62 6.6,-2.19 16.9,-6.37 17.1,-8.98 0.8,-10.43 -9.7,-9.53 -15.7,-12.03 -57.78,-19.96 -109.61,-49.73 -152.78,-93.95 -3.28,-3.51 -8.59,-5.12 -13.2,-7.19 -0.97,5.75 -3.2,11.61 -2.22,16.8 6.75,39.61 22.42,73.59 54.76,94.77 z m 620.64,-450.43 c -5.6,-3.64 -10.9,-7.15 -16.7,-9.89 -3.5,-1.83 -7.6,-1.75 -11.4,-1.99 0.8,4.18 0,9.14 2,12.74 35,75 70,149.49 105.7,224.02 2,3.59 6.4,9.69 8.1,8.95 7.6,-3.83 3,-9.46 2.6,-14.34 -6.2,-49.69 -15.9,-98.13 -35.3,-142.81 -13.7,-30.39 -24.9,-61.96 -55.1,-76.64 z m -454.2,-273.13 c 4.3,-7.22 -1.2,-8.55 -4.1,-10.86 -19.7,-12.5 -38.9,-25.82 -64.6,-27.18 -61.1,-2.86 -121.22,9.92 -181.18,29.25 -5.78,2.15 -16.05,1.37 -14.76,10.43 0.94,8.36 11.01,4.46 16.99,3.79 77.7,-1.29 156.05,-3.08 234.25,-4.53 4.9,0.47 9.4,-0.27 13.3,-0.94 z" /><path
         id="path94"
         style="fill:#000000;fill-opacity:1;fill-rule:nonzero;stroke:none"
         d="m 10319.1,1662.11 49.1,45.74 -143.6,6.21 5.8,144.14 -50.3,-46.09 -5.9,-144.14 z" /><path
         id="path96"
         style="fill:#000000;fill-opacity:1;fill-rule:nonzero;stroke:none"
         d="m 7148.59,1854.1 -37.69,55.63 -28.13,-140.98 -141.56,27.85 37.85,-56.8 141.53,-27.89 z" /><path
         id="path98"
         style="fill:#000000;fill-opacity:1;fill-rule:nonzero;stroke:none"
         d="m 7089.53,1940.82 -37.65,55.63 -28.17,-140.98 -141.56,27.85 37.85,-56.8 141.52,-27.89 z" /><path
         id="path100"
         style="fill:none;stroke:#ff7315;stroke-width:34.01580048;stroke-linecap:butt;stroke-linejoin:miter;stroke-miterlimit:4;stroke-dasharray:none;stroke-opacity:1"
         d="M 720.039,102.621 H 10115.1" /><path
         id="path102"
         style="fill:#ff7315;fill-opacity:1;fill-rule:evenodd;stroke:none"
         d="m 10067.5,197.852 261.9,-95.231 -261.9,-95.24209 c 47.6,55.47269 47.6,134.76909 0,190.47309 z" /><path
         id="path104"
         style="fill:none;stroke:#1a1a1a;stroke-width:34.01580048;stroke-linecap:butt;stroke-linejoin:miter;stroke-miterlimit:4;stroke-dasharray:none;stroke-opacity:1"
         d="M 720.039,507.969 H 10115.1" /><path
         id="path106"
         style="fill:#1a1a1a;fill-opacity:1;fill-rule:evenodd;stroke:none"
         d="m 10067.5,603.199 261.9,-95.23 -261.9,-95.27 c 47.6,55.5 47.6,134.762 0,190.5 z" /><g
         transform="scale(10)"
         id="g108"><text
           id="text112"
           style="font-variant:normal;font-weight:normal;font-size:27px;font-family:FreeSerifBold;-inkscape-font-specification:FreeSerifBold;writing-mode:lr-tb;fill:#1a1a1a;fill-opacity:1;fill-rule:nonzero;stroke:none"
           transform="matrix(1,0,0,-1,362.892,62.1984)"><tspan
             id="tspan110"
             y="0"
             x="0 19.737 27.539835 38.23201 47.277012 60.777012 75.464844 86.93985 98.927849 105.67785 114.66885 133.08281 146.31288 159.81288 173.04297 180.25197 192.23996 198.98996 213.4348 228.25784 241.75784 252.71983 264.70782 271.45782 286.09183 301.31982 312.84885 326.07898 335.12396 342.65707 355.91409 370.8721">Distance (waggle phase duration)</tspan></text>
</g><g
         transform="scale(10)"
         id="g114"><text
           id="text118"
           style="font-variant:normal;font-weight:normal;font-size:27px;font-family:FreeSerifBold;-inkscape-font-specification:FreeSerifBold;writing-mode:lr-tb;fill:#ff7315;fill-opacity:1;fill-rule:nonzero;stroke:none"
           transform="matrix(1,0,0,-1,445.498,20.5395)"><tspan
             id="tspan116"
             y="0"
             x="0 19.737 27.539835 38.798836 50.786835 62.261719 71.306717 78.839828 92.096855 107.05486 113.80486 127.1699 138.6449 149.84996 165.07796 176.60695 189.97185 200.63667">Direction accuracy</tspan></text>
</g></g></g></svg>