<svg xmlns="http://www.w3.org/2000/svg" xmlns:xlink="http://www.w3.org/1999/xlink" width="600" zoomAndPan="magnify" viewBox="0 0 450 149.999998" height="200" preserveAspectRatio="xMidYMid meet" version="1.2"><defs><clipPath id="8ea5d49096"><path d="M 7.730469 5.511719 L 122.867188 5.511719 L 122.867188 139.535156 L 7.730469 139.535156 Z M 7.730469 5.511719 "/></clipPath><clipPath id="3e49ff19ea"><path d="M 65.296875 5.511719 L 122.867188 39.003906 L 122.867188 105.992188 L 65.296875 139.484375 L 7.730469 105.992188 L 7.730469 39.003906 Z M 65.296875 5.511719 "/></clipPath><clipPath id="698cdc5478"><path d="M 7.730469 5.511719 L 122.855469 5.511719 L 122.855469 139.476562 L 7.730469 139.476562 Z M 7.730469 5.511719 "/></clipPath><clipPath id="e9bbc8ea49"><path d="M 65.292969 5.511719 L 122.855469 39.003906 L 122.855469 105.984375 L 65.292969 139.476562 L 7.730469 105.984375 L 7.730469 39.003906 Z M 65.292969 5.511719 "/></clipPath><clipPath id="7bb215cb18"><path d="M 167.433594 5.511719 L 282.566406 5.511719 L 282.566406 139.535156 L 167.433594 139.535156 Z M 167.433594 5.511719 "/></clipPath><clipPath id="d5487ebe6b"><path d="M 225 5.511719 L 282.566406 39.003906 L 282.566406 105.992188 L 225 139.484375 L 167.433594 105.992188 L 167.433594 39.003906 Z M 225 5.511719 "/></clipPath><clipPath id="7d35141848"><path d="M 327.132812 5.511719 L 442.269531 5.511719 L 442.269531 139.535156 L 327.132812 139.535156 Z M 327.132812 5.511719 "/></clipPath><clipPath id="a53d1bbf0f"><path d="M 384.703125 5.511719 L 442.269531 39.003906 L 442.269531 105.992188 L 384.703125 139.484375 L 327.132812 105.992188 L 327.132812 39.003906 Z M 384.703125 5.511719 "/></clipPath><clipPath id="8345e80eb4"><path d="M 12.734375 11.332031 L 117.863281 11.332031 L 117.863281 133.710938 L 12.734375 133.710938 Z M 12.734375 11.332031 "/></clipPath><clipPath id="8398b55d74"><path d="M 65.296875 11.332031 L 117.863281 41.914062 L 117.863281 103.082031 L 65.296875 133.664062 L 12.734375 103.082031 L 12.734375 41.914062 Z M 65.296875 11.332031 "/></clipPath><clipPath id="df7845a437"><path d="M 172.433594 11.332031 L 277.566406 11.332031 L 277.566406 133.710938 L 172.433594 133.710938 Z M 172.433594 11.332031 "/></clipPath><clipPath id="e94f5db22e"><path d="M 225 11.332031 L 277.566406 41.914062 L 277.566406 103.082031 L 225 133.664062 L 172.433594 103.082031 L 172.433594 41.914062 Z M 225 11.332031 "/></clipPath><clipPath id="f19c62538c"><path d="M 332.136719 11.332031 L 437.265625 11.332031 L 437.265625 133.710938 L 332.136719 133.710938 Z M 332.136719 11.332031 "/></clipPath><clipPath id="f57e1f2501"><path d="M 384.703125 11.332031 L 437.265625 41.914062 L 437.265625 103.082031 L 384.703125 133.664062 L 332.136719 103.082031 L 332.136719 41.914062 Z M 384.703125 11.332031 "/></clipPath></defs><g id="622ced63c3"><g clip-rule="nonzero" clip-path="url(#8ea5d49096)"><g clip-rule="nonzero" clip-path="url(#3e49ff19ea)"><path style=" stroke:none;fill-rule:nonzero;fill:#edb612;fill-opacity:1;" d="M 7.730469 5.511719 L 122.867188 5.511719 L 122.867188 139.535156 L 7.730469 139.535156 Z M 7.730469 5.511719 "/></g></g><g clip-rule="nonzero" clip-path="url(#698cdc5478)"><g clip-rule="nonzero" clip-path="url(#e9bbc8ea49)"><path style="fill:none;stroke-width:8;stroke-linecap:butt;stroke-linejoin:miter;stroke:#edb612;stroke-opacity:1;stroke-miterlimit:4;" d="M 76.748863 -0.00203526 L 153.498862 44.654214 L 153.498862 133.961506 L 76.748863 178.617755 L -0.00113673 133.961506 L -0.00113673 44.654214 Z M 76.748863 -0.00203526 " transform="matrix(0.75,0,0,0.75,7.731321,5.513245)"/></g></g><g clip-rule="nonzero" clip-path="url(#7bb215cb18)"><g clip-rule="nonzero" clip-path="url(#d5487ebe6b)"><path style=" stroke:none;fill-rule:nonzero;fill:#edb612;fill-opacity:1;" d="M 167.433594 5.511719 L 282.566406 5.511719 L 282.566406 139.535156 L 167.433594 139.535156 Z M 167.433594 5.511719 "/></g></g><g clip-rule="nonzero" clip-path="url(#7d35141848)"><g clip-rule="nonzero" clip-path="url(#a53d1bbf0f)"><path style=" stroke:none;fill-rule:nonzero;fill:#edb612;fill-opacity:1;" d="M 327.132812 5.511719 L 442.269531 5.511719 L 442.269531 139.535156 L 327.132812 139.535156 Z M 327.132812 5.511719 "/></g></g><path style="fill:none;stroke-width:3;stroke-linecap:butt;stroke-linejoin:miter;stroke:#000000;stroke-opacity:1;stroke-miterlimit:4;" d="M 0.00204615 1.497752 L 51.172632 1.497752 " transform="matrix(0.744675,-0.000000000000000554,0.000000000000000554,0.744675,122.865664,71.372943)"/><path style="fill-rule:nonzero;fill:#000000;fill-opacity:1;stroke-width:3;stroke-linecap:round;stroke-linejoin:round;stroke:#000000;stroke-opacity:1;stroke-miterlimit:4;" d="M 51.92275 -2.997706 L 57.923688 1.497752 L 51.92275 5.998455 Z M 51.92275 -2.997706 " transform="matrix(0.744675,-0.000000000000000554,0.000000000000000554,0.744675,122.865664,71.372943)"/><path style="fill:none;stroke-width:3;stroke-linecap:butt;stroke-linejoin:miter;stroke:#000000;stroke-opacity:1;stroke-miterlimit:4;" d="M -0.000992939 1.497752 L 51.174839 1.497752 " transform="matrix(0.744675,-0.000000000000000554,0.000000000000000554,0.744675,282.567146,71.372943)"/><path style="fill-rule:nonzero;fill:#000000;fill-opacity:1;stroke-width:3;stroke-linecap:round;stroke-linejoin:round;stroke:#000000;stroke-opacity:1;stroke-miterlimit:4;" d="M 51.924956 -2.997706 L 57.920648 1.497752 L 51.924956 5.998455 Z M 51.924956 -2.997706 " transform="matrix(0.744675,-0.000000000000000554,0.000000000000000554,0.744675,282.567146,71.372943)"/><g clip-rule="nonzero" clip-path="url(#8345e80eb4)"><g clip-rule="nonzero" clip-path="url(#8398b55d74)"><path style=" stroke:none;fill-rule:nonzero;fill:#f6e4ae;fill-opacity:1;" d="M 12.734375 11.332031 L 117.863281 11.332031 L 117.863281 133.710938 L 12.734375 133.710938 Z M 12.734375 11.332031 "/></g></g><g clip-rule="nonzero" clip-path="url(#df7845a437)"><g clip-rule="nonzero" clip-path="url(#e94f5db22e)"><path style=" stroke:none;fill-rule:nonzero;fill:#f6e4ae;fill-opacity:1;" d="M 172.433594 11.332031 L 277.566406 11.332031 L 277.566406 133.710938 L 172.433594 133.710938 Z M 172.433594 11.332031 "/></g></g><g clip-rule="nonzero" clip-path="url(#f19c62538c)"><g clip-rule="nonzero" clip-path="url(#f57e1f2501)"><path style=" stroke:none;fill-rule:nonzero;fill:#f6e4ae;fill-opacity:1;" d="M 332.136719 11.332031 L 437.265625 11.332031 L 437.265625 133.710938 L 332.136719 133.710938 Z M 332.136719 11.332031 "/></g></g><g style="fill:#000000;fill-opacity:1;"><g transform="translate(20.72815, 77.149837)"><path style="stroke:none" d="M 6.953125 0.1875 C 6.117188 0.1875 5.363281 0.0703125 4.6875 -0.15625 C 4.019531 -0.394531 3.4375 -0.71875 2.9375 -1.125 C 2.445312 -1.539062 2.039062 -2.023438 1.71875 -2.578125 C 1.394531 -3.128906 1.148438 -3.734375 0.984375 -4.390625 C 0.828125 -5.046875 0.75 -5.722656 0.75 -6.421875 C 0.75 -7.128906 0.828125 -7.804688 0.984375 -8.453125 C 1.148438 -9.109375 1.394531 -9.710938 1.71875 -10.265625 C 2.039062 -10.828125 2.445312 -11.316406 2.9375 -11.734375 C 3.425781 -12.148438 4.003906 -12.472656 4.671875 -12.703125 C 5.335938 -12.929688 6.09375 -13.046875 6.9375 -13.046875 C 7.789062 -13.046875 8.578125 -12.90625 9.296875 -12.625 C 10.015625 -12.34375 10.648438 -11.925781 11.203125 -11.375 C 11.765625 -10.832031 12.21875 -10.160156 12.5625 -9.359375 L 10.40625 -8.5 C 10.25 -9.0625 10 -9.515625 9.65625 -9.859375 C 9.320312 -10.203125 8.921875 -10.453125 8.453125 -10.609375 C 7.992188 -10.765625 7.484375 -10.84375 6.921875 -10.84375 C 6.242188 -10.84375 5.660156 -10.726562 5.171875 -10.5 C 4.679688 -10.28125 4.273438 -9.972656 3.953125 -9.578125 C 3.640625 -9.179688 3.40625 -8.71875 3.25 -8.1875 C 3.101562 -7.664062 3.03125 -7.109375 3.03125 -6.515625 C 3.03125 -5.878906 3.101562 -5.285156 3.25 -4.734375 C 3.40625 -4.191406 3.640625 -3.710938 3.953125 -3.296875 C 4.273438 -2.890625 4.679688 -2.570312 5.171875 -2.34375 C 5.671875 -2.125 6.265625 -2.015625 6.953125 -2.015625 C 7.785156 -2.015625 8.488281 -2.191406 9.0625 -2.546875 C 9.632812 -2.910156 10.09375 -3.523438 10.4375 -4.390625 L 12.578125 -3.515625 C 12.234375 -2.710938 11.785156 -2.035156 11.234375 -1.484375 C 10.679688 -0.941406 10.039062 -0.523438 9.3125 -0.234375 C 8.59375 0.046875 7.804688 0.1875 6.953125 0.1875 Z M 6.953125 0.1875 "/></g><g transform="translate(33.738912, 77.149837)"><path style="stroke:none" d="M 1.828125 0 L 1.828125 -2.40625 L 4.046875 -2.40625 L 4.046875 0 Z M 1.828125 0 "/></g><g transform="translate(39.617378, 77.149837)"><path style="stroke:none" d="M 1.65625 0 L 1.65625 -12.84375 L 3.96875 -12.84375 L 3.96875 -2.1875 L 9.453125 -2.1875 L 9.453125 0 Z M 1.65625 0 "/></g><g transform="translate(49.275506, 77.149837)"><path style="stroke:none" d="M 1.828125 0 L 1.828125 -2.40625 L 4.046875 -2.40625 L 4.046875 0 Z M 1.828125 0 "/></g><g transform="translate(55.153972, 77.149837)"><path style="stroke:none" d="M 0.109375 0 L 5.25 -12.84375 L 6.984375 -12.84375 L 12.09375 0 L 9.609375 0 L 8.609375 -2.796875 L 3.625 -2.796875 L 2.625 0 Z M 4.40625 -4.765625 L 7.828125 -4.765625 L 6.125 -9.453125 Z M 4.40625 -4.765625 "/></g><g transform="translate(67.356104, 77.149837)"><path style="stroke:none" d="M 1.828125 0 L 1.828125 -2.40625 L 4.046875 -2.40625 L 4.046875 0 Z M 1.828125 0 "/></g><g transform="translate(73.23457, 77.149837)"><path style="stroke:none" d="M 1.65625 0 L 1.65625 -12.84375 L 3.96875 -12.84375 L 3.96875 -7.484375 L 9.59375 -7.484375 L 9.59375 -12.84375 L 11.890625 -12.84375 L 11.890625 0 L 9.59375 0 L 9.59375 -5.359375 L 3.96875 -5.359375 L 3.96875 0 Z M 1.65625 0 "/></g><g transform="translate(86.78139, 77.149837)"><path style="stroke:none" d="M 1.828125 0 L 1.828125 -2.40625 L 4.046875 -2.40625 L 4.046875 0 Z M 1.828125 0 "/></g><g transform="translate(92.659856, 77.149837)"><path style="stroke:none" d="M 1.65625 0 L 1.65625 -12.84375 L 10.1875 -12.84375 L 10.1875 -10.71875 L 3.96875 -10.71875 L 3.96875 -7.484375 L 9.765625 -7.484375 L 9.765625 -5.359375 L 3.96875 -5.359375 L 3.96875 -2.1875 L 10.1875 -2.1875 L 10.1875 0 Z M 1.65625 0 "/></g><g transform="translate(103.971587, 77.149837)"><path style="stroke:none" d="M 1.828125 0 L 1.828125 -2.40625 L 4.046875 -2.40625 L 4.046875 0 Z M 1.828125 0 "/></g></g><g style="fill:#000000;fill-opacity:1;"><g transform="translate(181.170437, 77.149837)"><path style="stroke:none" d="M 5.328125 0.140625 C 4.753906 0.140625 4.195312 0.0625 3.65625 -0.09375 C 3.113281 -0.25 2.613281 -0.484375 2.15625 -0.796875 C 1.707031 -1.109375 1.328125 -1.5 1.015625 -1.96875 C 0.710938 -2.445312 0.507812 -3 0.40625 -3.625 L 2.703125 -4.203125 C 2.753906 -3.671875 2.90625 -3.234375 3.15625 -2.890625 C 3.40625 -2.554688 3.71875 -2.304688 4.09375 -2.140625 C 4.476562 -1.984375 4.898438 -1.90625 5.359375 -1.90625 C 5.816406 -1.90625 6.203125 -1.972656 6.515625 -2.109375 C 6.828125 -2.253906 7.066406 -2.453125 7.234375 -2.703125 C 7.398438 -2.953125 7.484375 -3.226562 7.484375 -3.53125 C 7.484375 -3.863281 7.394531 -4.148438 7.21875 -4.390625 C 7.039062 -4.628906 6.800781 -4.832031 6.5 -5 C 6.207031 -5.175781 5.878906 -5.335938 5.515625 -5.484375 C 5.148438 -5.628906 4.769531 -5.78125 4.375 -5.9375 C 3.976562 -6.09375 3.59375 -6.269531 3.21875 -6.46875 C 2.851562 -6.664062 2.523438 -6.894531 2.234375 -7.15625 C 1.941406 -7.425781 1.707031 -7.75 1.53125 -8.125 C 1.351562 -8.507812 1.265625 -8.960938 1.265625 -9.484375 C 1.265625 -10.054688 1.367188 -10.5625 1.578125 -11 C 1.796875 -11.4375 2.085938 -11.804688 2.453125 -12.109375 C 2.828125 -12.410156 3.253906 -12.640625 3.734375 -12.796875 C 4.222656 -12.953125 4.734375 -13.03125 5.265625 -13.03125 C 6.054688 -13.03125 6.796875 -12.847656 7.484375 -12.484375 C 8.171875 -12.128906 8.734375 -11.5625 9.171875 -10.78125 L 7.265625 -9.609375 C 7.035156 -10.046875 6.738281 -10.382812 6.375 -10.625 C 6.007812 -10.863281 5.613281 -10.984375 5.1875 -10.984375 C 4.882812 -10.984375 4.609375 -10.921875 4.359375 -10.796875 C 4.117188 -10.679688 3.925781 -10.519531 3.78125 -10.3125 C 3.644531 -10.113281 3.578125 -9.878906 3.578125 -9.609375 C 3.578125 -9.304688 3.660156 -9.046875 3.828125 -8.828125 C 4.003906 -8.609375 4.238281 -8.421875 4.53125 -8.265625 C 4.832031 -8.109375 5.164062 -7.957031 5.53125 -7.8125 C 5.90625 -7.664062 6.285156 -7.515625 6.671875 -7.359375 C 7.066406 -7.210938 7.445312 -7.035156 7.8125 -6.828125 C 8.1875 -6.628906 8.519531 -6.390625 8.8125 -6.109375 C 9.113281 -5.835938 9.347656 -5.507812 9.515625 -5.125 C 9.691406 -4.738281 9.78125 -4.28125 9.78125 -3.75 C 9.78125 -3.132812 9.664062 -2.585938 9.4375 -2.109375 C 9.207031 -1.628906 8.882812 -1.21875 8.46875 -0.875 C 8.0625 -0.539062 7.585938 -0.285156 7.046875 -0.109375 C 6.515625 0.0546875 5.941406 0.140625 5.328125 0.140625 Z M 5.328125 0.140625 "/></g><g transform="translate(191.50091, 77.149837)"><path style="stroke:none" d="M 3.796875 0.1875 C 3.179688 0.1875 2.625 0.0703125 2.125 -0.15625 C 1.625 -0.394531 1.226562 -0.734375 0.9375 -1.171875 C 0.644531 -1.617188 0.5 -2.160156 0.5 -2.796875 C 0.5 -3.285156 0.585938 -3.695312 0.765625 -4.03125 C 0.953125 -4.363281 1.207031 -4.628906 1.53125 -4.828125 C 1.863281 -5.035156 2.25 -5.1875 2.6875 -5.28125 C 3.132812 -5.375 3.609375 -5.421875 4.109375 -5.421875 L 6.484375 -5.421875 C 6.484375 -5.992188 6.328125 -6.453125 6.015625 -6.796875 C 5.710938 -7.148438 5.269531 -7.328125 4.6875 -7.328125 C 4.34375 -7.328125 4.03125 -7.265625 3.75 -7.140625 C 3.476562 -7.023438 3.242188 -6.867188 3.046875 -6.671875 C 2.847656 -6.484375 2.679688 -6.273438 2.546875 -6.046875 L 0.859375 -7.28125 C 1.148438 -7.675781 1.472656 -8.019531 1.828125 -8.3125 C 2.191406 -8.613281 2.609375 -8.847656 3.078125 -9.015625 C 3.546875 -9.179688 4.078125 -9.265625 4.671875 -9.265625 C 5.492188 -9.265625 6.195312 -9.101562 6.78125 -8.78125 C 7.363281 -8.46875 7.8125 -8.023438 8.125 -7.453125 C 8.4375 -6.890625 8.59375 -6.238281 8.59375 -5.5 L 8.59375 0 L 6.765625 0 L 6.625 -1.296875 C 6.238281 -0.722656 5.804688 -0.332031 5.328125 -0.125 C 4.847656 0.0820312 4.335938 0.1875 3.796875 0.1875 Z M 4.109375 -1.6875 C 4.429688 -1.6875 4.734375 -1.742188 5.015625 -1.859375 C 5.296875 -1.972656 5.539062 -2.128906 5.75 -2.328125 C 5.96875 -2.523438 6.140625 -2.75 6.265625 -3 C 6.398438 -3.257812 6.472656 -3.53125 6.484375 -3.8125 L 4.25 -3.8125 C 3.738281 -3.8125 3.363281 -3.695312 3.125 -3.46875 C 2.882812 -3.25 2.765625 -3 2.765625 -2.71875 C 2.765625 -2.414062 2.878906 -2.164062 3.109375 -1.96875 C 3.347656 -1.78125 3.679688 -1.6875 4.109375 -1.6875 Z M 4.109375 -1.6875 "/></g><g transform="translate(201.140867, 77.149837)"><path style="stroke:none" d="M 4.546875 0.1875 C 3.953125 0.1875 3.441406 0.078125 3.015625 -0.140625 C 2.585938 -0.359375 2.257812 -0.671875 2.03125 -1.078125 C 1.800781 -1.484375 1.6875 -1.960938 1.6875 -2.515625 L 1.6875 -7.21875 L 0.234375 -7.21875 L 0.234375 -9.078125 L 1.71875 -9.078125 L 1.71875 -11.328125 L 3.890625 -12.90625 L 3.890625 -9.078125 L 6.171875 -9.078125 L 6.171875 -7.21875 L 3.890625 -7.21875 L 3.890625 -2.90625 C 3.890625 -2.46875 3.988281 -2.164062 4.1875 -2 C 4.382812 -1.84375 4.628906 -1.765625 4.921875 -1.765625 C 5.148438 -1.765625 5.378906 -1.800781 5.609375 -1.875 C 5.835938 -1.945312 6.023438 -2.019531 6.171875 -2.09375 L 6.171875 -0.09375 C 6.003906 -0.03125 5.769531 0.03125 5.46875 0.09375 C 5.164062 0.15625 4.859375 0.1875 4.546875 0.1875 Z M 4.546875 0.1875 "/></g><g transform="translate(207.991505, 77.149837)"><path style="stroke:none" d="M 4.359375 0.1875 C 3.585938 0.1875 2.957031 0.00390625 2.46875 -0.359375 C 1.988281 -0.734375 1.628906 -1.253906 1.390625 -1.921875 C 1.160156 -2.597656 1.046875 -3.390625 1.046875 -4.296875 L 1.046875 -9.078125 L 3.296875 -9.078125 L 3.296875 -4.21875 C 3.296875 -3.726562 3.335938 -3.300781 3.421875 -2.9375 C 3.503906 -2.582031 3.664062 -2.304688 3.90625 -2.109375 C 4.144531 -1.921875 4.488281 -1.828125 4.9375 -1.828125 C 5.195312 -1.828125 5.445312 -1.867188 5.6875 -1.953125 C 5.9375 -2.035156 6.160156 -2.191406 6.359375 -2.421875 C 6.566406 -2.648438 6.726562 -2.96875 6.84375 -3.375 C 6.96875 -3.789062 7.03125 -4.328125 7.03125 -4.984375 L 7.03125 -9.078125 L 9.28125 -9.078125 L 9.28125 0 L 7.03125 0 L 7.03125 -1.0625 C 6.707031 -0.632812 6.3125 -0.316406 5.84375 -0.109375 C 5.382812 0.0859375 4.890625 0.1875 4.359375 0.1875 Z M 4.359375 0.1875 "/></g><g transform="translate(218.59455, 77.149837)"><path style="stroke:none" d="M 1.3125 0 L 1.3125 -9.078125 L 3.484375 -9.078125 L 3.484375 -7.546875 C 3.617188 -7.921875 3.8125 -8.234375 4.0625 -8.484375 C 4.3125 -8.742188 4.597656 -8.9375 4.921875 -9.0625 C 5.242188 -9.195312 5.578125 -9.265625 5.921875 -9.265625 C 6.222656 -9.265625 6.519531 -9.210938 6.8125 -9.109375 C 7.101562 -9.003906 7.359375 -8.835938 7.578125 -8.609375 L 6.5625 -6.796875 C 6.257812 -7.003906 5.929688 -7.109375 5.578125 -7.109375 C 5.316406 -7.109375 5.0625 -7.046875 4.8125 -6.921875 C 4.5625 -6.796875 4.332031 -6.597656 4.125 -6.328125 C 3.925781 -6.066406 3.765625 -5.726562 3.640625 -5.3125 C 3.523438 -4.90625 3.46875 -4.410156 3.46875 -3.828125 L 3.46875 0 Z M 1.3125 0 "/></g><g transform="translate(225.999418, 77.149837)"><path style="stroke:none" d="M 3.796875 0.1875 C 3.179688 0.1875 2.625 0.0703125 2.125 -0.15625 C 1.625 -0.394531 1.226562 -0.734375 0.9375 -1.171875 C 0.644531 -1.617188 0.5 -2.160156 0.5 -2.796875 C 0.5 -3.285156 0.585938 -3.695312 0.765625 -4.03125 C 0.953125 -4.363281 1.207031 -4.628906 1.53125 -4.828125 C 1.863281 -5.035156 2.25 -5.1875 2.6875 -5.28125 C 3.132812 -5.375 3.609375 -5.421875 4.109375 -5.421875 L 6.484375 -5.421875 C 6.484375 -5.992188 6.328125 -6.453125 6.015625 -6.796875 C 5.710938 -7.148438 5.269531 -7.328125 4.6875 -7.328125 C 4.34375 -7.328125 4.03125 -7.265625 3.75 -7.140625 C 3.476562 -7.023438 3.242188 -6.867188 3.046875 -6.671875 C 2.847656 -6.484375 2.679688 -6.273438 2.546875 -6.046875 L 0.859375 -7.28125 C 1.148438 -7.675781 1.472656 -8.019531 1.828125 -8.3125 C 2.191406 -8.613281 2.609375 -8.847656 3.078125 -9.015625 C 3.546875 -9.179688 4.078125 -9.265625 4.671875 -9.265625 C 5.492188 -9.265625 6.195312 -9.101562 6.78125 -8.78125 C 7.363281 -8.46875 7.8125 -8.023438 8.125 -7.453125 C 8.4375 -6.890625 8.59375 -6.238281 8.59375 -5.5 L 8.59375 0 L 6.765625 0 L 6.625 -1.296875 C 6.238281 -0.722656 5.804688 -0.332031 5.328125 -0.125 C 4.847656 0.0820312 4.335938 0.1875 3.796875 0.1875 Z M 4.109375 -1.6875 C 4.429688 -1.6875 4.734375 -1.742188 5.015625 -1.859375 C 5.296875 -1.972656 5.539062 -2.128906 5.75 -2.328125 C 5.96875 -2.523438 6.140625 -2.75 6.265625 -3 C 6.398438 -3.257812 6.472656 -3.53125 6.484375 -3.8125 L 4.25 -3.8125 C 3.738281 -3.8125 3.363281 -3.695312 3.125 -3.46875 C 2.882812 -3.25 2.765625 -3 2.765625 -2.71875 C 2.765625 -2.414062 2.878906 -2.164062 3.109375 -1.96875 C 3.347656 -1.78125 3.679688 -1.6875 4.109375 -1.6875 Z M 4.109375 -1.6875 "/></g><g transform="translate(235.639375, 77.149837)"><path style="stroke:none" d="M 4.546875 0.1875 C 3.953125 0.1875 3.441406 0.078125 3.015625 -0.140625 C 2.585938 -0.359375 2.257812 -0.671875 2.03125 -1.078125 C 1.800781 -1.484375 1.6875 -1.960938 1.6875 -2.515625 L 1.6875 -7.21875 L 0.234375 -7.21875 L 0.234375 -9.078125 L 1.71875 -9.078125 L 1.71875 -11.328125 L 3.890625 -12.90625 L 3.890625 -9.078125 L 6.171875 -9.078125 L 6.171875 -7.21875 L 3.890625 -7.21875 L 3.890625 -2.90625 C 3.890625 -2.46875 3.988281 -2.164062 4.1875 -2 C 4.382812 -1.84375 4.628906 -1.765625 4.921875 -1.765625 C 5.148438 -1.765625 5.378906 -1.800781 5.609375 -1.875 C 5.835938 -1.945312 6.023438 -2.019531 6.171875 -2.09375 L 6.171875 -0.09375 C 6.003906 -0.03125 5.769531 0.03125 5.46875 0.09375 C 5.164062 0.15625 4.859375 0.1875 4.546875 0.1875 Z M 4.546875 0.1875 "/></g><g transform="translate(242.490013, 77.149837)"><path style="stroke:none" d="M 1.265625 -10.796875 L 1.265625 -12.84375 L 3.578125 -12.84375 L 3.578125 -10.796875 Z M 1.3125 0 L 1.3125 -9.078125 L 3.515625 -9.078125 L 3.515625 0 Z M 1.3125 0 "/></g><g transform="translate(247.323621, 77.149837)"><path style="stroke:none" d="M 5.109375 0.1875 C 4.410156 0.1875 3.773438 0.0625 3.203125 -0.1875 C 2.640625 -0.445312 2.148438 -0.789062 1.734375 -1.21875 C 1.328125 -1.65625 1.015625 -2.160156 0.796875 -2.734375 C 0.578125 -3.304688 0.46875 -3.914062 0.46875 -4.5625 C 0.46875 -5.207031 0.578125 -5.8125 0.796875 -6.375 C 1.015625 -6.9375 1.328125 -7.429688 1.734375 -7.859375 C 2.148438 -8.296875 2.640625 -8.640625 3.203125 -8.890625 C 3.773438 -9.140625 4.410156 -9.265625 5.109375 -9.265625 C 5.816406 -9.265625 6.453125 -9.140625 7.015625 -8.890625 C 7.585938 -8.640625 8.078125 -8.296875 8.484375 -7.859375 C 8.898438 -7.429688 9.21875 -6.9375 9.4375 -6.375 C 9.65625 -5.8125 9.765625 -5.207031 9.765625 -4.5625 C 9.765625 -3.914062 9.65625 -3.304688 9.4375 -2.734375 C 9.21875 -2.160156 8.898438 -1.65625 8.484375 -1.21875 C 8.078125 -0.789062 7.585938 -0.445312 7.015625 -0.1875 C 6.453125 0.0625 5.816406 0.1875 5.109375 0.1875 Z M 5.109375 -1.71875 C 5.535156 -1.71875 5.894531 -1.796875 6.1875 -1.953125 C 6.488281 -2.109375 6.734375 -2.316406 6.921875 -2.578125 C 7.109375 -2.847656 7.242188 -3.148438 7.328125 -3.484375 C 7.410156 -3.828125 7.453125 -4.1875 7.453125 -4.5625 C 7.453125 -4.9375 7.410156 -5.289062 7.328125 -5.625 C 7.242188 -5.957031 7.109375 -6.253906 6.921875 -6.515625 C 6.734375 -6.773438 6.488281 -6.976562 6.1875 -7.125 C 5.894531 -7.269531 5.535156 -7.34375 5.109375 -7.34375 C 4.554688 -7.34375 4.109375 -7.210938 3.765625 -6.953125 C 3.421875 -6.703125 3.164062 -6.363281 3 -5.9375 C 2.84375 -5.519531 2.765625 -5.0625 2.765625 -4.5625 C 2.765625 -4.1875 2.804688 -3.828125 2.890625 -3.484375 C 2.984375 -3.148438 3.125 -2.847656 3.3125 -2.578125 C 3.5 -2.316406 3.738281 -2.109375 4.03125 -1.953125 C 4.332031 -1.796875 4.691406 -1.71875 5.109375 -1.71875 Z M 5.109375 -1.71875 "/></g><g transform="translate(257.572321, 77.149837)"><path style="stroke:none" d="M 1.3125 0 L 1.3125 -9.078125 L 3.515625 -9.078125 L 3.515625 -8.03125 C 3.753906 -8.320312 4.023438 -8.554688 4.328125 -8.734375 C 4.628906 -8.921875 4.941406 -9.054688 5.265625 -9.140625 C 5.585938 -9.222656 5.898438 -9.265625 6.203125 -9.265625 C 6.796875 -9.265625 7.300781 -9.15625 7.71875 -8.9375 C 8.132812 -8.726562 8.472656 -8.441406 8.734375 -8.078125 C 8.992188 -7.710938 9.179688 -7.300781 9.296875 -6.84375 C 9.421875 -6.382812 9.484375 -5.921875 9.484375 -5.453125 L 9.484375 0 L 7.296875 0 L 7.296875 -5.171875 C 7.296875 -5.566406 7.226562 -5.921875 7.09375 -6.234375 C 6.96875 -6.546875 6.773438 -6.785156 6.515625 -6.953125 C 6.265625 -7.128906 5.945312 -7.21875 5.5625 -7.21875 C 4.9375 -7.21875 4.4375 -7.039062 4.0625 -6.6875 C 3.695312 -6.332031 3.515625 -5.757812 3.515625 -4.96875 L 3.515625 0 Z M 1.3125 0 "/></g></g><g style="fill:#000000;fill-opacity:1;"><g transform="translate(352.570135, 77.149837)"><path style="stroke:none" d="M 1.65625 0 L 1.65625 -12.84375 L 3.9375 -12.84375 L 9.34375 -3.859375 L 9.34375 -12.84375 L 11.5625 -12.84375 L 11.5625 0 L 9.25 0 L 3.875 -9 L 3.875 0 Z M 1.65625 0 "/></g><g transform="translate(365.780783, 77.149837)"><path style="stroke:none" d="M 5.09375 0.1875 C 4.3125 0.1875 3.632812 0.0625 3.0625 -0.1875 C 2.488281 -0.445312 2.007812 -0.796875 1.625 -1.234375 C 1.238281 -1.679688 0.953125 -2.1875 0.765625 -2.75 C 0.585938 -3.3125 0.5 -3.894531 0.5 -4.5 C 0.5 -5.09375 0.585938 -5.671875 0.765625 -6.234375 C 0.941406 -6.804688 1.207031 -7.316406 1.5625 -7.765625 C 1.925781 -8.222656 2.390625 -8.585938 2.953125 -8.859375 C 3.515625 -9.128906 4.179688 -9.265625 4.953125 -9.265625 C 5.585938 -9.265625 6.140625 -9.171875 6.609375 -8.984375 C 7.078125 -8.804688 7.472656 -8.554688 7.796875 -8.234375 C 8.128906 -7.921875 8.394531 -7.566406 8.59375 -7.171875 C 8.789062 -6.773438 8.929688 -6.363281 9.015625 -5.9375 C 9.109375 -5.507812 9.15625 -5.09375 9.15625 -4.6875 C 9.15625 -4.5 9.144531 -4.320312 9.125 -4.15625 C 9.113281 -4 9.097656 -3.882812 9.078125 -3.8125 L 2.84375 -3.8125 C 2.90625 -3.414062 3.023438 -3.066406 3.203125 -2.765625 C 3.378906 -2.472656 3.625 -2.242188 3.9375 -2.078125 C 4.25 -1.910156 4.640625 -1.828125 5.109375 -1.828125 C 5.523438 -1.828125 5.914062 -1.898438 6.28125 -2.046875 C 6.644531 -2.191406 6.984375 -2.441406 7.296875 -2.796875 L 8.828125 -1.453125 C 8.328125 -0.898438 7.769531 -0.488281 7.15625 -0.21875 C 6.550781 0.0507812 5.863281 0.1875 5.09375 0.1875 Z M 2.84375 -5.421875 L 6.984375 -5.421875 C 6.910156 -6.066406 6.691406 -6.554688 6.328125 -6.890625 C 5.972656 -7.234375 5.507812 -7.40625 4.9375 -7.40625 C 4.5 -7.40625 4.140625 -7.316406 3.859375 -7.140625 C 3.578125 -6.972656 3.351562 -6.738281 3.1875 -6.4375 C 3.03125 -6.132812 2.914062 -5.796875 2.84375 -5.421875 Z M 2.84375 -5.421875 "/></g><g transform="translate(375.475254, 77.149837)"><path style="stroke:none" d="M 4.546875 0.1875 C 3.953125 0.1875 3.441406 0.078125 3.015625 -0.140625 C 2.585938 -0.359375 2.257812 -0.671875 2.03125 -1.078125 C 1.800781 -1.484375 1.6875 -1.960938 1.6875 -2.515625 L 1.6875 -7.21875 L 0.234375 -7.21875 L 0.234375 -9.078125 L 1.71875 -9.078125 L 1.71875 -11.328125 L 3.890625 -12.90625 L 3.890625 -9.078125 L 6.171875 -9.078125 L 6.171875 -7.21875 L 3.890625 -7.21875 L 3.890625 -2.90625 C 3.890625 -2.46875 3.988281 -2.164062 4.1875 -2 C 4.382812 -1.84375 4.628906 -1.765625 4.921875 -1.765625 C 5.148438 -1.765625 5.378906 -1.800781 5.609375 -1.875 C 5.835938 -1.945312 6.023438 -2.019531 6.171875 -2.09375 L 6.171875 -0.09375 C 6.003906 -0.03125 5.769531 0.03125 5.46875 0.09375 C 5.164062 0.15625 4.859375 0.1875 4.546875 0.1875 Z M 4.546875 0.1875 "/></g><g transform="translate(382.325893, 77.149837)"><path style="stroke:none" d="M 4.546875 0.1875 C 3.953125 0.1875 3.441406 0.078125 3.015625 -0.140625 C 2.585938 -0.359375 2.257812 -0.671875 2.03125 -1.078125 C 1.800781 -1.484375 1.6875 -1.960938 1.6875 -2.515625 L 1.6875 -7.21875 L 0.234375 -7.21875 L 0.234375 -9.078125 L 1.71875 -9.078125 L 1.71875 -11.328125 L 3.890625 -12.90625 L 3.890625 -9.078125 L 6.171875 -9.078125 L 6.171875 -7.21875 L 3.890625 -7.21875 L 3.890625 -2.90625 C 3.890625 -2.46875 3.988281 -2.164062 4.1875 -2 C 4.382812 -1.84375 4.628906 -1.765625 4.921875 -1.765625 C 5.148438 -1.765625 5.378906 -1.800781 5.609375 -1.875 C 5.835938 -1.945312 6.023438 -2.019531 6.171875 -2.09375 L 6.171875 -0.09375 C 6.003906 -0.03125 5.769531 0.03125 5.46875 0.09375 C 5.164062 0.15625 4.859375 0.1875 4.546875 0.1875 Z M 4.546875 0.1875 "/></g><g transform="translate(389.176532, 77.149837)"><path style="stroke:none" d="M 5.09375 0.1875 C 4.3125 0.1875 3.632812 0.0625 3.0625 -0.1875 C 2.488281 -0.445312 2.007812 -0.796875 1.625 -1.234375 C 1.238281 -1.679688 0.953125 -2.1875 0.765625 -2.75 C 0.585938 -3.3125 0.5 -3.894531 0.5 -4.5 C 0.5 -5.09375 0.585938 -5.671875 0.765625 -6.234375 C 0.941406 -6.804688 1.207031 -7.316406 1.5625 -7.765625 C 1.925781 -8.222656 2.390625 -8.585938 2.953125 -8.859375 C 3.515625 -9.128906 4.179688 -9.265625 4.953125 -9.265625 C 5.585938 -9.265625 6.140625 -9.171875 6.609375 -8.984375 C 7.078125 -8.804688 7.472656 -8.554688 7.796875 -8.234375 C 8.128906 -7.921875 8.394531 -7.566406 8.59375 -7.171875 C 8.789062 -6.773438 8.929688 -6.363281 9.015625 -5.9375 C 9.109375 -5.507812 9.15625 -5.09375 9.15625 -4.6875 C 9.15625 -4.5 9.144531 -4.320312 9.125 -4.15625 C 9.113281 -4 9.097656 -3.882812 9.078125 -3.8125 L 2.84375 -3.8125 C 2.90625 -3.414062 3.023438 -3.066406 3.203125 -2.765625 C 3.378906 -2.472656 3.625 -2.242188 3.9375 -2.078125 C 4.25 -1.910156 4.640625 -1.828125 5.109375 -1.828125 C 5.523438 -1.828125 5.914062 -1.898438 6.28125 -2.046875 C 6.644531 -2.191406 6.984375 -2.441406 7.296875 -2.796875 L 8.828125 -1.453125 C 8.328125 -0.898438 7.769531 -0.488281 7.15625 -0.21875 C 6.550781 0.0507812 5.863281 0.1875 5.09375 0.1875 Z M 2.84375 -5.421875 L 6.984375 -5.421875 C 6.910156 -6.066406 6.691406 -6.554688 6.328125 -6.890625 C 5.972656 -7.234375 5.507812 -7.40625 4.9375 -7.40625 C 4.5 -7.40625 4.140625 -7.316406 3.859375 -7.140625 C 3.578125 -6.972656 3.351562 -6.738281 3.1875 -6.4375 C 3.03125 -6.132812 2.914062 -5.796875 2.84375 -5.421875 Z M 2.84375 -5.421875 "/></g><g transform="translate(398.871003, 77.149837)"><path style="stroke:none" d="M 4.546875 0.1875 C 3.953125 0.1875 3.441406 0.078125 3.015625 -0.140625 C 2.585938 -0.359375 2.257812 -0.671875 2.03125 -1.078125 C 1.800781 -1.484375 1.6875 -1.960938 1.6875 -2.515625 L 1.6875 -7.21875 L 0.234375 -7.21875 L 0.234375 -9.078125 L 1.71875 -9.078125 L 1.71875 -11.328125 L 3.890625 -12.90625 L 3.890625 -9.078125 L 6.171875 -9.078125 L 6.171875 -7.21875 L 3.890625 -7.21875 L 3.890625 -2.90625 C 3.890625 -2.46875 3.988281 -2.164062 4.1875 -2 C 4.382812 -1.84375 4.628906 -1.765625 4.921875 -1.765625 C 5.148438 -1.765625 5.378906 -1.800781 5.609375 -1.875 C 5.835938 -1.945312 6.023438 -2.019531 6.171875 -2.09375 L 6.171875 -0.09375 C 6.003906 -0.03125 5.769531 0.03125 5.46875 0.09375 C 5.164062 0.15625 4.859375 0.1875 4.546875 0.1875 Z M 4.546875 0.1875 "/></g><g transform="translate(405.721642, 77.149837)"><path style="stroke:none" d="M 3.703125 -10.21875 L 5.75 -12.84375 L 8.109375 -12.84375 L 5.3125 -10.21875 Z M 5.09375 0.1875 C 4.3125 0.1875 3.632812 0.0625 3.0625 -0.1875 C 2.488281 -0.445312 2.007812 -0.796875 1.625 -1.234375 C 1.238281 -1.679688 0.953125 -2.1875 0.765625 -2.75 C 0.585938 -3.3125 0.5 -3.894531 0.5 -4.5 C 0.5 -5.09375 0.585938 -5.671875 0.765625 -6.234375 C 0.941406 -6.804688 1.207031 -7.316406 1.5625 -7.765625 C 1.925781 -8.222656 2.390625 -8.585938 2.953125 -8.859375 C 3.515625 -9.128906 4.179688 -9.265625 4.953125 -9.265625 C 5.585938 -9.265625 6.140625 -9.171875 6.609375 -8.984375 C 7.078125 -8.804688 7.472656 -8.554688 7.796875 -8.234375 C 8.128906 -7.921875 8.394531 -7.566406 8.59375 -7.171875 C 8.789062 -6.773438 8.929688 -6.363281 9.015625 -5.9375 C 9.109375 -5.507812 9.15625 -5.09375 9.15625 -4.6875 C 9.15625 -4.5 9.144531 -4.320312 9.125 -4.15625 C 9.113281 -4 9.097656 -3.882812 9.078125 -3.8125 L 2.84375 -3.8125 C 2.90625 -3.414062 3.023438 -3.066406 3.203125 -2.765625 C 3.378906 -2.472656 3.625 -2.242188 3.9375 -2.078125 C 4.25 -1.910156 4.640625 -1.828125 5.109375 -1.828125 C 5.523438 -1.828125 5.914062 -1.898438 6.28125 -2.046875 C 6.644531 -2.191406 6.984375 -2.441406 7.296875 -2.796875 L 8.828125 -1.453125 C 8.328125 -0.898438 7.769531 -0.488281 7.15625 -0.21875 C 6.550781 0.0507812 5.863281 0.1875 5.09375 0.1875 Z M 2.84375 -5.421875 L 6.984375 -5.421875 C 6.910156 -6.066406 6.691406 -6.554688 6.328125 -6.890625 C 5.972656 -7.234375 5.507812 -7.40625 4.9375 -7.40625 C 4.5 -7.40625 4.140625 -7.316406 3.859375 -7.140625 C 3.578125 -6.972656 3.351562 -6.738281 3.1875 -6.4375 C 3.03125 -6.132812 2.914062 -5.796875 2.84375 -5.421875 Z M 2.84375 -5.421875 "/></g></g></g></svg>