<svg xmlns="http://www.w3.org/2000/svg" xmlns:xlink="http://www.w3.org/1999/xlink" width="600" zoomAndPan="magnify" viewBox="0 0 450 149.999998" height="200" preserveAspectRatio="xMidYMid meet" version="1.2"><defs><clipPath id="ce1b104f53"><path d="M 2.359375 24.804688 L 88.632812 24.804688 L 88.632812 125.234375 L 2.359375 125.234375 Z M 2.359375 24.804688 "/></clipPath><clipPath id="e9c2aa5ad1"><path d="M 45.496094 24.804688 L 88.632812 49.902344 L 88.632812 100.097656 L 45.496094 125.195312 L 2.359375 100.097656 L 2.359375 49.902344 Z M 45.496094 24.804688 "/></clipPath><clipPath id="3a04a3317d"><path d="M 2.363281 24.804688 L 88.605469 24.804688 L 88.605469 125.160156 L 2.363281 125.160156 Z M 2.363281 24.804688 "/></clipPath><clipPath id="e94b066e19"><path d="M 45.484375 24.804688 L 88.605469 49.894531 L 88.605469 100.070312 L 45.484375 125.160156 L 2.363281 100.070312 L 2.363281 49.894531 Z M 45.484375 24.804688 "/></clipPath><clipPath id="1a120b4123"><path d="M 122.027344 24.804688 L 208.300781 24.804688 L 208.300781 125.234375 L 122.027344 125.234375 Z M 122.027344 24.804688 "/></clipPath><clipPath id="5ca8f592e2"><path d="M 165.164062 24.804688 L 208.300781 49.902344 L 208.300781 100.097656 L 165.164062 125.195312 L 122.027344 100.097656 L 122.027344 49.902344 Z M 165.164062 24.804688 "/></clipPath><clipPath id="a761b358ac"><path d="M 241.699219 24.804688 L 327.972656 24.804688 L 327.972656 125.234375 L 241.699219 125.234375 Z M 241.699219 24.804688 "/></clipPath><clipPath id="d72e905f84"><path d="M 284.835938 24.804688 L 327.972656 49.902344 L 327.972656 100.097656 L 284.835938 125.195312 L 241.699219 100.097656 L 241.699219 49.902344 Z M 284.835938 24.804688 "/></clipPath><clipPath id="b78ff43634"><path d="M 361.367188 24.804688 L 447.640625 24.804688 L 447.640625 125.234375 L 361.367188 125.234375 Z M 361.367188 24.804688 "/></clipPath><clipPath id="735595f08d"><path d="M 404.503906 24.804688 L 447.640625 49.902344 L 447.640625 100.097656 L 404.503906 125.195312 L 361.367188 100.097656 L 361.367188 49.902344 Z M 404.503906 24.804688 "/></clipPath><clipPath id="6e4d518a82"><path d="M 6.105469 29.164062 L 84.886719 29.164062 L 84.886719 120.867188 L 6.105469 120.867188 Z M 6.105469 29.164062 "/></clipPath><clipPath id="83adda95a5"><path d="M 45.496094 29.164062 L 84.886719 52.082031 L 84.886719 97.917969 L 45.496094 120.835938 L 6.105469 97.917969 L 6.105469 52.082031 Z M 45.496094 29.164062 "/></clipPath><clipPath id="d3c74d4119"><path d="M 125.777344 29.164062 L 204.554688 29.164062 L 204.554688 120.867188 L 125.777344 120.867188 Z M 125.777344 29.164062 "/></clipPath><clipPath id="4c71731f61"><path d="M 165.164062 29.164062 L 204.554688 52.082031 L 204.554688 97.917969 L 165.164062 120.835938 L 125.777344 97.917969 L 125.777344 52.082031 Z M 165.164062 29.164062 "/></clipPath><clipPath id="767d3eaf6c"><path d="M 245.445312 29.164062 L 324.222656 29.164062 L 324.222656 120.867188 L 245.445312 120.867188 Z M 245.445312 29.164062 "/></clipPath><clipPath id="b641ba48cd"><path d="M 284.835938 29.164062 L 324.222656 52.082031 L 324.222656 97.917969 L 284.835938 120.835938 L 245.445312 97.917969 L 245.445312 52.082031 Z M 284.835938 29.164062 "/></clipPath><clipPath id="886bac4806"><path d="M 365.113281 29.164062 L 443.894531 29.164062 L 443.894531 120.867188 L 365.113281 120.867188 Z M 365.113281 29.164062 "/></clipPath><clipPath id="c641877ee1"><path d="M 404.503906 29.164062 L 443.894531 52.082031 L 443.894531 97.917969 L 404.503906 120.835938 L 365.113281 97.917969 L 365.113281 52.082031 Z M 404.503906 29.164062 "/></clipPath></defs><g id="451c608a60"><g clip-rule="nonzero" clip-path="url(#ce1b104f53)"><g clip-rule="nonzero" clip-path="url(#e9c2aa5ad1)"><path style=" stroke:none;fill-rule:nonzero;fill:#edb612;fill-opacity:1;" d="M 2.359375 24.804688 L 88.632812 24.804688 L 88.632812 125.234375 L 2.359375 125.234375 Z M 2.359375 24.804688 "/></g></g><g clip-rule="nonzero" clip-path="url(#3a04a3317d)"><g clip-rule="nonzero" clip-path="url(#e94b066e19)"><path style="fill:none;stroke-width:8;stroke-linecap:butt;stroke-linejoin:miter;stroke:#edb612;stroke-opacity:1;stroke-miterlimit:4;" d="M 57.51166 0.000521191 L 115.02208 33.462739 L 115.02208 100.381965 L 57.51166 133.844183 L 0.00124074 100.381965 L 0.00124074 33.462739 Z M 57.51166 0.000521191 " transform="matrix(0.749796,0,0,0.749796,2.362351,24.804297)"/></g></g><g clip-rule="nonzero" clip-path="url(#1a120b4123)"><g clip-rule="nonzero" clip-path="url(#5ca8f592e2)"><path style=" stroke:none;fill-rule:nonzero;fill:#edb612;fill-opacity:1;" d="M 122.027344 24.804688 L 208.300781 24.804688 L 208.300781 125.234375 L 122.027344 125.234375 Z M 122.027344 24.804688 "/></g></g><g clip-rule="nonzero" clip-path="url(#a761b358ac)"><g clip-rule="nonzero" clip-path="url(#d72e905f84)"><path style=" stroke:none;fill-rule:nonzero;fill:#edb612;fill-opacity:1;" d="M 241.699219 24.804688 L 327.972656 24.804688 L 327.972656 125.234375 L 241.699219 125.234375 Z M 241.699219 24.804688 "/></g></g><g clip-rule="nonzero" clip-path="url(#b78ff43634)"><g clip-rule="nonzero" clip-path="url(#735595f08d)"><path style=" stroke:none;fill-rule:nonzero;fill:#edb612;fill-opacity:1;" d="M 361.367188 24.804688 L 447.640625 24.804688 L 447.640625 125.234375 L 361.367188 125.234375 Z M 361.367188 24.804688 "/></g></g><path style=" stroke:none;fill-rule:nonzero;fill:#000000;fill-opacity:1;" d="M 327.972656 74.625 L 330.222656 74.625 L 330.222656 75.375 L 327.972656 75.375 M 330.972656 74.625 L 333.222656 74.625 L 333.222656 75.375 L 330.972656 75.375 M 333.972656 74.625 L 336.222656 74.625 L 336.222656 75.375 L 333.972656 75.375 M 336.972656 74.625 L 339.222656 74.625 L 339.222656 75.375 L 336.972656 75.375 M 339.972656 74.625 L 342.222656 74.625 L 342.222656 75.375 L 339.972656 75.375 M 342.972656 74.625 L 345.222656 74.625 L 345.222656 75.375 L 342.972656 75.375 M 345.972656 74.625 L 348.222656 74.625 L 348.222656 75.375 L 345.972656 75.375 M 348.972656 74.625 L 351.222656 74.625 L 351.222656 75.375 L 348.972656 75.375 M 351.972656 74.625 L 354.222656 74.625 L 354.222656 75.375 L 351.972656 75.375 M 354.972656 74.625 L 357.222656 74.625 L 357.222656 75.375 L 354.972656 75.375 M 357.972656 74.625 L 360.222656 74.625 L 360.222656 75.375 L 357.972656 75.375 M 360.972656 74.625 L 360.992188 74.625 L 360.992188 75.375 L 360.972656 75.375 "/><path style="fill:none;stroke-width:1;stroke-linecap:round;stroke-linejoin:round;stroke:#000000;stroke-opacity:1;stroke-miterlimit:4;" d="M 42.027394 -0.999997 L 44.027394 0.500003 L 42.027394 2.000003 " transform="matrix(0.75,0,0,0.75,327.971644,74.624998)"/><path style="fill:none;stroke-width:2;stroke-linecap:butt;stroke-linejoin:miter;stroke:#000000;stroke-opacity:1;stroke-miterlimit:4;" d="M 0.000102827 1.000003 L 39.026147 1.000003 " transform="matrix(0.75,-0.000000000000000465,0.000000000000000465,0.75,88.632735,74.249998)"/><path style="fill-rule:nonzero;fill:#000000;fill-opacity:1;stroke-width:2;stroke-linecap:round;stroke-linejoin:round;stroke:#000000;stroke-opacity:1;stroke-miterlimit:4;" d="M 39.526147 -1.999997 L 43.526147 1.000003 L 39.526147 4.000003 Z M 39.526147 -1.999997 " transform="matrix(0.75,-0.000000000000000465,0.000000000000000465,0.75,88.632735,74.249998)"/><path style="fill:none;stroke-width:2;stroke-linecap:butt;stroke-linejoin:miter;stroke:#000000;stroke-opacity:1;stroke-miterlimit:4;" d="M -0.0018826 1.000003 L 39.02937 1.000003 " transform="matrix(0.75,-0.000000000000000465,0.000000000000000465,0.75,208.302193,74.249998)"/><path style="fill-rule:nonzero;fill:#000000;fill-opacity:1;stroke-width:2;stroke-linecap:round;stroke-linejoin:round;stroke:#000000;stroke-opacity:1;stroke-miterlimit:4;" d="M 39.52937 -1.999997 L 43.52937 1.000003 L 39.52937 4.000003 Z M 39.52937 -1.999997 " transform="matrix(0.75,-0.000000000000000465,0.000000000000000465,0.75,208.302193,74.249998)"/><g clip-rule="nonzero" clip-path="url(#6e4d518a82)"><g clip-rule="nonzero" clip-path="url(#83adda95a5)"><path style=" stroke:none;fill-rule:nonzero;fill:#f6e4ae;fill-opacity:1;" d="M 6.105469 29.164062 L 84.886719 29.164062 L 84.886719 120.867188 L 6.105469 120.867188 Z M 6.105469 29.164062 "/></g></g><g clip-rule="nonzero" clip-path="url(#d3c74d4119)"><g clip-rule="nonzero" clip-path="url(#4c71731f61)"><path style=" stroke:none;fill-rule:nonzero;fill:#f6e4ae;fill-opacity:1;" d="M 125.777344 29.164062 L 204.554688 29.164062 L 204.554688 120.867188 L 125.777344 120.867188 Z M 125.777344 29.164062 "/></g></g><g clip-rule="nonzero" clip-path="url(#767d3eaf6c)"><g clip-rule="nonzero" clip-path="url(#b641ba48cd)"><path style=" stroke:none;fill-rule:nonzero;fill:#f6e4ae;fill-opacity:1;" d="M 245.445312 29.164062 L 324.222656 29.164062 L 324.222656 120.867188 L 245.445312 120.867188 Z M 245.445312 29.164062 "/></g></g><g clip-rule="nonzero" clip-path="url(#886bac4806)"><g clip-rule="nonzero" clip-path="url(#c641877ee1)"><path style=" stroke:none;fill-rule:nonzero;fill:#f6e4ae;fill-opacity:1;" d="M 365.113281 29.164062 L 443.894531 29.164062 L 443.894531 120.867188 L 365.113281 120.867188 Z M 365.113281 29.164062 "/></g></g><g style="fill:#000000;fill-opacity:1;"><g transform="translate(11.485074, 78.485813)"><path style="stroke:none" d="M 5.21875 0.140625 C 4.582031 0.140625 4.015625 0.0546875 3.515625 -0.109375 C 3.015625 -0.285156 2.578125 -0.53125 2.203125 -0.84375 C 1.835938 -1.15625 1.53125 -1.515625 1.28125 -1.921875 C 1.039062 -2.335938 0.859375 -2.789062 0.734375 -3.28125 C 0.617188 -3.769531 0.5625 -4.28125 0.5625 -4.8125 C 0.5625 -5.332031 0.617188 -5.835938 0.734375 -6.328125 C 0.859375 -6.828125 1.039062 -7.28125 1.28125 -7.6875 C 1.519531 -8.101562 1.820312 -8.46875 2.1875 -8.78125 C 2.5625 -9.09375 3 -9.332031 3.5 -9.5 C 4 -9.675781 4.566406 -9.765625 5.203125 -9.765625 C 5.835938 -9.765625 6.421875 -9.660156 6.953125 -9.453125 C 7.492188 -9.242188 7.972656 -8.929688 8.390625 -8.515625 C 8.804688 -8.109375 9.144531 -7.609375 9.40625 -7.015625 L 7.796875 -6.375 C 7.671875 -6.789062 7.484375 -7.125 7.234375 -7.375 C 6.984375 -7.632812 6.679688 -7.820312 6.328125 -7.9375 C 5.984375 -8.0625 5.601562 -8.125 5.1875 -8.125 C 4.675781 -8.125 4.238281 -8.039062 3.875 -7.875 C 3.507812 -7.707031 3.207031 -7.472656 2.96875 -7.171875 C 2.726562 -6.867188 2.550781 -6.519531 2.4375 -6.125 C 2.320312 -5.738281 2.265625 -5.320312 2.265625 -4.875 C 2.265625 -4.40625 2.320312 -3.960938 2.4375 -3.546875 C 2.550781 -3.140625 2.726562 -2.78125 2.96875 -2.46875 C 3.207031 -2.164062 3.507812 -1.925781 3.875 -1.75 C 4.25 -1.582031 4.695312 -1.5 5.21875 -1.5 C 5.832031 -1.5 6.351562 -1.632812 6.78125 -1.90625 C 7.21875 -2.1875 7.5625 -2.644531 7.8125 -3.28125 L 9.421875 -2.640625 C 9.160156 -2.035156 8.820312 -1.523438 8.40625 -1.109375 C 8 -0.703125 7.523438 -0.390625 6.984375 -0.171875 C 6.441406 0.0351562 5.851562 0.140625 5.21875 0.140625 Z M 5.21875 0.140625 "/></g><g transform="translate(21.234456, 78.485813)"><path style="stroke:none" d="M 3.828125 0.140625 C 3.304688 0.140625 2.832031 0.046875 2.40625 -0.140625 C 1.976562 -0.328125 1.609375 -0.582031 1.296875 -0.90625 C 0.992188 -1.238281 0.757812 -1.617188 0.59375 -2.046875 C 0.425781 -2.472656 0.34375 -2.929688 0.34375 -3.421875 C 0.34375 -3.898438 0.425781 -4.347656 0.59375 -4.765625 C 0.757812 -5.191406 0.992188 -5.566406 1.296875 -5.890625 C 1.609375 -6.222656 1.976562 -6.476562 2.40625 -6.65625 C 2.832031 -6.84375 3.304688 -6.9375 3.828125 -6.9375 C 4.359375 -6.9375 4.835938 -6.84375 5.265625 -6.65625 C 5.691406 -6.476562 6.054688 -6.222656 6.359375 -5.890625 C 6.660156 -5.566406 6.894531 -5.191406 7.0625 -4.765625 C 7.226562 -4.347656 7.3125 -3.898438 7.3125 -3.421875 C 7.3125 -2.929688 7.226562 -2.472656 7.0625 -2.046875 C 6.894531 -1.617188 6.660156 -1.238281 6.359375 -0.90625 C 6.054688 -0.582031 5.691406 -0.328125 5.265625 -0.140625 C 4.835938 0.046875 4.359375 0.140625 3.828125 0.140625 Z M 3.828125 -1.296875 C 4.140625 -1.296875 4.40625 -1.351562 4.625 -1.46875 C 4.851562 -1.582031 5.035156 -1.738281 5.171875 -1.9375 C 5.316406 -2.132812 5.421875 -2.359375 5.484375 -2.609375 C 5.554688 -2.867188 5.59375 -3.140625 5.59375 -3.421875 C 5.59375 -3.703125 5.554688 -3.96875 5.484375 -4.21875 C 5.421875 -4.46875 5.316406 -4.6875 5.171875 -4.875 C 5.035156 -5.070312 4.851562 -5.222656 4.625 -5.328125 C 4.40625 -5.441406 4.140625 -5.5 3.828125 -5.5 C 3.410156 -5.5 3.070312 -5.398438 2.8125 -5.203125 C 2.550781 -5.015625 2.363281 -4.757812 2.25 -4.4375 C 2.132812 -4.125 2.078125 -3.785156 2.078125 -3.421875 C 2.078125 -3.140625 2.109375 -2.867188 2.171875 -2.609375 C 2.234375 -2.359375 2.332031 -2.132812 2.46875 -1.9375 C 2.613281 -1.738281 2.796875 -1.582031 3.015625 -1.46875 C 3.242188 -1.351562 3.515625 -1.296875 3.828125 -1.296875 Z M 3.828125 -1.296875 "/></g><g transform="translate(28.914137, 78.485813)"><path style="stroke:none" d="M 0.984375 0 L 0.984375 -6.796875 L 2.640625 -6.796875 L 2.640625 -6.015625 C 2.816406 -6.234375 3.019531 -6.410156 3.25 -6.546875 C 3.476562 -6.679688 3.710938 -6.78125 3.953125 -6.84375 C 4.191406 -6.90625 4.421875 -6.9375 4.640625 -6.9375 C 5.085938 -6.9375 5.46875 -6.851562 5.78125 -6.6875 C 6.09375 -6.53125 6.34375 -6.316406 6.53125 -6.046875 C 6.726562 -5.773438 6.875 -5.46875 6.96875 -5.125 C 7.0625 -4.78125 7.109375 -4.429688 7.109375 -4.078125 L 7.109375 0 L 5.46875 0 L 5.46875 -3.875 C 5.46875 -4.175781 5.414062 -4.441406 5.3125 -4.671875 C 5.21875 -4.898438 5.070312 -5.078125 4.875 -5.203125 C 4.6875 -5.335938 4.453125 -5.40625 4.171875 -5.40625 C 3.703125 -5.40625 3.328125 -5.269531 3.046875 -5 C 2.773438 -4.738281 2.640625 -4.3125 2.640625 -3.71875 L 2.640625 0 Z M 0.984375 0 "/></g><g transform="translate(36.818489, 78.485813)"><path style="stroke:none" d="M 3.03125 0.140625 C 2.5625 0.140625 2.128906 0.0546875 1.734375 -0.109375 C 1.347656 -0.285156 1.019531 -0.519531 0.75 -0.8125 C 0.488281 -1.101562 0.300781 -1.421875 0.1875 -1.765625 L 1.5 -2.359375 C 1.5625 -2.191406 1.644531 -2.019531 1.75 -1.84375 C 1.863281 -1.675781 2.015625 -1.53125 2.203125 -1.40625 C 2.398438 -1.289062 2.648438 -1.234375 2.953125 -1.234375 C 3.210938 -1.234375 3.421875 -1.273438 3.578125 -1.359375 C 3.742188 -1.441406 3.863281 -1.546875 3.9375 -1.671875 C 4.019531 -1.804688 4.0625 -1.929688 4.0625 -2.046875 C 4.0625 -2.210938 4 -2.34375 3.875 -2.4375 C 3.75 -2.539062 3.582031 -2.625 3.375 -2.6875 C 3.175781 -2.75 2.953125 -2.804688 2.703125 -2.859375 C 2.460938 -2.921875 2.222656 -2.992188 1.984375 -3.078125 C 1.742188 -3.171875 1.519531 -3.285156 1.3125 -3.421875 C 1.101562 -3.566406 0.9375 -3.75 0.8125 -3.96875 C 0.695312 -4.195312 0.640625 -4.484375 0.640625 -4.828125 C 0.640625 -5.179688 0.707031 -5.488281 0.84375 -5.75 C 0.988281 -6.019531 1.175781 -6.242188 1.40625 -6.421875 C 1.644531 -6.597656 1.914062 -6.726562 2.21875 -6.8125 C 2.519531 -6.894531 2.835938 -6.9375 3.171875 -6.9375 C 3.753906 -6.9375 4.265625 -6.804688 4.703125 -6.546875 C 5.140625 -6.285156 5.488281 -5.925781 5.75 -5.46875 L 4.453125 -4.765625 C 4.378906 -4.898438 4.285156 -5.035156 4.171875 -5.171875 C 4.054688 -5.304688 3.910156 -5.414062 3.734375 -5.5 C 3.566406 -5.582031 3.359375 -5.625 3.109375 -5.625 C 2.835938 -5.625 2.625 -5.566406 2.46875 -5.453125 C 2.3125 -5.335938 2.234375 -5.203125 2.234375 -5.046875 C 2.234375 -4.898438 2.296875 -4.78125 2.421875 -4.6875 C 2.546875 -4.59375 2.707031 -4.515625 2.90625 -4.453125 C 3.113281 -4.390625 3.335938 -4.320312 3.578125 -4.25 C 3.828125 -4.1875 4.078125 -4.101562 4.328125 -4 C 4.578125 -3.90625 4.800781 -3.78125 5 -3.625 C 5.207031 -3.46875 5.375 -3.269531 5.5 -3.03125 C 5.625 -2.789062 5.6875 -2.488281 5.6875 -2.125 C 5.6875 -1.726562 5.609375 -1.390625 5.453125 -1.109375 C 5.304688 -0.828125 5.101562 -0.59375 4.84375 -0.40625 C 4.582031 -0.21875 4.296875 -0.0820312 3.984375 0 C 3.671875 0.09375 3.351562 0.140625 3.03125 0.140625 Z M 3.03125 0.140625 "/></g><g transform="translate(43.007168, 78.485813)"><path style="stroke:none" d="M 3.40625 0.140625 C 2.957031 0.140625 2.570312 0.0546875 2.25 -0.109375 C 1.9375 -0.273438 1.691406 -0.507812 1.515625 -0.8125 C 1.347656 -1.113281 1.265625 -1.46875 1.265625 -1.875 L 1.265625 -5.40625 L 0.171875 -5.40625 L 0.171875 -6.796875 L 1.296875 -6.796875 L 1.296875 -8.484375 L 2.90625 -9.671875 L 2.90625 -6.796875 L 4.625 -6.796875 L 4.625 -5.40625 L 2.90625 -5.40625 L 2.90625 -2.171875 C 2.90625 -1.847656 2.976562 -1.625 3.125 -1.5 C 3.28125 -1.382812 3.46875 -1.328125 3.6875 -1.328125 C 3.851562 -1.328125 4.019531 -1.351562 4.1875 -1.40625 C 4.363281 -1.457031 4.507812 -1.515625 4.625 -1.578125 L 4.625 -0.0625 C 4.5 -0.0195312 4.320312 0.0195312 4.09375 0.0625 C 3.863281 0.113281 3.632812 0.140625 3.40625 0.140625 Z M 3.40625 0.140625 "/></g><g transform="translate(48.140571, 78.485813)"><path style="stroke:none" d="M 0.984375 0 L 0.984375 -6.796875 L 2.609375 -6.796875 L 2.609375 -5.65625 C 2.703125 -5.9375 2.84375 -6.171875 3.03125 -6.359375 C 3.226562 -6.546875 3.445312 -6.6875 3.6875 -6.78125 C 3.925781 -6.882812 4.175781 -6.9375 4.4375 -6.9375 C 4.65625 -6.9375 4.875 -6.894531 5.09375 -6.8125 C 5.320312 -6.738281 5.515625 -6.617188 5.671875 -6.453125 L 4.921875 -5.09375 C 4.691406 -5.25 4.441406 -5.328125 4.171875 -5.328125 C 3.984375 -5.328125 3.796875 -5.28125 3.609375 -5.1875 C 3.421875 -5.09375 3.25 -4.945312 3.09375 -4.75 C 2.9375 -4.550781 2.8125 -4.296875 2.71875 -3.984375 C 2.632812 -3.671875 2.59375 -3.300781 2.59375 -2.875 L 2.59375 0 Z M 0.984375 0 "/></g><g transform="translate(53.689277, 78.485813)"><path style="stroke:none" d="M 2.84375 0.140625 C 2.382812 0.140625 1.96875 0.0546875 1.59375 -0.109375 C 1.21875 -0.285156 0.921875 -0.539062 0.703125 -0.875 C 0.484375 -1.207031 0.375 -1.613281 0.375 -2.09375 C 0.375 -2.457031 0.441406 -2.765625 0.578125 -3.015625 C 0.722656 -3.265625 0.914062 -3.46875 1.15625 -3.625 C 1.40625 -3.78125 1.691406 -3.890625 2.015625 -3.953125 C 2.347656 -4.023438 2.703125 -4.0625 3.078125 -4.0625 L 4.859375 -4.0625 C 4.859375 -4.488281 4.742188 -4.832031 4.515625 -5.09375 C 4.285156 -5.351562 3.953125 -5.484375 3.515625 -5.484375 C 3.253906 -5.484375 3.019531 -5.4375 2.8125 -5.34375 C 2.601562 -5.257812 2.425781 -5.144531 2.28125 -5 C 2.132812 -4.851562 2.007812 -4.695312 1.90625 -4.53125 L 0.640625 -5.453125 C 0.859375 -5.753906 1.101562 -6.015625 1.375 -6.234375 C 1.644531 -6.453125 1.953125 -6.625 2.296875 -6.75 C 2.648438 -6.875 3.050781 -6.9375 3.5 -6.9375 C 4.113281 -6.9375 4.640625 -6.816406 5.078125 -6.578125 C 5.515625 -6.347656 5.847656 -6.019531 6.078125 -5.59375 C 6.316406 -5.164062 6.4375 -4.675781 6.4375 -4.125 L 6.4375 0 L 5.0625 0 L 4.96875 -0.96875 C 4.675781 -0.539062 4.347656 -0.25 3.984375 -0.09375 C 3.628906 0.0625 3.25 0.140625 2.84375 0.140625 Z M 3.078125 -1.265625 C 3.316406 -1.265625 3.539062 -1.304688 3.75 -1.390625 C 3.957031 -1.472656 4.140625 -1.585938 4.296875 -1.734375 C 4.460938 -1.890625 4.59375 -2.0625 4.6875 -2.25 C 4.789062 -2.4375 4.847656 -2.640625 4.859375 -2.859375 L 3.171875 -2.859375 C 2.796875 -2.859375 2.519531 -2.773438 2.34375 -2.609375 C 2.164062 -2.441406 2.078125 -2.25 2.078125 -2.03125 C 2.078125 -1.8125 2.160156 -1.628906 2.328125 -1.484375 C 2.503906 -1.335938 2.753906 -1.265625 3.078125 -1.265625 Z M 3.078125 -1.265625 "/></g><g transform="translate(60.912806, 78.485813)"><path style="stroke:none" d="M 3.03125 0.140625 C 2.5625 0.140625 2.128906 0.0546875 1.734375 -0.109375 C 1.347656 -0.285156 1.019531 -0.519531 0.75 -0.8125 C 0.488281 -1.101562 0.300781 -1.421875 0.1875 -1.765625 L 1.5 -2.359375 C 1.5625 -2.191406 1.644531 -2.019531 1.75 -1.84375 C 1.863281 -1.675781 2.015625 -1.53125 2.203125 -1.40625 C 2.398438 -1.289062 2.648438 -1.234375 2.953125 -1.234375 C 3.210938 -1.234375 3.421875 -1.273438 3.578125 -1.359375 C 3.742188 -1.441406 3.863281 -1.546875 3.9375 -1.671875 C 4.019531 -1.804688 4.0625 -1.929688 4.0625 -2.046875 C 4.0625 -2.210938 4 -2.34375 3.875 -2.4375 C 3.75 -2.539062 3.582031 -2.625 3.375 -2.6875 C 3.175781 -2.75 2.953125 -2.804688 2.703125 -2.859375 C 2.460938 -2.921875 2.222656 -2.992188 1.984375 -3.078125 C 1.742188 -3.171875 1.519531 -3.285156 1.3125 -3.421875 C 1.101562 -3.566406 0.9375 -3.75 0.8125 -3.96875 C 0.695312 -4.195312 0.640625 -4.484375 0.640625 -4.828125 C 0.640625 -5.179688 0.707031 -5.488281 0.84375 -5.75 C 0.988281 -6.019531 1.175781 -6.242188 1.40625 -6.421875 C 1.644531 -6.597656 1.914062 -6.726562 2.21875 -6.8125 C 2.519531 -6.894531 2.835938 -6.9375 3.171875 -6.9375 C 3.753906 -6.9375 4.265625 -6.804688 4.703125 -6.546875 C 5.140625 -6.285156 5.488281 -5.925781 5.75 -5.46875 L 4.453125 -4.765625 C 4.378906 -4.898438 4.285156 -5.035156 4.171875 -5.171875 C 4.054688 -5.304688 3.910156 -5.414062 3.734375 -5.5 C 3.566406 -5.582031 3.359375 -5.625 3.109375 -5.625 C 2.835938 -5.625 2.625 -5.566406 2.46875 -5.453125 C 2.3125 -5.335938 2.234375 -5.203125 2.234375 -5.046875 C 2.234375 -4.898438 2.296875 -4.78125 2.421875 -4.6875 C 2.546875 -4.59375 2.707031 -4.515625 2.90625 -4.453125 C 3.113281 -4.390625 3.335938 -4.320312 3.578125 -4.25 C 3.828125 -4.1875 4.078125 -4.101562 4.328125 -4 C 4.578125 -3.90625 4.800781 -3.78125 5 -3.625 C 5.207031 -3.46875 5.375 -3.269531 5.5 -3.03125 C 5.625 -2.789062 5.6875 -2.488281 5.6875 -2.125 C 5.6875 -1.726562 5.609375 -1.390625 5.453125 -1.109375 C 5.304688 -0.828125 5.101562 -0.59375 4.84375 -0.40625 C 4.582031 -0.21875 4.296875 -0.0820312 3.984375 0 C 3.671875 0.09375 3.351562 0.140625 3.03125 0.140625 Z M 3.03125 0.140625 "/></g><g transform="translate(67.101485, 78.485813)"><path style="stroke:none" d="M 3.40625 0.140625 C 2.957031 0.140625 2.570312 0.0546875 2.25 -0.109375 C 1.9375 -0.273438 1.691406 -0.507812 1.515625 -0.8125 C 1.347656 -1.113281 1.265625 -1.46875 1.265625 -1.875 L 1.265625 -5.40625 L 0.171875 -5.40625 L 0.171875 -6.796875 L 1.296875 -6.796875 L 1.296875 -8.484375 L 2.90625 -9.671875 L 2.90625 -6.796875 L 4.625 -6.796875 L 4.625 -5.40625 L 2.90625 -5.40625 L 2.90625 -2.171875 C 2.90625 -1.847656 2.976562 -1.625 3.125 -1.5 C 3.28125 -1.382812 3.46875 -1.328125 3.6875 -1.328125 C 3.851562 -1.328125 4.019531 -1.351562 4.1875 -1.40625 C 4.363281 -1.457031 4.507812 -1.515625 4.625 -1.578125 L 4.625 -0.0625 C 4.5 -0.0195312 4.320312 0.0195312 4.09375 0.0625 C 3.863281 0.113281 3.632812 0.140625 3.40625 0.140625 Z M 3.40625 0.140625 "/></g><g transform="translate(72.234889, 78.485813)"><path style="stroke:none" d="M 3.8125 0.140625 C 3.226562 0.140625 2.71875 0.046875 2.28125 -0.140625 C 1.851562 -0.335938 1.5 -0.597656 1.21875 -0.921875 C 0.9375 -1.253906 0.722656 -1.628906 0.578125 -2.046875 C 0.441406 -2.472656 0.375 -2.914062 0.375 -3.375 C 0.375 -3.820312 0.4375 -4.253906 0.5625 -4.671875 C 0.695312 -5.097656 0.898438 -5.476562 1.171875 -5.8125 C 1.441406 -6.15625 1.785156 -6.425781 2.203125 -6.625 C 2.628906 -6.832031 3.128906 -6.9375 3.703125 -6.9375 C 4.179688 -6.9375 4.597656 -6.867188 4.953125 -6.734375 C 5.304688 -6.597656 5.601562 -6.410156 5.84375 -6.171875 C 6.09375 -5.929688 6.289062 -5.660156 6.4375 -5.359375 C 6.582031 -5.066406 6.6875 -4.757812 6.75 -4.4375 C 6.820312 -4.125 6.859375 -3.816406 6.859375 -3.515625 C 6.859375 -3.367188 6.851562 -3.234375 6.84375 -3.109375 C 6.832031 -2.992188 6.816406 -2.910156 6.796875 -2.859375 L 2.125 -2.859375 C 2.175781 -2.566406 2.265625 -2.304688 2.390625 -2.078125 C 2.523438 -1.859375 2.707031 -1.6875 2.9375 -1.5625 C 3.175781 -1.4375 3.472656 -1.375 3.828125 -1.375 C 4.140625 -1.375 4.429688 -1.425781 4.703125 -1.53125 C 4.972656 -1.632812 5.226562 -1.820312 5.46875 -2.09375 L 6.609375 -1.09375 C 6.234375 -0.675781 5.816406 -0.363281 5.359375 -0.15625 C 4.898438 0.0390625 4.382812 0.140625 3.8125 0.140625 Z M 2.125 -4.0625 L 5.234375 -4.0625 C 5.171875 -4.539062 5.003906 -4.90625 4.734375 -5.15625 C 4.472656 -5.414062 4.128906 -5.546875 3.703125 -5.546875 C 3.367188 -5.546875 3.097656 -5.476562 2.890625 -5.34375 C 2.679688 -5.21875 2.515625 -5.039062 2.390625 -4.8125 C 2.273438 -4.59375 2.1875 -4.34375 2.125 -4.0625 Z M 2.125 -4.0625 "/></g></g><g style="fill:#000000;fill-opacity:1;"><g transform="translate(132.32238, 78.485813)"><path style="stroke:none" d="M 3.984375 0.109375 C 3.554688 0.109375 3.140625 0.0507812 2.734375 -0.0625 C 2.328125 -0.1875 1.953125 -0.363281 1.609375 -0.59375 C 1.273438 -0.832031 0.992188 -1.125 0.765625 -1.46875 C 0.535156 -1.820312 0.382812 -2.238281 0.3125 -2.71875 L 2.015625 -3.15625 C 2.054688 -2.75 2.171875 -2.421875 2.359375 -2.171875 C 2.546875 -1.921875 2.78125 -1.734375 3.0625 -1.609375 C 3.351562 -1.484375 3.671875 -1.421875 4.015625 -1.421875 C 4.359375 -1.421875 4.644531 -1.472656 4.875 -1.578125 C 5.113281 -1.691406 5.289062 -1.84375 5.40625 -2.03125 C 5.53125 -2.21875 5.59375 -2.421875 5.59375 -2.640625 C 5.59375 -2.890625 5.523438 -3.101562 5.390625 -3.28125 C 5.265625 -3.457031 5.09375 -3.609375 4.875 -3.734375 C 4.65625 -3.867188 4.40625 -3.992188 4.125 -4.109375 C 3.851562 -4.222656 3.566406 -4.335938 3.265625 -4.453125 C 2.972656 -4.566406 2.6875 -4.695312 2.40625 -4.84375 C 2.132812 -4.988281 1.890625 -5.160156 1.671875 -5.359375 C 1.453125 -5.566406 1.273438 -5.8125 1.140625 -6.09375 C 1.015625 -6.375 0.953125 -6.710938 0.953125 -7.109375 C 0.953125 -7.535156 1.03125 -7.910156 1.1875 -8.234375 C 1.34375 -8.566406 1.5625 -8.84375 1.84375 -9.0625 C 2.125 -9.289062 2.441406 -9.460938 2.796875 -9.578125 C 3.160156 -9.703125 3.546875 -9.765625 3.953125 -9.765625 C 4.546875 -9.765625 5.097656 -9.628906 5.609375 -9.359375 C 6.117188 -9.085938 6.539062 -8.660156 6.875 -8.078125 L 5.4375 -7.1875 C 5.269531 -7.519531 5.050781 -7.773438 4.78125 -7.953125 C 4.507812 -8.128906 4.210938 -8.21875 3.890625 -8.21875 C 3.660156 -8.21875 3.453125 -8.175781 3.265625 -8.09375 C 3.085938 -8.007812 2.941406 -7.890625 2.828125 -7.734375 C 2.722656 -7.578125 2.671875 -7.394531 2.671875 -7.1875 C 2.671875 -6.96875 2.734375 -6.773438 2.859375 -6.609375 C 2.992188 -6.453125 3.171875 -6.3125 3.390625 -6.1875 C 3.617188 -6.070312 3.867188 -5.957031 4.140625 -5.84375 C 4.421875 -5.738281 4.707031 -5.628906 5 -5.515625 C 5.289062 -5.398438 5.578125 -5.265625 5.859375 -5.109375 C 6.140625 -4.960938 6.390625 -4.785156 6.609375 -4.578125 C 6.828125 -4.378906 7 -4.132812 7.125 -3.84375 C 7.257812 -3.550781 7.328125 -3.203125 7.328125 -2.796875 C 7.328125 -2.347656 7.238281 -1.941406 7.0625 -1.578125 C 6.894531 -1.222656 6.65625 -0.914062 6.34375 -0.65625 C 6.039062 -0.40625 5.6875 -0.210938 5.28125 -0.078125 C 4.875 0.046875 4.441406 0.109375 3.984375 0.109375 Z M 3.984375 0.109375 "/></g><g transform="translate(140.063335, 78.485813)"><path style="stroke:none" d="M 2.84375 0.140625 C 2.382812 0.140625 1.96875 0.0546875 1.59375 -0.109375 C 1.21875 -0.285156 0.921875 -0.539062 0.703125 -0.875 C 0.484375 -1.207031 0.375 -1.613281 0.375 -2.09375 C 0.375 -2.457031 0.441406 -2.765625 0.578125 -3.015625 C 0.722656 -3.265625 0.914062 -3.46875 1.15625 -3.625 C 1.40625 -3.78125 1.691406 -3.890625 2.015625 -3.953125 C 2.347656 -4.023438 2.703125 -4.0625 3.078125 -4.0625 L 4.859375 -4.0625 C 4.859375 -4.488281 4.742188 -4.832031 4.515625 -5.09375 C 4.285156 -5.351562 3.953125 -5.484375 3.515625 -5.484375 C 3.253906 -5.484375 3.019531 -5.4375 2.8125 -5.34375 C 2.601562 -5.257812 2.425781 -5.144531 2.28125 -5 C 2.132812 -4.851562 2.007812 -4.695312 1.90625 -4.53125 L 0.640625 -5.453125 C 0.859375 -5.753906 1.101562 -6.015625 1.375 -6.234375 C 1.644531 -6.453125 1.953125 -6.625 2.296875 -6.75 C 2.648438 -6.875 3.050781 -6.9375 3.5 -6.9375 C 4.113281 -6.9375 4.640625 -6.816406 5.078125 -6.578125 C 5.515625 -6.347656 5.847656 -6.019531 6.078125 -5.59375 C 6.316406 -5.164062 6.4375 -4.675781 6.4375 -4.125 L 6.4375 0 L 5.0625 0 L 4.96875 -0.96875 C 4.675781 -0.539062 4.347656 -0.25 3.984375 -0.09375 C 3.628906 0.0625 3.25 0.140625 2.84375 0.140625 Z M 3.078125 -1.265625 C 3.316406 -1.265625 3.539062 -1.304688 3.75 -1.390625 C 3.957031 -1.472656 4.140625 -1.585938 4.296875 -1.734375 C 4.460938 -1.890625 4.59375 -2.0625 4.6875 -2.25 C 4.789062 -2.4375 4.847656 -2.640625 4.859375 -2.859375 L 3.171875 -2.859375 C 2.796875 -2.859375 2.519531 -2.773438 2.34375 -2.609375 C 2.164062 -2.441406 2.078125 -2.25 2.078125 -2.03125 C 2.078125 -1.8125 2.160156 -1.628906 2.328125 -1.484375 C 2.503906 -1.335938 2.753906 -1.265625 3.078125 -1.265625 Z M 3.078125 -1.265625 "/></g><g transform="translate(147.286864, 78.485813)"><path style="stroke:none" d="M 3.40625 0.140625 C 2.957031 0.140625 2.570312 0.0546875 2.25 -0.109375 C 1.9375 -0.273438 1.691406 -0.507812 1.515625 -0.8125 C 1.347656 -1.113281 1.265625 -1.46875 1.265625 -1.875 L 1.265625 -5.40625 L 0.171875 -5.40625 L 0.171875 -6.796875 L 1.296875 -6.796875 L 1.296875 -8.484375 L 2.90625 -9.671875 L 2.90625 -6.796875 L 4.625 -6.796875 L 4.625 -5.40625 L 2.90625 -5.40625 L 2.90625 -2.171875 C 2.90625 -1.847656 2.976562 -1.625 3.125 -1.5 C 3.28125 -1.382812 3.46875 -1.328125 3.6875 -1.328125 C 3.851562 -1.328125 4.019531 -1.351562 4.1875 -1.40625 C 4.363281 -1.457031 4.507812 -1.515625 4.625 -1.578125 L 4.625 -0.0625 C 4.5 -0.0195312 4.320312 0.0195312 4.09375 0.0625 C 3.863281 0.113281 3.632812 0.140625 3.40625 0.140625 Z M 3.40625 0.140625 "/></g><g transform="translate(152.420268, 78.485813)"><path style="stroke:none" d="M 3.265625 0.140625 C 2.691406 0.140625 2.222656 0.00390625 1.859375 -0.265625 C 1.492188 -0.546875 1.222656 -0.9375 1.046875 -1.4375 C 0.867188 -1.945312 0.78125 -2.539062 0.78125 -3.21875 L 0.78125 -6.796875 L 2.46875 -6.796875 L 2.46875 -3.171875 C 2.46875 -2.796875 2.5 -2.472656 2.5625 -2.203125 C 2.625 -1.929688 2.742188 -1.722656 2.921875 -1.578125 C 3.097656 -1.441406 3.359375 -1.375 3.703125 -1.375 C 3.890625 -1.375 4.078125 -1.40625 4.265625 -1.46875 C 4.453125 -1.53125 4.617188 -1.644531 4.765625 -1.8125 C 4.921875 -1.976562 5.039062 -2.21875 5.125 -2.53125 C 5.21875 -2.84375 5.265625 -3.242188 5.265625 -3.734375 L 5.265625 -6.796875 L 6.953125 -6.796875 L 6.953125 0 L 5.265625 0 L 5.265625 -0.796875 C 5.023438 -0.472656 4.726562 -0.234375 4.375 -0.078125 C 4.03125 0.0664062 3.660156 0.140625 3.265625 0.140625 Z M 3.265625 0.140625 "/></g><g transform="translate(160.365469, 78.485813)"><path style="stroke:none" d="M 0.984375 0 L 0.984375 -6.796875 L 2.609375 -6.796875 L 2.609375 -5.65625 C 2.703125 -5.9375 2.84375 -6.171875 3.03125 -6.359375 C 3.226562 -6.546875 3.445312 -6.6875 3.6875 -6.78125 C 3.925781 -6.882812 4.175781 -6.9375 4.4375 -6.9375 C 4.65625 -6.9375 4.875 -6.894531 5.09375 -6.8125 C 5.320312 -6.738281 5.515625 -6.617188 5.671875 -6.453125 L 4.921875 -5.09375 C 4.691406 -5.25 4.441406 -5.328125 4.171875 -5.328125 C 3.984375 -5.328125 3.796875 -5.28125 3.609375 -5.1875 C 3.421875 -5.09375 3.25 -4.945312 3.09375 -4.75 C 2.9375 -4.550781 2.8125 -4.296875 2.71875 -3.984375 C 2.632812 -3.671875 2.59375 -3.300781 2.59375 -2.875 L 2.59375 0 Z M 0.984375 0 "/></g><g transform="translate(165.914175, 78.485813)"><path style="stroke:none" d="M 2.84375 0.140625 C 2.382812 0.140625 1.96875 0.0546875 1.59375 -0.109375 C 1.21875 -0.285156 0.921875 -0.539062 0.703125 -0.875 C 0.484375 -1.207031 0.375 -1.613281 0.375 -2.09375 C 0.375 -2.457031 0.441406 -2.765625 0.578125 -3.015625 C 0.722656 -3.265625 0.914062 -3.46875 1.15625 -3.625 C 1.40625 -3.78125 1.691406 -3.890625 2.015625 -3.953125 C 2.347656 -4.023438 2.703125 -4.0625 3.078125 -4.0625 L 4.859375 -4.0625 C 4.859375 -4.488281 4.742188 -4.832031 4.515625 -5.09375 C 4.285156 -5.351562 3.953125 -5.484375 3.515625 -5.484375 C 3.253906 -5.484375 3.019531 -5.4375 2.8125 -5.34375 C 2.601562 -5.257812 2.425781 -5.144531 2.28125 -5 C 2.132812 -4.851562 2.007812 -4.695312 1.90625 -4.53125 L 0.640625 -5.453125 C 0.859375 -5.753906 1.101562 -6.015625 1.375 -6.234375 C 1.644531 -6.453125 1.953125 -6.625 2.296875 -6.75 C 2.648438 -6.875 3.050781 -6.9375 3.5 -6.9375 C 4.113281 -6.9375 4.640625 -6.816406 5.078125 -6.578125 C 5.515625 -6.347656 5.847656 -6.019531 6.078125 -5.59375 C 6.316406 -5.164062 6.4375 -4.675781 6.4375 -4.125 L 6.4375 0 L 5.0625 0 L 4.96875 -0.96875 C 4.675781 -0.539062 4.347656 -0.25 3.984375 -0.09375 C 3.628906 0.0625 3.25 0.140625 2.84375 0.140625 Z M 3.078125 -1.265625 C 3.316406 -1.265625 3.539062 -1.304688 3.75 -1.390625 C 3.957031 -1.472656 4.140625 -1.585938 4.296875 -1.734375 C 4.460938 -1.890625 4.59375 -2.0625 4.6875 -2.25 C 4.789062 -2.4375 4.847656 -2.640625 4.859375 -2.859375 L 3.171875 -2.859375 C 2.796875 -2.859375 2.519531 -2.773438 2.34375 -2.609375 C 2.164062 -2.441406 2.078125 -2.25 2.078125 -2.03125 C 2.078125 -1.8125 2.160156 -1.628906 2.328125 -1.484375 C 2.503906 -1.335938 2.753906 -1.265625 3.078125 -1.265625 Z M 3.078125 -1.265625 "/></g><g transform="translate(173.137704, 78.485813)"><path style="stroke:none" d="M 3.40625 0.140625 C 2.957031 0.140625 2.570312 0.0546875 2.25 -0.109375 C 1.9375 -0.273438 1.691406 -0.507812 1.515625 -0.8125 C 1.347656 -1.113281 1.265625 -1.46875 1.265625 -1.875 L 1.265625 -5.40625 L 0.171875 -5.40625 L 0.171875 -6.796875 L 1.296875 -6.796875 L 1.296875 -8.484375 L 2.90625 -9.671875 L 2.90625 -6.796875 L 4.625 -6.796875 L 4.625 -5.40625 L 2.90625 -5.40625 L 2.90625 -2.171875 C 2.90625 -1.847656 2.976562 -1.625 3.125 -1.5 C 3.28125 -1.382812 3.46875 -1.328125 3.6875 -1.328125 C 3.851562 -1.328125 4.019531 -1.351562 4.1875 -1.40625 C 4.363281 -1.457031 4.507812 -1.515625 4.625 -1.578125 L 4.625 -0.0625 C 4.5 -0.0195312 4.320312 0.0195312 4.09375 0.0625 C 3.863281 0.113281 3.632812 0.140625 3.40625 0.140625 Z M 3.40625 0.140625 "/></g><g transform="translate(178.271108, 78.485813)"><path style="stroke:none" d="M 0.953125 -8.078125 L 0.953125 -9.609375 L 2.671875 -9.609375 L 2.671875 -8.078125 Z M 0.984375 0 L 0.984375 -6.796875 L 2.640625 -6.796875 L 2.640625 0 Z M 0.984375 0 "/></g><g transform="translate(181.893085, 78.485813)"><path style="stroke:none" d="M 3.828125 0.140625 C 3.304688 0.140625 2.832031 0.046875 2.40625 -0.140625 C 1.976562 -0.328125 1.609375 -0.582031 1.296875 -0.90625 C 0.992188 -1.238281 0.757812 -1.617188 0.59375 -2.046875 C 0.425781 -2.472656 0.34375 -2.929688 0.34375 -3.421875 C 0.34375 -3.898438 0.425781 -4.347656 0.59375 -4.765625 C 0.757812 -5.191406 0.992188 -5.566406 1.296875 -5.890625 C 1.609375 -6.222656 1.976562 -6.476562 2.40625 -6.65625 C 2.832031 -6.84375 3.304688 -6.9375 3.828125 -6.9375 C 4.359375 -6.9375 4.835938 -6.84375 5.265625 -6.65625 C 5.691406 -6.476562 6.054688 -6.222656 6.359375 -5.890625 C 6.660156 -5.566406 6.894531 -5.191406 7.0625 -4.765625 C 7.226562 -4.347656 7.3125 -3.898438 7.3125 -3.421875 C 7.3125 -2.929688 7.226562 -2.472656 7.0625 -2.046875 C 6.894531 -1.617188 6.660156 -1.238281 6.359375 -0.90625 C 6.054688 -0.582031 5.691406 -0.328125 5.265625 -0.140625 C 4.835938 0.046875 4.359375 0.140625 3.828125 0.140625 Z M 3.828125 -1.296875 C 4.140625 -1.296875 4.40625 -1.351562 4.625 -1.46875 C 4.851562 -1.582031 5.035156 -1.738281 5.171875 -1.9375 C 5.316406 -2.132812 5.421875 -2.359375 5.484375 -2.609375 C 5.554688 -2.867188 5.59375 -3.140625 5.59375 -3.421875 C 5.59375 -3.703125 5.554688 -3.96875 5.484375 -4.21875 C 5.421875 -4.46875 5.316406 -4.6875 5.171875 -4.875 C 5.035156 -5.070312 4.851562 -5.222656 4.625 -5.328125 C 4.40625 -5.441406 4.140625 -5.5 3.828125 -5.5 C 3.410156 -5.5 3.070312 -5.398438 2.8125 -5.203125 C 2.550781 -5.015625 2.363281 -4.757812 2.25 -4.4375 C 2.132812 -4.125 2.078125 -3.785156 2.078125 -3.421875 C 2.078125 -3.140625 2.109375 -2.867188 2.171875 -2.609375 C 2.234375 -2.359375 2.332031 -2.132812 2.46875 -1.9375 C 2.613281 -1.738281 2.796875 -1.582031 3.015625 -1.46875 C 3.242188 -1.351562 3.515625 -1.296875 3.828125 -1.296875 Z M 3.828125 -1.296875 "/></g><g transform="translate(189.572765, 78.485813)"><path style="stroke:none" d="M 0.984375 0 L 0.984375 -6.796875 L 2.640625 -6.796875 L 2.640625 -6.015625 C 2.816406 -6.234375 3.019531 -6.410156 3.25 -6.546875 C 3.476562 -6.679688 3.710938 -6.78125 3.953125 -6.84375 C 4.191406 -6.90625 4.421875 -6.9375 4.640625 -6.9375 C 5.085938 -6.9375 5.46875 -6.851562 5.78125 -6.6875 C 6.09375 -6.53125 6.34375 -6.316406 6.53125 -6.046875 C 6.726562 -5.773438 6.875 -5.46875 6.96875 -5.125 C 7.0625 -4.78125 7.109375 -4.429688 7.109375 -4.078125 L 7.109375 0 L 5.46875 0 L 5.46875 -3.875 C 5.46875 -4.175781 5.414062 -4.441406 5.3125 -4.671875 C 5.21875 -4.898438 5.070312 -5.078125 4.875 -5.203125 C 4.6875 -5.335938 4.453125 -5.40625 4.171875 -5.40625 C 3.703125 -5.40625 3.328125 -5.269531 3.046875 -5 C 2.773438 -4.738281 2.640625 -4.3125 2.640625 -3.71875 L 2.640625 0 Z M 0.984375 0 "/></g></g><g style="fill:#000000;fill-opacity:1;"><g transform="translate(260.75764, 78.485813)"><path style="stroke:none" d="M 1.234375 0 L 1.234375 -9.609375 L 2.953125 -9.609375 L 7 -2.890625 L 7 -9.609375 L 8.65625 -9.609375 L 8.65625 0 L 6.921875 0 L 2.90625 -6.75 L 2.90625 0 Z M 1.234375 0 "/></g><g transform="translate(270.656803, 78.485813)"><path style="stroke:none" d="M 3.8125 0.140625 C 3.226562 0.140625 2.71875 0.046875 2.28125 -0.140625 C 1.851562 -0.335938 1.5 -0.597656 1.21875 -0.921875 C 0.9375 -1.253906 0.722656 -1.628906 0.578125 -2.046875 C 0.441406 -2.472656 0.375 -2.914062 0.375 -3.375 C 0.375 -3.820312 0.4375 -4.253906 0.5625 -4.671875 C 0.695312 -5.097656 0.898438 -5.476562 1.171875 -5.8125 C 1.441406 -6.15625 1.785156 -6.425781 2.203125 -6.625 C 2.628906 -6.832031 3.128906 -6.9375 3.703125 -6.9375 C 4.179688 -6.9375 4.597656 -6.867188 4.953125 -6.734375 C 5.304688 -6.597656 5.601562 -6.410156 5.84375 -6.171875 C 6.09375 -5.929688 6.289062 -5.660156 6.4375 -5.359375 C 6.582031 -5.066406 6.6875 -4.757812 6.75 -4.4375 C 6.820312 -4.125 6.859375 -3.816406 6.859375 -3.515625 C 6.859375 -3.367188 6.851562 -3.234375 6.84375 -3.109375 C 6.832031 -2.992188 6.816406 -2.910156 6.796875 -2.859375 L 2.125 -2.859375 C 2.175781 -2.566406 2.265625 -2.304688 2.390625 -2.078125 C 2.523438 -1.859375 2.707031 -1.6875 2.9375 -1.5625 C 3.175781 -1.4375 3.472656 -1.375 3.828125 -1.375 C 4.140625 -1.375 4.429688 -1.425781 4.703125 -1.53125 C 4.972656 -1.632812 5.226562 -1.820312 5.46875 -2.09375 L 6.609375 -1.09375 C 6.234375 -0.675781 5.816406 -0.363281 5.359375 -0.15625 C 4.898438 0.0390625 4.382812 0.140625 3.8125 0.140625 Z M 2.125 -4.0625 L 5.234375 -4.0625 C 5.171875 -4.539062 5.003906 -4.90625 4.734375 -5.15625 C 4.472656 -5.414062 4.128906 -5.546875 3.703125 -5.546875 C 3.367188 -5.546875 3.097656 -5.476562 2.890625 -5.34375 C 2.679688 -5.21875 2.515625 -5.039062 2.390625 -4.8125 C 2.273438 -4.59375 2.1875 -4.34375 2.125 -4.0625 Z M 2.125 -4.0625 "/></g><g transform="translate(277.921182, 78.485813)"><path style="stroke:none" d="M 3.40625 0.140625 C 2.957031 0.140625 2.570312 0.0546875 2.25 -0.109375 C 1.9375 -0.273438 1.691406 -0.507812 1.515625 -0.8125 C 1.347656 -1.113281 1.265625 -1.46875 1.265625 -1.875 L 1.265625 -5.40625 L 0.171875 -5.40625 L 0.171875 -6.796875 L 1.296875 -6.796875 L 1.296875 -8.484375 L 2.90625 -9.671875 L 2.90625 -6.796875 L 4.625 -6.796875 L 4.625 -5.40625 L 2.90625 -5.40625 L 2.90625 -2.171875 C 2.90625 -1.847656 2.976562 -1.625 3.125 -1.5 C 3.28125 -1.382812 3.46875 -1.328125 3.6875 -1.328125 C 3.851562 -1.328125 4.019531 -1.351562 4.1875 -1.40625 C 4.363281 -1.457031 4.507812 -1.515625 4.625 -1.578125 L 4.625 -0.0625 C 4.5 -0.0195312 4.320312 0.0195312 4.09375 0.0625 C 3.863281 0.113281 3.632812 0.140625 3.40625 0.140625 Z M 3.40625 0.140625 "/></g><g transform="translate(283.054585, 78.485813)"><path style="stroke:none" d="M 3.40625 0.140625 C 2.957031 0.140625 2.570312 0.0546875 2.25 -0.109375 C 1.9375 -0.273438 1.691406 -0.507812 1.515625 -0.8125 C 1.347656 -1.113281 1.265625 -1.46875 1.265625 -1.875 L 1.265625 -5.40625 L 0.171875 -5.40625 L 0.171875 -6.796875 L 1.296875 -6.796875 L 1.296875 -8.484375 L 2.90625 -9.671875 L 2.90625 -6.796875 L 4.625 -6.796875 L 4.625 -5.40625 L 2.90625 -5.40625 L 2.90625 -2.171875 C 2.90625 -1.847656 2.976562 -1.625 3.125 -1.5 C 3.28125 -1.382812 3.46875 -1.328125 3.6875 -1.328125 C 3.851562 -1.328125 4.019531 -1.351562 4.1875 -1.40625 C 4.363281 -1.457031 4.507812 -1.515625 4.625 -1.578125 L 4.625 -0.0625 C 4.5 -0.0195312 4.320312 0.0195312 4.09375 0.0625 C 3.863281 0.113281 3.632812 0.140625 3.40625 0.140625 Z M 3.40625 0.140625 "/></g><g transform="translate(288.187989, 78.485813)"><path style="stroke:none" d="M 3.8125 0.140625 C 3.226562 0.140625 2.71875 0.046875 2.28125 -0.140625 C 1.851562 -0.335938 1.5 -0.597656 1.21875 -0.921875 C 0.9375 -1.253906 0.722656 -1.628906 0.578125 -2.046875 C 0.441406 -2.472656 0.375 -2.914062 0.375 -3.375 C 0.375 -3.820312 0.4375 -4.253906 0.5625 -4.671875 C 0.695312 -5.097656 0.898438 -5.476562 1.171875 -5.8125 C 1.441406 -6.15625 1.785156 -6.425781 2.203125 -6.625 C 2.628906 -6.832031 3.128906 -6.9375 3.703125 -6.9375 C 4.179688 -6.9375 4.597656 -6.867188 4.953125 -6.734375 C 5.304688 -6.597656 5.601562 -6.410156 5.84375 -6.171875 C 6.09375 -5.929688 6.289062 -5.660156 6.4375 -5.359375 C 6.582031 -5.066406 6.6875 -4.757812 6.75 -4.4375 C 6.820312 -4.125 6.859375 -3.816406 6.859375 -3.515625 C 6.859375 -3.367188 6.851562 -3.234375 6.84375 -3.109375 C 6.832031 -2.992188 6.816406 -2.910156 6.796875 -2.859375 L 2.125 -2.859375 C 2.175781 -2.566406 2.265625 -2.304688 2.390625 -2.078125 C 2.523438 -1.859375 2.707031 -1.6875 2.9375 -1.5625 C 3.175781 -1.4375 3.472656 -1.375 3.828125 -1.375 C 4.140625 -1.375 4.429688 -1.425781 4.703125 -1.53125 C 4.972656 -1.632812 5.226562 -1.820312 5.46875 -2.09375 L 6.609375 -1.09375 C 6.234375 -0.675781 5.816406 -0.363281 5.359375 -0.15625 C 4.898438 0.0390625 4.382812 0.140625 3.8125 0.140625 Z M 2.125 -4.0625 L 5.234375 -4.0625 C 5.171875 -4.539062 5.003906 -4.90625 4.734375 -5.15625 C 4.472656 -5.414062 4.128906 -5.546875 3.703125 -5.546875 C 3.367188 -5.546875 3.097656 -5.476562 2.890625 -5.34375 C 2.679688 -5.21875 2.515625 -5.039062 2.390625 -4.8125 C 2.273438 -4.59375 2.1875 -4.34375 2.125 -4.0625 Z M 2.125 -4.0625 "/></g><g transform="translate(295.452368, 78.485813)"><path style="stroke:none" d="M 3.40625 0.140625 C 2.957031 0.140625 2.570312 0.0546875 2.25 -0.109375 C 1.9375 -0.273438 1.691406 -0.507812 1.515625 -0.8125 C 1.347656 -1.113281 1.265625 -1.46875 1.265625 -1.875 L 1.265625 -5.40625 L 0.171875 -5.40625 L 0.171875 -6.796875 L 1.296875 -6.796875 L 1.296875 -8.484375 L 2.90625 -9.671875 L 2.90625 -6.796875 L 4.625 -6.796875 L 4.625 -5.40625 L 2.90625 -5.40625 L 2.90625 -2.171875 C 2.90625 -1.847656 2.976562 -1.625 3.125 -1.5 C 3.28125 -1.382812 3.46875 -1.328125 3.6875 -1.328125 C 3.851562 -1.328125 4.019531 -1.351562 4.1875 -1.40625 C 4.363281 -1.457031 4.507812 -1.515625 4.625 -1.578125 L 4.625 -0.0625 C 4.5 -0.0195312 4.320312 0.0195312 4.09375 0.0625 C 3.863281 0.113281 3.632812 0.140625 3.40625 0.140625 Z M 3.40625 0.140625 "/></g><g transform="translate(300.585771, 78.485813)"><path style="stroke:none" d="M 2.765625 -7.65625 L 4.296875 -9.609375 L 6.078125 -9.609375 L 3.984375 -7.65625 Z M 3.8125 0.140625 C 3.226562 0.140625 2.71875 0.046875 2.28125 -0.140625 C 1.851562 -0.335938 1.5 -0.597656 1.21875 -0.921875 C 0.9375 -1.253906 0.722656 -1.628906 0.578125 -2.046875 C 0.441406 -2.472656 0.375 -2.914062 0.375 -3.375 C 0.375 -3.820312 0.4375 -4.253906 0.5625 -4.671875 C 0.695312 -5.097656 0.898438 -5.476562 1.171875 -5.8125 C 1.441406 -6.15625 1.785156 -6.425781 2.203125 -6.625 C 2.628906 -6.832031 3.128906 -6.9375 3.703125 -6.9375 C 4.179688 -6.9375 4.597656 -6.867188 4.953125 -6.734375 C 5.304688 -6.597656 5.601562 -6.410156 5.84375 -6.171875 C 6.09375 -5.929688 6.289062 -5.660156 6.4375 -5.359375 C 6.582031 -5.066406 6.6875 -4.757812 6.75 -4.4375 C 6.820312 -4.125 6.859375 -3.816406 6.859375 -3.515625 C 6.859375 -3.367188 6.851562 -3.234375 6.84375 -3.109375 C 6.832031 -2.992188 6.816406 -2.910156 6.796875 -2.859375 L 2.125 -2.859375 C 2.175781 -2.566406 2.265625 -2.304688 2.390625 -2.078125 C 2.523438 -1.859375 2.707031 -1.6875 2.9375 -1.5625 C 3.175781 -1.4375 3.472656 -1.375 3.828125 -1.375 C 4.140625 -1.375 4.429688 -1.425781 4.703125 -1.53125 C 4.972656 -1.632812 5.226562 -1.820312 5.46875 -2.09375 L 6.609375 -1.09375 C 6.234375 -0.675781 5.816406 -0.363281 5.359375 -0.15625 C 4.898438 0.0390625 4.382812 0.140625 3.8125 0.140625 Z M 2.125 -4.0625 L 5.234375 -4.0625 C 5.171875 -4.539062 5.003906 -4.90625 4.734375 -5.15625 C 4.472656 -5.414062 4.128906 -5.546875 3.703125 -5.546875 C 3.367188 -5.546875 3.097656 -5.476562 2.890625 -5.34375 C 2.679688 -5.21875 2.515625 -5.039062 2.390625 -4.8125 C 2.273438 -4.59375 2.1875 -4.34375 2.125 -4.0625 Z M 2.125 -4.0625 "/></g></g><g style="fill:#000000;fill-opacity:1;"><g transform="translate(382.503167, 68.899823)"><path style="stroke:none" d="M 3.15625 0 L 3.15625 -8.078125 L 0.140625 -8.078125 L 0.140625 -9.609375 L 7.890625 -9.609375 L 7.890625 -8.078125 L 4.875 -8.078125 L 4.875 0 Z M 3.15625 0 "/></g><g transform="translate(390.536875, 68.899823)"><path style="stroke:none" d="M 0.984375 0 L 0.984375 -6.796875 L 2.609375 -6.796875 L 2.609375 -5.65625 C 2.703125 -5.9375 2.84375 -6.171875 3.03125 -6.359375 C 3.226562 -6.546875 3.445312 -6.6875 3.6875 -6.78125 C 3.925781 -6.882812 4.175781 -6.9375 4.4375 -6.9375 C 4.65625 -6.9375 4.875 -6.894531 5.09375 -6.8125 C 5.320312 -6.738281 5.515625 -6.617188 5.671875 -6.453125 L 4.921875 -5.09375 C 4.691406 -5.25 4.441406 -5.328125 4.171875 -5.328125 C 3.984375 -5.328125 3.796875 -5.28125 3.609375 -5.1875 C 3.421875 -5.09375 3.25 -4.945312 3.09375 -4.75 C 2.9375 -4.550781 2.8125 -4.296875 2.71875 -3.984375 C 2.632812 -3.671875 2.59375 -3.300781 2.59375 -2.875 L 2.59375 0 Z M 0.984375 0 "/></g><g transform="translate(396.085581, 68.899823)"><path style="stroke:none" d="M 2.84375 0.140625 C 2.382812 0.140625 1.96875 0.0546875 1.59375 -0.109375 C 1.21875 -0.285156 0.921875 -0.539062 0.703125 -0.875 C 0.484375 -1.207031 0.375 -1.613281 0.375 -2.09375 C 0.375 -2.457031 0.441406 -2.765625 0.578125 -3.015625 C 0.722656 -3.265625 0.914062 -3.46875 1.15625 -3.625 C 1.40625 -3.78125 1.691406 -3.890625 2.015625 -3.953125 C 2.347656 -4.023438 2.703125 -4.0625 3.078125 -4.0625 L 4.859375 -4.0625 C 4.859375 -4.488281 4.742188 -4.832031 4.515625 -5.09375 C 4.285156 -5.351562 3.953125 -5.484375 3.515625 -5.484375 C 3.253906 -5.484375 3.019531 -5.4375 2.8125 -5.34375 C 2.601562 -5.257812 2.425781 -5.144531 2.28125 -5 C 2.132812 -4.851562 2.007812 -4.695312 1.90625 -4.53125 L 0.640625 -5.453125 C 0.859375 -5.753906 1.101562 -6.015625 1.375 -6.234375 C 1.644531 -6.453125 1.953125 -6.625 2.296875 -6.75 C 2.648438 -6.875 3.050781 -6.9375 3.5 -6.9375 C 4.113281 -6.9375 4.640625 -6.816406 5.078125 -6.578125 C 5.515625 -6.347656 5.847656 -6.019531 6.078125 -5.59375 C 6.316406 -5.164062 6.4375 -4.675781 6.4375 -4.125 L 6.4375 0 L 5.0625 0 L 4.96875 -0.96875 C 4.675781 -0.539062 4.347656 -0.25 3.984375 -0.09375 C 3.628906 0.0625 3.25 0.140625 2.84375 0.140625 Z M 3.078125 -1.265625 C 3.316406 -1.265625 3.539062 -1.304688 3.75 -1.390625 C 3.957031 -1.472656 4.140625 -1.585938 4.296875 -1.734375 C 4.460938 -1.890625 4.59375 -2.0625 4.6875 -2.25 C 4.789062 -2.4375 4.847656 -2.640625 4.859375 -2.859375 L 3.171875 -2.859375 C 2.796875 -2.859375 2.519531 -2.773438 2.34375 -2.609375 C 2.164062 -2.441406 2.078125 -2.25 2.078125 -2.03125 C 2.078125 -1.8125 2.160156 -1.628906 2.328125 -1.484375 C 2.503906 -1.335938 2.753906 -1.265625 3.078125 -1.265625 Z M 3.078125 -1.265625 "/></g><g transform="translate(403.30911, 68.899823)"><path style="stroke:none" d="M 0.984375 0 L 0.984375 -6.796875 L 2.640625 -6.796875 L 2.640625 -6.015625 C 2.816406 -6.234375 3.019531 -6.410156 3.25 -6.546875 C 3.476562 -6.679688 3.710938 -6.78125 3.953125 -6.84375 C 4.191406 -6.90625 4.421875 -6.9375 4.640625 -6.9375 C 5.085938 -6.9375 5.46875 -6.851562 5.78125 -6.6875 C 6.09375 -6.53125 6.34375 -6.316406 6.53125 -6.046875 C 6.726562 -5.773438 6.875 -5.46875 6.96875 -5.125 C 7.0625 -4.78125 7.109375 -4.429688 7.109375 -4.078125 L 7.109375 0 L 5.46875 0 L 5.46875 -3.875 C 5.46875 -4.175781 5.414062 -4.441406 5.3125 -4.671875 C 5.21875 -4.898438 5.070312 -5.078125 4.875 -5.203125 C 4.6875 -5.335938 4.453125 -5.40625 4.171875 -5.40625 C 3.703125 -5.40625 3.328125 -5.269531 3.046875 -5 C 2.773438 -4.738281 2.640625 -4.3125 2.640625 -3.71875 L 2.640625 0 Z M 0.984375 0 "/></g><g transform="translate(411.213462, 68.899823)"><path style="stroke:none" d="M 3.03125 0.140625 C 2.5625 0.140625 2.128906 0.0546875 1.734375 -0.109375 C 1.347656 -0.285156 1.019531 -0.519531 0.75 -0.8125 C 0.488281 -1.101562 0.300781 -1.421875 0.1875 -1.765625 L 1.5 -2.359375 C 1.5625 -2.191406 1.644531 -2.019531 1.75 -1.84375 C 1.863281 -1.675781 2.015625 -1.53125 2.203125 -1.40625 C 2.398438 -1.289062 2.648438 -1.234375 2.953125 -1.234375 C 3.210938 -1.234375 3.421875 -1.273438 3.578125 -1.359375 C 3.742188 -1.441406 3.863281 -1.546875 3.9375 -1.671875 C 4.019531 -1.804688 4.0625 -1.929688 4.0625 -2.046875 C 4.0625 -2.210938 4 -2.34375 3.875 -2.4375 C 3.75 -2.539062 3.582031 -2.625 3.375 -2.6875 C 3.175781 -2.75 2.953125 -2.804688 2.703125 -2.859375 C 2.460938 -2.921875 2.222656 -2.992188 1.984375 -3.078125 C 1.742188 -3.171875 1.519531 -3.285156 1.3125 -3.421875 C 1.101562 -3.566406 0.9375 -3.75 0.8125 -3.96875 C 0.695312 -4.195312 0.640625 -4.484375 0.640625 -4.828125 C 0.640625 -5.179688 0.707031 -5.488281 0.84375 -5.75 C 0.988281 -6.019531 1.175781 -6.242188 1.40625 -6.421875 C 1.644531 -6.597656 1.914062 -6.726562 2.21875 -6.8125 C 2.519531 -6.894531 2.835938 -6.9375 3.171875 -6.9375 C 3.753906 -6.9375 4.265625 -6.804688 4.703125 -6.546875 C 5.140625 -6.285156 5.488281 -5.925781 5.75 -5.46875 L 4.453125 -4.765625 C 4.378906 -4.898438 4.285156 -5.035156 4.171875 -5.171875 C 4.054688 -5.304688 3.910156 -5.414062 3.734375 -5.5 C 3.566406 -5.582031 3.359375 -5.625 3.109375 -5.625 C 2.835938 -5.625 2.625 -5.566406 2.46875 -5.453125 C 2.3125 -5.335938 2.234375 -5.203125 2.234375 -5.046875 C 2.234375 -4.898438 2.296875 -4.78125 2.421875 -4.6875 C 2.546875 -4.59375 2.707031 -4.515625 2.90625 -4.453125 C 3.113281 -4.390625 3.335938 -4.320312 3.578125 -4.25 C 3.828125 -4.1875 4.078125 -4.101562 4.328125 -4 C 4.578125 -3.90625 4.800781 -3.78125 5 -3.625 C 5.207031 -3.46875 5.375 -3.269531 5.5 -3.03125 C 5.625 -2.789062 5.6875 -2.488281 5.6875 -2.125 C 5.6875 -1.726562 5.609375 -1.390625 5.453125 -1.109375 C 5.304688 -0.828125 5.101562 -0.59375 4.84375 -0.40625 C 4.582031 -0.21875 4.296875 -0.0820312 3.984375 0 C 3.671875 0.09375 3.351562 0.140625 3.03125 0.140625 Z M 3.03125 0.140625 "/></g><g transform="translate(417.402141, 68.899823)"><path style="stroke:none" d="M 1.375 0 L 1.375 -5.40625 L 0.140625 -5.40625 L 0.140625 -6.796875 L 1.390625 -6.796875 L 1.390625 -7.703125 C 1.390625 -8.035156 1.445312 -8.328125 1.5625 -8.578125 C 1.6875 -8.835938 1.847656 -9.054688 2.046875 -9.234375 C 2.253906 -9.410156 2.488281 -9.539062 2.75 -9.625 C 3.007812 -9.71875 3.28125 -9.765625 3.5625 -9.765625 C 3.789062 -9.765625 4.007812 -9.738281 4.21875 -9.6875 C 4.425781 -9.632812 4.617188 -9.566406 4.796875 -9.484375 L 4.25 -8.109375 C 4.175781 -8.160156 4.09375 -8.203125 4 -8.234375 C 3.90625 -8.265625 3.8125 -8.28125 3.71875 -8.28125 C 3.550781 -8.28125 3.40625 -8.222656 3.28125 -8.109375 C 3.15625 -7.992188 3.09375 -7.804688 3.09375 -7.546875 L 3.09375 -6.796875 L 4.6875 -6.796875 L 4.6875 -5.40625 L 3.09375 -5.40625 L 3.09375 0 Z M 1.375 0 "/></g><g transform="translate(422.086202, 68.899823)"><path style="stroke:none" d="M 1.375 0 L 1.375 -1.796875 L 3.03125 -1.796875 L 3.03125 0 Z M 1.375 0 "/></g></g><g style="fill:#000000;fill-opacity:1;"><g transform="translate(381.904043, 88.071792)"><path style="stroke:none" d="M 1.234375 0 L 1.234375 -9.609375 L 2.96875 -9.609375 L 2.96875 0 Z M 1.234375 0 "/></g><g transform="translate(386.111527, 88.071792)"><path style="stroke:none" d="M 0.984375 0 L 0.984375 -6.796875 L 2.640625 -6.796875 L 2.640625 -6.015625 C 2.816406 -6.234375 3.019531 -6.410156 3.25 -6.546875 C 3.476562 -6.679688 3.710938 -6.78125 3.953125 -6.84375 C 4.191406 -6.90625 4.421875 -6.9375 4.640625 -6.9375 C 5.085938 -6.9375 5.46875 -6.851562 5.78125 -6.6875 C 6.09375 -6.53125 6.34375 -6.316406 6.53125 -6.046875 C 6.726562 -5.773438 6.875 -5.46875 6.96875 -5.125 C 7.0625 -4.78125 7.109375 -4.429688 7.109375 -4.078125 L 7.109375 0 L 5.46875 0 L 5.46875 -3.875 C 5.46875 -4.175781 5.414062 -4.441406 5.3125 -4.671875 C 5.21875 -4.898438 5.070312 -5.078125 4.875 -5.203125 C 4.6875 -5.335938 4.453125 -5.40625 4.171875 -5.40625 C 3.703125 -5.40625 3.328125 -5.269531 3.046875 -5 C 2.773438 -4.738281 2.640625 -4.3125 2.640625 -3.71875 L 2.640625 0 Z M 0.984375 0 "/></g><g transform="translate(394.01588, 88.071792)"><path style="stroke:none" d="M 2.71875 0 L -0.046875 -6.796875 L 1.75 -6.796875 L 3.40625 -2.140625 L 5.0625 -6.796875 L 6.859375 -6.796875 L 4.078125 0 Z M 2.71875 0 "/></g><g transform="translate(400.817299, 88.071792)"><path style="stroke:none" d="M 3.8125 0.140625 C 3.226562 0.140625 2.71875 0.046875 2.28125 -0.140625 C 1.851562 -0.335938 1.5 -0.597656 1.21875 -0.921875 C 0.9375 -1.253906 0.722656 -1.628906 0.578125 -2.046875 C 0.441406 -2.472656 0.375 -2.914062 0.375 -3.375 C 0.375 -3.820312 0.4375 -4.253906 0.5625 -4.671875 C 0.695312 -5.097656 0.898438 -5.476562 1.171875 -5.8125 C 1.441406 -6.15625 1.785156 -6.425781 2.203125 -6.625 C 2.628906 -6.832031 3.128906 -6.9375 3.703125 -6.9375 C 4.179688 -6.9375 4.597656 -6.867188 4.953125 -6.734375 C 5.304688 -6.597656 5.601562 -6.410156 5.84375 -6.171875 C 6.09375 -5.929688 6.289062 -5.660156 6.4375 -5.359375 C 6.582031 -5.066406 6.6875 -4.757812 6.75 -4.4375 C 6.820312 -4.125 6.859375 -3.816406 6.859375 -3.515625 C 6.859375 -3.367188 6.851562 -3.234375 6.84375 -3.109375 C 6.832031 -2.992188 6.816406 -2.910156 6.796875 -2.859375 L 2.125 -2.859375 C 2.175781 -2.566406 2.265625 -2.304688 2.390625 -2.078125 C 2.523438 -1.859375 2.707031 -1.6875 2.9375 -1.5625 C 3.175781 -1.4375 3.472656 -1.375 3.828125 -1.375 C 4.140625 -1.375 4.429688 -1.425781 4.703125 -1.53125 C 4.972656 -1.632812 5.226562 -1.820312 5.46875 -2.09375 L 6.609375 -1.09375 C 6.234375 -0.675781 5.816406 -0.363281 5.359375 -0.15625 C 4.898438 0.0390625 4.382812 0.140625 3.8125 0.140625 Z M 2.125 -4.0625 L 5.234375 -4.0625 C 5.171875 -4.539062 5.003906 -4.90625 4.734375 -5.15625 C 4.472656 -5.414062 4.128906 -5.546875 3.703125 -5.546875 C 3.367188 -5.546875 3.097656 -5.476562 2.890625 -5.34375 C 2.679688 -5.21875 2.515625 -5.039062 2.390625 -4.8125 C 2.273438 -4.59375 2.1875 -4.34375 2.125 -4.0625 Z M 2.125 -4.0625 "/></g><g transform="translate(408.081678, 88.071792)"><path style="stroke:none" d="M 0.984375 0 L 0.984375 -6.796875 L 2.609375 -6.796875 L 2.609375 -5.65625 C 2.703125 -5.9375 2.84375 -6.171875 3.03125 -6.359375 C 3.226562 -6.546875 3.445312 -6.6875 3.6875 -6.78125 C 3.925781 -6.882812 4.175781 -6.9375 4.4375 -6.9375 C 4.65625 -6.9375 4.875 -6.894531 5.09375 -6.8125 C 5.320312 -6.738281 5.515625 -6.617188 5.671875 -6.453125 L 4.921875 -5.09375 C 4.691406 -5.25 4.441406 -5.328125 4.171875 -5.328125 C 3.984375 -5.328125 3.796875 -5.28125 3.609375 -5.1875 C 3.421875 -5.09375 3.25 -4.945312 3.09375 -4.75 C 2.9375 -4.550781 2.8125 -4.296875 2.71875 -3.984375 C 2.632812 -3.671875 2.59375 -3.300781 2.59375 -2.875 L 2.59375 0 Z M 0.984375 0 "/></g><g transform="translate(413.630383, 88.071792)"><path style="stroke:none" d="M 3.03125 0.140625 C 2.5625 0.140625 2.128906 0.0546875 1.734375 -0.109375 C 1.347656 -0.285156 1.019531 -0.519531 0.75 -0.8125 C 0.488281 -1.101562 0.300781 -1.421875 0.1875 -1.765625 L 1.5 -2.359375 C 1.5625 -2.191406 1.644531 -2.019531 1.75 -1.84375 C 1.863281 -1.675781 2.015625 -1.53125 2.203125 -1.40625 C 2.398438 -1.289062 2.648438 -1.234375 2.953125 -1.234375 C 3.210938 -1.234375 3.421875 -1.273438 3.578125 -1.359375 C 3.742188 -1.441406 3.863281 -1.546875 3.9375 -1.671875 C 4.019531 -1.804688 4.0625 -1.929688 4.0625 -2.046875 C 4.0625 -2.210938 4 -2.34375 3.875 -2.4375 C 3.75 -2.539062 3.582031 -2.625 3.375 -2.6875 C 3.175781 -2.75 2.953125 -2.804688 2.703125 -2.859375 C 2.460938 -2.921875 2.222656 -2.992188 1.984375 -3.078125 C 1.742188 -3.171875 1.519531 -3.285156 1.3125 -3.421875 C 1.101562 -3.566406 0.9375 -3.75 0.8125 -3.96875 C 0.695312 -4.195312 0.640625 -4.484375 0.640625 -4.828125 C 0.640625 -5.179688 0.707031 -5.488281 0.84375 -5.75 C 0.988281 -6.019531 1.175781 -6.242188 1.40625 -6.421875 C 1.644531 -6.597656 1.914062 -6.726562 2.21875 -6.8125 C 2.519531 -6.894531 2.835938 -6.9375 3.171875 -6.9375 C 3.753906 -6.9375 4.265625 -6.804688 4.703125 -6.546875 C 5.140625 -6.285156 5.488281 -5.925781 5.75 -5.46875 L 4.453125 -4.765625 C 4.378906 -4.898438 4.285156 -5.035156 4.171875 -5.171875 C 4.054688 -5.304688 3.910156 -5.414062 3.734375 -5.5 C 3.566406 -5.582031 3.359375 -5.625 3.109375 -5.625 C 2.835938 -5.625 2.625 -5.566406 2.46875 -5.453125 C 2.3125 -5.335938 2.234375 -5.203125 2.234375 -5.046875 C 2.234375 -4.898438 2.296875 -4.78125 2.421875 -4.6875 C 2.546875 -4.59375 2.707031 -4.515625 2.90625 -4.453125 C 3.113281 -4.390625 3.335938 -4.320312 3.578125 -4.25 C 3.828125 -4.1875 4.078125 -4.101562 4.328125 -4 C 4.578125 -3.90625 4.800781 -3.78125 5 -3.625 C 5.207031 -3.46875 5.375 -3.269531 5.5 -3.03125 C 5.625 -2.789062 5.6875 -2.488281 5.6875 -2.125 C 5.6875 -1.726562 5.609375 -1.390625 5.453125 -1.109375 C 5.304688 -0.828125 5.101562 -0.59375 4.84375 -0.40625 C 4.582031 -0.21875 4.296875 -0.0820312 3.984375 0 C 3.671875 0.09375 3.351562 0.140625 3.03125 0.140625 Z M 3.03125 0.140625 "/></g><g transform="translate(419.819062, 88.071792)"><path style="stroke:none" d="M 3.8125 0.140625 C 3.226562 0.140625 2.71875 0.046875 2.28125 -0.140625 C 1.851562 -0.335938 1.5 -0.597656 1.21875 -0.921875 C 0.9375 -1.253906 0.722656 -1.628906 0.578125 -2.046875 C 0.441406 -2.472656 0.375 -2.914062 0.375 -3.375 C 0.375 -3.820312 0.4375 -4.253906 0.5625 -4.671875 C 0.695312 -5.097656 0.898438 -5.476562 1.171875 -5.8125 C 1.441406 -6.15625 1.785156 -6.425781 2.203125 -6.625 C 2.628906 -6.832031 3.128906 -6.9375 3.703125 -6.9375 C 4.179688 -6.9375 4.597656 -6.867188 4.953125 -6.734375 C 5.304688 -6.597656 5.601562 -6.410156 5.84375 -6.171875 C 6.09375 -5.929688 6.289062 -5.660156 6.4375 -5.359375 C 6.582031 -5.066406 6.6875 -4.757812 6.75 -4.4375 C 6.820312 -4.125 6.859375 -3.816406 6.859375 -3.515625 C 6.859375 -3.367188 6.851562 -3.234375 6.84375 -3.109375 C 6.832031 -2.992188 6.816406 -2.910156 6.796875 -2.859375 L 2.125 -2.859375 C 2.175781 -2.566406 2.265625 -2.304688 2.390625 -2.078125 C 2.523438 -1.859375 2.707031 -1.6875 2.9375 -1.5625 C 3.175781 -1.4375 3.472656 -1.375 3.828125 -1.375 C 4.140625 -1.375 4.429688 -1.425781 4.703125 -1.53125 C 4.972656 -1.632812 5.226562 -1.820312 5.46875 -2.09375 L 6.609375 -1.09375 C 6.234375 -0.675781 5.816406 -0.363281 5.359375 -0.15625 C 4.898438 0.0390625 4.382812 0.140625 3.8125 0.140625 Z M 2.125 -4.0625 L 5.234375 -4.0625 C 5.171875 -4.539062 5.003906 -4.90625 4.734375 -5.15625 C 4.472656 -5.414062 4.128906 -5.546875 3.703125 -5.546875 C 3.367188 -5.546875 3.097656 -5.476562 2.890625 -5.34375 C 2.679688 -5.21875 2.515625 -5.039062 2.390625 -4.8125 C 2.273438 -4.59375 2.1875 -4.34375 2.125 -4.0625 Z M 2.125 -4.0625 "/></g></g></g></svg>